<svg width="2339" height="2005" viewBox="0 0 2339 2005" fill="none" xmlns="http://www.w3.org/2000/svg">
<rect width="2339" height="2005" fill="#011A39"/>
<path fill-rule="evenodd" clip-rule="evenodd" d="M309.667 213.667C309.3 214.033 309.007 214.821 309.015 215.417C309.025 216.068 309.344 216.007 309.816 215.263C310.412 214.325 319.431 213.959 347.051 213.75L383.5 213.474L346.917 213.237C326.796 213.107 310.033 213.3 309.667 213.667ZM520.247 368.25L520.5 523.5H554.5H588.5L588.51 451L588.52 378.5L588.253 450.75L587.987 523H554.493H521V368.512V214.024L558.25 213.75L595.5 213.475L557.747 213.237L519.994 213L520.247 368.25ZM738.667 213.667C738.3 214.033 738.007 214.821 738.015 215.417C738.025 216.068 738.344 216.007 738.817 215.262C739.413 214.323 748.631 213.958 777.051 213.75L814.5 213.475L776.917 213.237C756.246 213.107 739.033 213.3 738.667 213.667ZM868.22 227.75L868.441 242.5L868.748 228.255L869.055 214.009L973.777 213.75L1078.5 213.491L973.25 213.245L868 213L868.22 227.75ZM1126.46 214.25C1126.2 214.938 1126.1 284.8 1126.24 369.5L1126.5 523.5H1161.5H1196.5L1196.76 468.75L1197.02 414H1223.93C1241.3 414 1251.01 414.363 1251.34 415.025C1251.62 415.589 1251.73 415.476 1251.59 414.775C1251.39 413.779 1245.33 413.5 1223.92 413.5H1196.5L1196.24 468.25L1195.98 523H1161.49H1127V368.505V214.011L1215.75 213.75L1304.5 213.489L1215.72 213.245C1145.43 213.051 1126.84 213.26 1126.46 214.25ZM1408.46 214.25C1408.2 214.938 1408.1 284.8 1408.24 369.5L1408.5 523.5L1443.5 523.519L1478.5 523.538L1443.75 523.256L1409 522.974V368.5V214.026L1444.25 213.75L1479.5 213.474L1444.22 213.237C1416.74 213.052 1408.83 213.276 1408.46 214.25ZM1891.67 213.667C1891.3 214.033 1891.01 214.821 1891.02 215.417C1891.03 216.068 1891.34 216.007 1891.82 215.263C1892.41 214.325 1901.43 213.959 1929.05 213.75L1965.5 213.474L1928.92 213.237C1908.8 213.107 1892.03 213.3 1891.67 213.667ZM1532.48 369C1532.48 425.925 1532.6 449.213 1532.75 420.75C1532.9 392.288 1532.9 345.713 1532.75 317.25C1532.6 288.788 1532.48 312.075 1532.48 369ZM1196.48 312.5L1196.5 351.5L1236.5 351.518L1276.5 351.535L1236.76 351.256L1197.02 350.977L1196.74 312.239L1196.46 273.5L1196.48 312.5ZM1359.43 316C1359.43 328.925 1359.57 334.213 1359.75 327.75C1359.92 321.287 1359.92 310.712 1359.75 304.25C1359.57 297.787 1359.43 303.075 1359.43 316ZM1712.75 308.748C1722.24 308.913 1737.76 308.913 1747.25 308.748C1756.74 308.584 1748.98 308.45 1730 308.45C1711.02 308.45 1703.26 308.584 1712.75 308.748ZM938.434 328.5L938.5 337.5L996.75 337.758L1055 338.016V368V397.984L996.75 398.242L938.5 398.5L938.478 429.75L938.457 461.001L938.743 430.008L939.028 399.016L997.264 398.758L1055.5 398.5L1055.76 367.75L1056.03 337H997.553H939.078L938.723 328.25L938.369 319.5L938.434 328.5ZM746.385 357C746.385 363.875 746.545 366.688 746.74 363.25C746.936 359.813 746.936 354.188 746.74 350.75C746.545 347.313 746.385 350.125 746.385 357ZM868.409 379.5C868.408 388.85 868.558 392.81 868.743 388.299C868.928 383.789 868.929 376.139 868.745 371.299C868.562 366.46 868.41 370.15 868.409 379.5ZM868.392 410C868.392 417.425 868.549 420.463 868.742 416.75C868.934 413.037 868.934 406.963 868.742 403.25C868.549 399.537 868.392 402.575 868.392 410ZM976.25 462.75C994.263 462.902 1023.74 462.902 1041.75 462.75C1059.76 462.597 1045.02 462.472 1009 462.472C972.975 462.472 958.237 462.597 976.25 462.75ZM1874.65 470.75C1874.4 471.163 1881.01 471.384 1889.34 471.242C1916.96 470.773 1919.78 470.405 1897.31 470.201C1885.1 470.091 1874.91 470.337 1874.65 470.75ZM652.064 479.3C652.029 479.739 652.687 481.427 653.526 483.05L655.051 486H666.467C672.745 486 678.092 485.663 678.348 485.25C678.605 484.837 673.55 484.637 667.115 484.806L655.415 485.111L653.772 481.806C652.868 479.987 652.099 478.86 652.064 479.3ZM413.408 522.225C413.787 524.093 484.213 524.093 484.592 522.225C484.734 521.524 484.621 521.411 484.342 521.975C484.009 522.646 471.791 523 449 523C426.209 523 413.991 522.646 413.658 521.975C413.379 521.411 413.266 521.524 413.408 522.225ZM1788.02 522.25C1788 523.888 1790.23 523.985 1822.75 523.764L1857.5 523.528L1823.55 523.25C1797.93 523.041 1789.41 522.67 1788.82 521.736C1788.26 520.865 1788.03 521.017 1788.02 522.25ZM2066 521.833C2066 522.696 2056.81 523.062 2030.75 523.237L1995.5 523.473L2030.44 523.75C2063.22 524.009 2068.96 523.629 2066.68 521.35C2066.31 520.974 2066 521.192 2066 521.833ZM242.5 523L207.5 523.539L242.191 523.77C264.492 523.918 277.103 523.643 277.5 523C277.84 522.45 277.979 522.104 277.809 522.23C277.639 522.357 261.75 522.704 242.5 523ZM780.5 523L746.5 523.54L780.191 523.77C801.825 523.918 814.103 523.642 814.5 523C814.84 522.45 814.979 522.103 814.809 522.23C814.639 522.356 799.2 522.703 780.5 523ZM868.655 523.25C868.909 523.663 916.09 524 973.5 524C1030.91 524 1078.09 523.663 1078.34 523.25C1078.6 522.837 1031.42 522.5 973.5 522.5C915.58 522.5 868.4 522.837 868.655 523.25ZM1332 523L1295.5 523.538L1332.25 523.769C1356.24 523.92 1369 523.653 1369 523C1369 522.45 1368.89 522.104 1368.75 522.231C1368.61 522.358 1352.08 522.704 1332 523ZM1618.75 525.749C1632.64 525.906 1655.36 525.906 1669.25 525.749C1683.14 525.592 1671.77 525.464 1644 525.464C1616.23 525.464 1604.86 525.592 1618.75 525.749ZM764.681 623.652C764.307 624.027 764 628.308 764 633.167V642H794.538H825.075L824.788 632.75L824.5 623.5L794.931 623.235C778.668 623.09 765.056 623.277 764.681 623.652ZM1442.42 624.338C1442.14 625.075 1442.04 629.237 1442.2 633.588L1442.5 641.5L1470 641.524L1497.5 641.547L1470.25 641.258L1443 640.968V632.5V624.032L1470.75 623.749L1498.5 623.467L1470.72 623.234C1448.27 623.045 1442.84 623.257 1442.42 624.338ZM765 632.5V641H794.5H824V632.5V624H794.5H765V632.5ZM469.949 729.75L627.397 730.006L630.449 732.753L633.5 735.5L630.563 732.25L627.626 729L470.063 729.247L312.5 729.494L469.949 729.75ZM1635.92 731.75L1633.5 734.5L1636.06 732.25L1638.63 730H1802.01H1965.39L1968.44 732.75L1971.5 735.5L1968.56 732.25L1965.63 729H1801.99H1638.35L1635.92 731.75ZM836.384 733.442C836.08 734.234 836.042 735.697 836.299 736.692C836.606 737.876 836.808 737.551 836.884 735.752L837 733.003L1137.25 732.75L1437.5 732.497L1137.22 732.248C876.473 732.033 836.864 732.19 836.384 733.442ZM853 957.313V1166.63L856.25 1169.56L859.5 1172.5L856.75 1169.45L854 1166.39V957.695V749H1136.93C1405.54 749 1419.88 749.089 1420.31 750.75C1420.66 752.067 1420.8 751.943 1420.88 750.25L1421 748H1137H853V957.313ZM872.919 767.415C872.688 767.645 872.538 855.758 872.584 963.222L872.669 1158.61L892.584 1178.99C903.538 1190.21 920.608 1207.67 930.518 1217.8L948.536 1236.21L1083.94 1236.28C1208.3 1236.33 1219.47 1236.47 1220.92 1237.98C1221.79 1238.89 1226.77 1244.33 1231.99 1250.07C1237.21 1255.81 1244.21 1263.42 1247.55 1267C1250.89 1270.58 1255.28 1275.3 1257.3 1277.5L1260.98 1281.5L1260.99 1393.44L1261 1505.37L1243.29 1523.19L1225.57 1541L1143.54 1540.97L1061.5 1540.95L1043.21 1523.22L1024.92 1505.5L1024.96 1472.25L1025 1439H949.107C889.275 1439 873.129 1439.26 872.81 1440.25C872.095 1442.47 872.692 1573.69 873.423 1574.88C873.811 1575.5 877.362 1578.78 881.314 1582.16C885.266 1585.54 891.875 1591.31 896 1594.99C900.125 1598.67 910.025 1607.44 918 1614.48C925.975 1621.52 933.85 1628.47 935.5 1629.93C937.15 1631.39 949.459 1642.13 962.854 1653.79L987.208 1675L1138.85 1674.99L1290.5 1674.99L1293.51 1672.24C1303.22 1663.36 1329.84 1639.32 1337.5 1632.5C1351.2 1620.3 1354.16 1617.64 1355.9 1615.92C1356.78 1615.05 1361.55 1610.78 1366.5 1606.44C1371.45 1602.09 1376.4 1597.7 1377.5 1596.69C1378.6 1595.67 1384.56 1590.52 1390.75 1585.24L1402 1575.65L1401.95 1400.07L1401.89 1224.5L1387.2 1209.5C1379.11 1201.26 1353.53 1175.27 1330.35 1151.76L1288.2 1109H1156.6H1025V1008.2V907.408L1213.25 907.409L1401.5 907.41V837.455V767.5L1137.42 767.248C992.174 767.11 873.149 767.185 872.919 767.415ZM174.17 853.319L171.991 855.639L172.25 959.069L172.509 1062.5L172.755 959.064L173 855.629L175.174 853.314C176.37 852.042 177.124 851 176.849 851C176.574 851 175.368 852.044 174.17 853.319ZM766.75 853.998C767.739 855.107 768 887.65 768 1009.58V1163.76L765.75 1165.46C763.509 1167.15 763.51 1167.15 766 1165.71L768.5 1164.26L768.753 1009.75C768.993 863.503 768.913 855.179 767.253 853.923C765.761 852.794 765.686 852.805 766.75 853.998ZM1498.25 1217.04L1498 1578.58L1502.29 1582.79C1504.65 1585.11 1506.89 1587 1507.27 1587C1507.64 1587 1505.94 1585.14 1503.48 1582.87L1499 1578.75L1498.75 1217.12L1498.5 855.5L1498.25 1217.04ZM2085.25 859.542L2089 863.584V1217.98V1572.37L2086.75 1574.94L2084.5 1577.5L2087.25 1575.08L2090 1572.65V1218.03V863.406L2085.75 859.453L2081.5 855.5L2085.25 859.542ZM190.174 860.314L188 862.629V954.314C188 1004.74 188.337 1046 188.75 1046C189.163 1046 189.383 1004.64 189.24 954.081L188.979 862.161L191.625 860.081C193.079 858.936 193.837 858 193.309 858C192.781 858 191.37 859.042 190.174 860.314ZM752.487 1009C752.487 1089.57 752.605 1122.54 752.75 1082.25C752.895 1041.96 752.895 976.038 752.75 935.75C752.605 895.463 752.487 928.425 752.487 1009ZM423.75 908.749C438.737 908.905 463.262 908.905 478.25 908.749C493.237 908.594 480.975 908.466 451 908.466C421.025 908.466 408.762 908.594 423.75 908.749ZM528 908.746L543.5 909.048L554 919.274L564.5 929.5L554.018 918.75L543.536 908L528.018 908.222L512.5 908.444L528 908.746ZM1705.98 918.75L1695.5 929.5L1706 919.283L1716.5 909.066L1726 908.74L1735.5 908.415L1725.98 908.208L1716.46 908L1705.98 918.75ZM379.726 925.774L367.983 937.548L368.25 992.024L368.518 1046.5L368.759 992.015L369 937.53L380.734 925.765C387.188 919.294 392.244 914 391.969 914C391.694 914 386.184 919.298 379.726 925.774ZM1420 922V926H1232H1044V1008V1090H1169.71H1295.42L1299.46 1093.75L1303.5 1097.5L1299.55 1093.25L1295.59 1089H1170.3H1045V1008V927H1233H1421V922.5C1421 920.025 1420.78 918 1420.5 918C1420.22 918 1420 919.8 1420 922ZM469.99 924.75L536.48 925.014L546.98 935.257C552.756 940.891 555.235 943.079 552.49 940.119C549.746 937.16 545.025 932.328 542 929.382L536.5 924.027L470 924.256L403.5 924.485L469.99 924.75ZM1713.23 934.269L1703 944.538L1703.25 1217.52L1703.5 1490.5L1703.75 1217.48L1704 944.462L1713.76 934.737L1723.52 925.012L1802.01 924.75L1880.5 924.488L1801.98 924.244L1723.46 924L1713.23 934.269ZM568.75 934.038L573 938.576V1001.59C573 1050.58 572.722 1064.91 571.75 1066C570.687 1067.19 570.761 1067.21 572.25 1066.08C573.884 1064.84 574 1060.58 574 1001.59V938.416L569.25 933.958L564.5 929.5L568.75 934.038ZM1060.67 942.667C1060.3 943.033 1060.01 943.821 1060.01 944.417C1060.02 945.061 1060.35 944.995 1060.82 944.253C1061.45 943.265 1100.73 942.952 1249.56 942.75L1437.5 942.495L1249.42 942.247C1145.97 942.111 1061.03 942.3 1060.67 942.667ZM1898.5 1218C1898.5 1368.6 1898.84 1491.6 1899.25 1491.34C1900.23 1490.74 1900.23 945.261 1899.25 944.655C1898.84 944.4 1898.5 1067.4 1898.5 1218ZM384.469 1003.5C384.469 1035.95 384.595 1049.08 384.75 1032.68C384.904 1016.28 384.904 989.727 384.749 973.678C384.595 957.63 384.469 971.05 384.469 1003.5ZM1915.44 987C1915.44 1004.33 1915.58 1011.41 1915.75 1002.75C1915.92 994.087 1915.92 979.913 1915.75 971.25C1915.58 962.587 1915.44 969.675 1915.44 987ZM1915.46 1066.5C1915.46 1092.9 1915.59 1103.56 1915.75 1090.18C1915.91 1076.81 1915.91 1055.21 1915.75 1042.18C1915.59 1029.16 1915.46 1040.1 1915.46 1066.5ZM1060.25 1070.25L1060.5 1073.5L1180.99 1073.75L1301.49 1074.01L1319.99 1092.25L1338.5 1110.5L1320.01 1091.75L1301.52 1073H1181.32H1061.13L1060.56 1070C1060.01 1067.04 1060 1067.05 1060.25 1070.25ZM1346 1141.5C1358.92 1154.43 1369.71 1165 1369.98 1165C1370.26 1165 1359.92 1154.43 1347 1141.5C1334.08 1128.57 1323.29 1118 1323.02 1118C1322.74 1118 1333.08 1128.57 1346 1141.5ZM1381.51 1155C1391.96 1165.73 1400.71 1174.37 1400.96 1174.21C1401.21 1174.05 1392.66 1165.28 1381.97 1154.71L1362.53 1135.5L1381.51 1155ZM1399 1195.5C1408.61 1205.12 1416.7 1213 1416.98 1213C1417.25 1213 1409.61 1205.12 1400 1195.5C1390.39 1185.88 1382.3 1178 1382.02 1178C1381.75 1178 1389.39 1185.88 1399 1195.5ZM885.5 1200C894.287 1208.8 901.702 1216 901.977 1216C902.252 1216 895.287 1208.8 886.5 1200C877.713 1191.2 870.298 1184 870.023 1184C869.748 1184 876.713 1191.2 885.5 1200ZM882 1219.5C893.815 1231.32 903.7 1241 903.965 1241C904.83 1241 862.529 1198.31 861.509 1198.15C860.964 1198.07 870.185 1207.68 882 1219.5ZM1420 1229.8L1420.49 1243.5L1420.78 1230.58C1420.93 1223.48 1420.71 1217.31 1420.28 1216.88C1419.85 1216.45 1419.72 1222.26 1420 1229.8ZM926 1241.5C933.961 1249.47 940.699 1256 940.974 1256C941.249 1256 934.961 1249.47 927 1241.5C919.039 1233.53 912.301 1227 912.026 1227C911.751 1227 918.039 1233.53 926 1241.5ZM1420.38 1255.5C1420.38 1262.1 1420.55 1264.67 1420.74 1261.21C1420.94 1257.75 1420.94 1252.35 1420.74 1249.21C1420.54 1246.07 1420.38 1248.9 1420.38 1255.5ZM922.5 1261C928.531 1267.05 933.676 1272 933.932 1272C934.792 1272 913.513 1250.28 912.517 1250.14C911.976 1250.06 916.469 1254.95 922.5 1261ZM1068.95 1271.75L1203.4 1272.01L1206.45 1274.75L1209.5 1277.5L1206.56 1274.25L1203.63 1271L1069.06 1271.25L934.5 1271.49L1068.95 1271.75ZM1915.39 1287.5C1915.39 1294.65 1915.55 1297.44 1915.74 1293.71C1915.93 1289.97 1915.93 1284.12 1915.74 1280.71C1915.55 1277.29 1915.39 1280.35 1915.39 1287.5ZM1241.48 1377C1241.48 1425.67 1241.6 1445.59 1241.75 1421.25C1241.9 1396.91 1241.9 1357.09 1241.75 1332.75C1241.6 1308.41 1241.48 1328.33 1241.48 1377ZM172.667 1314.67C172.3 1315.03 172 1400.53 172 1504.67V1694H470.5H769V1551.99V1409.99L662.764 1410.24C557.357 1410.5 556.526 1410.52 556.321 1412.5C556.16 1414.06 556.228 1414.12 556.632 1412.74C557.121 1411.08 562.79 1411 662.324 1411.24L767.5 1411.5L767.753 1552.22L768.007 1692.94L470.498 1692.96L172.99 1692.97L173.245 1503.49C173.385 1399.27 173.462 1314 173.417 1314C173.371 1314 173.033 1314.3 172.667 1314.67ZM188.47 1385C188.47 1418.28 188.596 1431.89 188.749 1415.25C188.903 1398.61 188.903 1371.39 188.749 1354.75C188.596 1338.11 188.47 1351.72 188.47 1385ZM1420.42 1356C1420.42 1366.18 1420.56 1370.34 1420.74 1365.25C1420.93 1360.16 1420.93 1351.84 1420.74 1346.75C1420.56 1341.66 1420.42 1345.82 1420.42 1356ZM836.384 1405.44C836.08 1406.23 836.042 1407.7 836.299 1408.69C836.606 1409.88 836.808 1409.55 836.884 1407.75L837 1405H948.5H1060V1448.29V1491.57L1065.25 1496.54L1070.5 1501.5L1065.75 1496.47L1061 1491.43V1447.72V1404H948.969C852.325 1404 836.861 1404.2 836.384 1405.44ZM368.459 1417.25C368.195 1417.94 368.097 1441.9 368.24 1470.5L368.5 1522.5H471H573.5L573.76 1474.75L574.019 1427H663.01H752V1552V1677H470.563H189.127L188.72 1674.25C188.337 1671.65 188.319 1671.67 188.407 1674.5L188.5 1677.5H470.5H752.5L752.754 1551.75L753.008 1426H663.004H573V1474V1522H470.983H368.965L369.233 1469C369.38 1439.85 369.373 1416 369.219 1416C369.064 1416 368.722 1416.56 368.459 1417.25ZM853.429 1421.32C853.149 1422.05 853.07 1426.89 853.253 1432.07L853.585 1441.5L853.792 1431.25L854 1421H949H1044V1459.44C1044 1480.58 1044.34 1498.09 1044.75 1498.35C1045.16 1498.6 1045.38 1481.08 1045.23 1459.41L1044.95 1420H949.446C871.078 1420 853.846 1420.24 853.429 1421.32ZM384.483 1466L384.5 1506.5L470.75 1506.51L557 1506.52L471.011 1506.25L385.022 1505.99L384.744 1465.74L384.466 1425.5L384.483 1466ZM853.464 1492C853.464 1519.77 853.592 1531.14 853.749 1517.25C853.906 1503.36 853.906 1480.64 853.749 1466.75C853.592 1452.86 853.464 1464.23 853.464 1492ZM188.442 1475C188.442 1491.23 188.58 1497.86 188.748 1489.75C188.916 1481.64 188.916 1468.36 188.748 1460.25C188.58 1452.14 188.442 1458.77 188.442 1475ZM1241.22 1481.44C1241 1497.25 1240.98 1497.42 1238.27 1500.44L1235.55 1503.5L1238.8 1500.45L1242.05 1497.41L1241.75 1481.45L1241.44 1465.5L1241.22 1481.44ZM1888.48 1501.02L1882.53 1507.03L1801.36 1506.77C1756.72 1506.62 1720.71 1506.83 1721.34 1507.23C1721.98 1507.64 1758.51 1507.98 1802.53 1507.98L1882.56 1508L1889 1501.5C1892.54 1497.92 1895.22 1495 1894.94 1495C1894.66 1495 1891.76 1497.71 1888.48 1501.02ZM1137.68 1505.75C1150.98 1505.91 1173.03 1505.91 1186.68 1505.75C1200.33 1505.59 1189.45 1505.46 1162.5 1505.46C1135.55 1505.46 1124.38 1505.59 1137.68 1505.75ZM1061.47 1514.75L1068.45 1522L1142.97 1521.76L1217.5 1521.51L1143.02 1521.25L1068.54 1520.99L1061.52 1514.24L1054.5 1507.5L1061.47 1514.75ZM188.397 1540C188.397 1547.97 188.553 1551.24 188.743 1547.25C188.932 1543.26 188.932 1536.74 188.743 1532.75C188.553 1528.76 188.397 1532.03 188.397 1540ZM853.228 1562.63C853.022 1580.77 853.173 1582.89 854.75 1584.13C856.294 1585.34 856.356 1585.31 855.272 1583.92C854.419 1582.83 853.953 1576.25 853.749 1562.42L853.455 1542.5L853.228 1562.63ZM188.447 1638C188.447 1655.88 188.582 1663.19 188.748 1654.25C188.914 1645.31 188.914 1630.69 188.748 1621.75C188.582 1612.81 188.447 1620.12 188.447 1638ZM1553.93 1629.73C1559.19 1634.81 1563.82 1638.97 1564.21 1638.98C1564.6 1638.99 1562.57 1636.88 1559.71 1634.3C1546.03 1621.94 1545.06 1621.17 1553.93 1629.73ZM1664.25 1678.74C1667.96 1678.93 1674.04 1678.93 1677.75 1678.74C1681.46 1678.55 1678.43 1678.39 1671 1678.39C1663.57 1678.39 1660.54 1678.55 1664.25 1678.74ZM1690.25 1678.74C1693.41 1678.94 1698.59 1678.94 1701.75 1678.74C1704.91 1678.54 1702.32 1678.38 1696 1678.38C1689.68 1678.38 1687.09 1678.54 1690.25 1678.74ZM1846.29 1678.74C1850.03 1678.93 1855.88 1678.93 1859.29 1678.74C1862.71 1678.55 1859.65 1678.39 1852.5 1678.39C1845.35 1678.39 1842.56 1678.55 1846.29 1678.74ZM1984.5 1688.54L1978.5 1694L1802.56 1694L1626.63 1694L1624.06 1691.75L1621.5 1689.5L1623.92 1692.25L1626.35 1695H1802.45H1978.54L1985.02 1689.05C1988.58 1685.77 1991.28 1683.09 1991 1683.09C1990.72 1683.09 1987.8 1685.54 1984.5 1688.54ZM1196.68 1763.65C1196.31 1764.03 1196 1767.63 1196 1771.67V1779L1199.25 1778.85C1202.28 1778.71 1202.31 1778.67 1199.75 1778.28C1197.05 1777.88 1197 1777.73 1197 1770.93V1764H1226.62H1256.23L1255.8 1772.55C1255.54 1777.62 1255.71 1780.47 1256.23 1779.56C1256.7 1778.71 1256.96 1774.75 1256.79 1770.76L1256.5 1763.5L1226.93 1763.23C1210.67 1763.09 1197.06 1763.28 1196.68 1763.65ZM1265.87 1763.25C1265.25 1764.47 1265.42 1771.86 1266.06 1771.46C1266.52 1771.18 1266.7 1769.39 1266.46 1767.49L1266.02 1764.03L1296.26 1763.75L1326.5 1763.47L1296.25 1763.23C1279.61 1763.11 1265.94 1763.11 1265.87 1763.25ZM1362.79 1763.74C1366.25 1763.94 1371.65 1763.94 1374.79 1763.74C1377.93 1763.54 1375.1 1763.38 1368.5 1763.38C1361.9 1763.38 1359.33 1763.55 1362.79 1763.74ZM1160.46 1782.07C1159.96 1782.87 1160.1 1783.05 1160.84 1782.59C1161.71 1782.06 1162.06 1790.69 1162.24 1816.69L1162.47 1851.5L1162.75 1817.06C1163.01 1785.15 1162.58 1778.64 1160.46 1782.07ZM1071 1795.93L1063.5 1796.5L1063.41 1799.5C1063.32 1802.33 1063.34 1802.35 1063.72 1799.75C1064.12 1797.06 1064.27 1797 1071 1797C1074.79 1797 1078.16 1796.55 1078.5 1796C1078.84 1795.45 1078.98 1795.08 1078.81 1795.18C1078.64 1795.28 1075.12 1795.62 1071 1795.93ZM926.872 1797.75C925.639 1799.32 925.671 1799.37 927.19 1798.18C928.384 1797.24 931.509 1796.95 937.848 1797.18C942.78 1797.36 946.605 1797.16 946.349 1796.75C946.092 1796.34 941.914 1796 937.063 1796C929.854 1796 927.994 1796.32 926.872 1797.75ZM1364.25 1797.03C1363.01 1797.53 1362 1798.2 1362 1798.53C1362 1798.85 1362.56 1798.76 1363.25 1798.32C1363.94 1797.88 1368.78 1797.25 1374 1796.93L1383.5 1796.33L1375 1796.23C1370.32 1796.17 1365.49 1796.53 1364.25 1797.03ZM909.417 1817.5C909.418 1827.95 909.566 1832.09 909.746 1826.7C909.926 1821.31 909.925 1812.76 909.744 1807.7C909.563 1802.64 909.416 1807.05 909.417 1817.5ZM947.18 1804.22L947 1809.93L936.25 1810.25L925.5 1810.57L936.281 1810.79C948.473 1811.03 948.343 1811.11 947.74 1803.37L947.36 1798.5L947.18 1804.22ZM1337 1818C1337 1828.63 1337.26 1837.07 1337.58 1836.75C1338.27 1836.07 1338.14 1799.81 1337.46 1799.12C1337.21 1798.87 1337 1807.37 1337 1818ZM1377.78 1812.56C1379.82 1813.99 1380 1814.91 1380 1824.09C1380 1833.5 1379.87 1834.12 1377.75 1834.97C1376.37 1835.52 1376.1 1835.9 1377.05 1835.94C1380.23 1836.07 1381 1833.73 1381 1823.95C1381 1815.88 1380.7 1814.04 1379.17 1812.66C1378.17 1811.75 1376.94 1811 1376.45 1811C1375.96 1811 1376.55 1811.7 1377.78 1812.56ZM963 1818.5V1821H945.122C929.267 1821 927.095 1821.2 925.921 1822.75C924.794 1824.24 924.806 1824.31 925.998 1823.25C927.011 1822.35 932.474 1822 945.7 1822H964V1819C964 1817.35 963.775 1816 963.5 1816C963.225 1816 963 1817.12 963 1818.5ZM1088.21 1841.75L1088.41 1851.5L1088.74 1842.31C1089.05 1833.75 1089.22 1833.1 1091.29 1832.7C1093.14 1832.34 1093.05 1832.25 1090.75 1832.14L1088 1832L1088.21 1841.75ZM1102.71 1832.72L1105.93 1833.12L1106.26 1842.31L1106.58 1851.5L1106.79 1841.75L1107 1832L1103.25 1832.16C1099.61 1832.32 1099.59 1832.33 1102.71 1832.72Z" fill="#B5B5B7"/>
<path fill-rule="evenodd" clip-rule="evenodd" d="M209.046 613.445C208.24 614.416 207.98 619.969 208.193 631.671L208.5 648.5L455 648.773C590.575 648.923 702.531 648.798 703.792 648.494C706.075 647.943 706.083 647.872 705.952 631.22C705.875 621.393 705.394 613.984 704.787 613.249C703.161 611.281 210.68 611.476 209.046 613.445ZM1566.21 612.676C1565.23 613.071 1564.95 617.234 1565.05 630.501C1565.16 647.36 1565.22 647.826 1567.33 648.392C1568.53 648.711 1681.35 648.979 1818.05 648.986C2010.05 648.997 2066.87 648.727 2067.8 647.8C2069.07 646.533 2069.54 618.627 2068.37 614.258L2067.77 612.016L1817.64 612.088C1680.06 612.128 1566.92 612.392 1566.21 612.676ZM323.795 767.5C321.965 769.15 317.325 773.255 313.484 776.621C309.643 779.988 300.728 787.863 293.673 794.121C286.618 800.38 278.293 807.695 275.173 810.377C268.048 816.503 255.527 827.676 247.022 835.5C243.434 838.8 237.349 844.2 233.499 847.5C227.045 853.033 224.158 855.623 212.233 866.579L207.966 870.5L207.968 947.935C207.969 1001.37 208.3 1025.7 209.035 1026.43C210.513 1027.91 345.97 1028.27 347.741 1026.8C348.721 1025.99 349 1015.19 349 978.133V930.511L369.371 910.255L389.743 890L396.121 889.917C402.466 889.835 522.331 889.865 541.591 889.954L551.682 890L571.841 910.137L592 930.274L592.083 988.887C592.128 1021.12 592.253 1052.45 592.361 1058.5C592.468 1064.55 592.307 1070.81 592.003 1072.42C591.34 1075.92 590.378 1076.61 521.5 1122.71C494.55 1140.74 472.275 1155.76 472 1156.08C471.459 1156.71 432.978 1182.53 417.2 1192.84C411.865 1196.33 396.025 1207 382 1216.56C367.975 1226.12 340.3 1244.84 320.5 1258.17C281.729 1284.26 270.894 1291.58 232.75 1317.38L208 1334.12L207.989 1340.31C207.78 1456.61 208.176 1656.29 208.617 1657.44C209.155 1658.85 234.895 1659 469.525 1659C612.696 1659 730.552 1658.73 731.427 1658.39C732.867 1657.84 733.015 1647.84 732.991 1552.51L732.964 1447.23L729.232 1446.33C725.406 1445.41 594.565 1445.1 593.651 1446.01C593.373 1446.29 592.976 1467.54 592.77 1493.23C592.563 1518.92 592.043 1540.29 591.614 1540.72C590.758 1541.58 356.142 1542.13 351.729 1541.29L349 1540.77V1475.07V1409.37L351.75 1406.85C353.263 1405.46 365.75 1396.79 379.5 1387.58C393.25 1378.37 413.725 1364.56 425 1356.89C436.275 1349.22 455.175 1336.4 467 1328.41C478.825 1320.41 494.35 1309.82 501.5 1304.87C508.65 1299.92 520.15 1292.11 527.055 1287.52C533.961 1282.93 540.204 1278.46 540.928 1277.59C541.652 1276.71 542.632 1276 543.106 1276C543.58 1276 547.304 1273.64 551.382 1270.75C555.46 1267.86 560.08 1264.72 561.648 1263.76C569.28 1259.12 577.452 1253.69 578.731 1252.41C579.515 1251.63 581.133 1250.47 582.328 1249.83C583.523 1249.19 589.596 1245.03 595.824 1240.59C602.053 1236.14 607.878 1232.05 608.77 1231.5C609.661 1230.95 610.865 1230.16 611.445 1229.75C612.025 1229.34 615.885 1226.64 620.022 1223.75C624.16 1220.86 629.473 1217.15 631.829 1215.5C634.186 1213.85 639.849 1210.02 644.414 1207C648.979 1203.97 657.841 1198.05 664.107 1193.83C674.686 1186.71 679.831 1183.15 695.5 1172.11C698.8 1169.78 704.65 1165.75 708.5 1163.16C723.917 1152.78 731.824 1146.9 732.397 1145.41C732.729 1144.54 733 1082.4 733 1007.32V870.8L729.712 867.65C727.904 865.917 720.379 859.1 712.99 852.5C705.601 845.9 697.068 838.206 694.028 835.403C690.987 832.599 684.225 826.582 679 822.032C673.775 817.482 665.225 809.847 660 805.064C650.021 795.93 637.88 785.222 627.042 775.997C623.491 772.974 619.1 769.15 617.285 767.5L613.985 764.5H470.554H327.122L323.795 767.5Z" fill="#A8211E"/>
<path fill-rule="evenodd" clip-rule="evenodd" d="M1586.74 212.541C1579.37 214.355 1577.14 215.542 1567 223.062C1553.26 233.25 1540.44 246.311 1536.71 253.931L1533.5 260.5V368.5V476.5L1536.5 482C1539.76 487.97 1557.33 505.941 1567.5 513.709C1570.8 516.229 1576.42 519.687 1580 521.395L1586.5 524.5L1644.5 524.809C1684.8 525.025 1704.33 524.773 1708.5 523.984C1719.94 521.82 1733.81 512.378 1748.74 496.581C1757.51 487.314 1761.6 480.114 1763.02 471.445C1763.55 468.175 1763.99 456.424 1763.99 445.33L1764 425.161L1730 425.126L1696 425.092V438.595C1696 452.932 1695.36 455.531 1690.84 459.625C1685.64 464.341 1687.88 464.196 1622.95 464.023C1615.35 464.003 1613.93 463.697 1610.17 461.259C1607.64 459.616 1605.15 456.884 1603.97 454.443C1602.06 450.488 1602 447.943 1602.01 367.434L1602.01 284.5L1604.26 280.826C1607.06 276.229 1610.53 273.488 1615.02 272.306C1616.93 271.801 1633.12 271.444 1651 271.513C1678.51 271.618 1683.96 271.879 1686.5 273.216C1693.86 277.085 1696 282.442 1696 296.968V308H1729.94H1763.88L1763.53 284.568L1763.17 261.135L1759.93 254.349C1754.25 242.457 1728.74 219.409 1715 213.761C1709.52 211.51 1709.25 211.499 1651 211.312C1603.42 211.159 1591.42 211.388 1586.74 212.541ZM292.475 267.75C282.703 297.313 265.315 349.85 253.836 384.5C242.356 419.15 227.547 463.925 220.926 484C214.305 504.075 208.7 521.068 208.471 521.763C208.138 522.767 215.136 522.972 242.644 522.763L277.236 522.5L279.193 516C282.995 503.37 292.11 474.474 292.915 472.499C293.715 470.534 294.661 470.498 345.615 470.5L397.5 470.501L401.215 482.001C403.258 488.325 407.006 500.138 409.545 508.25L414.159 523H449.08C472.439 523 484 522.658 484 521.967C484 521.399 475.504 495.411 465.121 464.217C445.319 404.727 419.77 327.396 396.412 256.25L382.541 214H346.392H310.243L292.475 267.75ZM521 368.5V523H554.51H588.021L587.989 433.257C587.968 373.053 588.294 343.402 588.979 343.174C589.54 342.987 590 343.297 590 343.865C590 344.432 593.649 352.682 598.109 362.198C602.569 371.714 614.44 397.275 624.488 419C634.537 440.725 645.586 464.476 649.043 471.78L655.327 485.061L666.827 484.78L678.328 484.5L688.216 463C693.654 451.175 699.941 437.675 702.186 433C704.431 428.325 709.755 417.075 714.016 408C718.277 398.925 725.116 384.525 729.214 376C733.313 367.475 738.614 356.338 740.996 351.25C743.377 346.162 745.702 342 746.163 342C746.623 342 747 382.725 747 432.5V523H780.5H814V368.5V214H776.684H739.369L725.009 244.75C705.247 287.068 692.326 314.359 682.279 335C677.595 344.625 672.461 355.313 670.871 358.75C669.281 362.188 667.612 365 667.161 365C666.357 365 663.095 358.284 630.248 289C621.252 270.025 609.571 245.388 604.289 234.25L594.686 214H557.843H521V368.5ZM869 368.5V523H973.5H1078V492.75V462.5L1009.94 462.754C963.998 462.925 941.246 462.667 939.927 461.961C938.042 460.952 937.981 459.794 938.236 429.707L938.5 398.5L996.75 398.242L1055 397.984V368V338.016L996.75 337.758L938.5 337.5V306V274.5L1008.25 274.243L1078 273.986V243.993V214H973.5H869V368.5ZM1127 368.5V523H1161.49H1195.98L1196.24 468.25L1196.5 413.5L1223.73 413.234L1250.96 412.968L1252.56 416.734C1254.55 421.426 1284.46 495.307 1290.81 511.244L1295.5 522.989L1331.75 522.994C1351.69 522.997 1368 522.761 1368 522.469C1368 522.177 1361.9 507.214 1354.45 489.219C1330.12 430.49 1327.29 423.616 1323.58 414.275L1319.92 405.05L1334.21 390.774C1348.83 376.171 1353.79 369.422 1357.07 359.683C1358.62 355.092 1358.83 349.579 1358.93 311.388C1359 283.55 1358.65 266.47 1357.94 263.178C1356.43 256.126 1350.94 248.097 1340.33 237.429C1330.41 227.454 1320.28 220.19 1311.05 216.441L1305.04 214H1216.02H1127V368.5ZM1409 368.5V523H1444H1479V368.5V214H1444H1409V368.5ZM1892 214.338C1892 214.667 1820.62 428.126 1799.54 490.84C1793.74 508.077 1789 522.364 1789 522.59C1789 522.815 1804.42 523 1823.26 523H1857.52L1864.32 501.25C1868.07 489.288 1871.92 477.475 1872.89 475L1874.65 470.5L1926.3 470.368C1963.68 470.273 1978.2 470.55 1978.85 471.368C1979.34 471.991 1983.29 483.863 1987.61 497.75L1995.46 523H2030.73C2050.13 523 2066 522.87 2066 522.711C2066 522.553 2059.23 501.965 2050.95 476.961C2042.68 451.958 2028.92 410.125 2020.37 384C2011.82 357.875 1998.6 317.6 1990.99 294.5C1983.39 271.4 1974.32 243.838 1970.85 233.25L1964.54 214H1928.27C1908.32 214 1892 214.152 1892 214.338ZM1196.24 312.75L1196.5 351.5L1235 351.796C1260.27 351.991 1274.77 351.724 1277.2 351.022C1281.33 349.825 1286.67 344.997 1288.14 341.123C1288.68 339.701 1289.08 327.386 1289.03 313.252C1288.94 284.232 1288.45 281.788 1281.7 276.898L1277.7 274H1236.84H1195.98L1196.24 312.75ZM342.524 306.75C341.096 311.563 334.725 332.6 328.366 353.5C311.014 410.534 311.057 410.39 311.409 410.743C311.89 411.223 379.22 411.114 379.702 410.631C380.19 410.143 374.81 391.611 359.826 342.174C353.713 322.003 348.233 303.813 347.649 301.75C347.065 299.688 346.257 298 345.854 298C345.451 298 343.952 301.938 342.524 306.75ZM1917.06 331.75C1911.34 350.313 1903.55 375.554 1899.75 387.842C1895.96 400.129 1893.01 410.346 1893.21 410.545C1893.56 410.889 1925.5 411.178 1949.75 411.056C1959.48 411.008 1961 410.778 1961 409.364C1961 408.465 1957.65 396.427 1953.56 382.614C1944.54 352.198 1937.33 327.424 1935.34 320C1932.16 308.176 1928.85 298 1928.18 298C1927.79 298 1922.79 313.188 1917.06 331.75ZM1311.97 591.853L1305.43 612.5L1282.97 613L1260.5 613.5L1275.41 624.5C1283.61 630.55 1291.62 636.625 1293.19 638L1296.06 640.5L1289.53 660.65C1285.94 671.733 1283 681.092 1283 681.448C1283 681.803 1284.69 680.789 1286.75 679.193C1288.81 677.597 1296.71 671.712 1304.3 666.115L1318.1 655.94L1326.3 661.537C1330.81 664.615 1339 670.429 1344.5 674.457C1350 678.484 1354.62 681.67 1354.77 681.537C1354.92 681.404 1351.9 672.004 1348.07 660.647L1341.11 639.998L1348.3 634.711C1352.26 631.804 1360.44 625.842 1366.47 621.462L1377.45 613.5L1354.72 613.231C1340.71 613.066 1332 612.586 1332 611.981C1332 610.528 1332.09 610.841 1328.53 599.776C1325.41 590.085 1319.02 571.674 1318.66 571.353C1318.57 571.272 1315.56 580.497 1311.97 591.853ZM949.146 576.75C948.468 579.363 945.571 588.475 942.707 597L937.5 612.5L915.208 613L892.917 613.5L908.208 624.727C916.619 630.901 924.73 636.976 926.234 638.227L928.968 640.5L921.986 660.918C918.145 672.148 915.116 681.45 915.254 681.588C915.392 681.725 923.139 676.25 932.47 669.419C941.801 662.589 949.936 657 950.548 657C951.657 657 968.705 668.384 980.931 677.288C984.468 679.864 987.463 681.866 987.588 681.736C987.712 681.606 986.461 677.45 984.808 672.5C983.155 667.55 980.096 658.215 978.01 651.756L974.217 640.013L992.031 626.756L1009.85 613.5L987.72 613.23C972.436 613.044 965.375 612.606 964.886 611.815C964.496 611.185 961.327 601.969 957.844 591.335C954.36 580.701 951.255 572 950.944 572C950.633 572 949.824 574.137 949.146 576.75ZM1128.5 591.152C1125.2 601.672 1122 610.963 1121.4 611.799C1120.46 613.085 1117.2 613.285 1100.15 613.097C1089.07 612.976 1079.53 613.171 1078.95 613.531C1078.37 613.892 1084.55 619.138 1092.69 625.189C1100.84 631.24 1108.59 637.249 1109.92 638.542L1112.35 640.893L1108.02 654.197C1105.64 661.514 1102.66 670.785 1101.41 674.8L1099.12 682.1L1103.81 678.578C1106.39 676.641 1114.46 670.742 1121.74 665.47L1134.97 655.884L1139.6 659.192C1142.14 661.011 1147.06 664.525 1150.52 667C1153.98 669.475 1159.67 673.543 1163.16 676.039C1166.65 678.535 1170.01 680.895 1170.64 681.281C1171.27 681.668 1168.68 672.718 1164.89 661.391C1161.1 650.065 1158 640.666 1158 640.505C1158 640.345 1166.1 634.202 1176.01 626.856L1194.02 613.5L1171.81 613.23C1156.41 613.043 1149.38 612.608 1148.88 611.81C1148.49 611.178 1145.35 601.962 1141.89 591.33C1138.44 580.699 1135.36 572.006 1135.06 572.013C1134.75 572.02 1131.8 580.633 1128.5 591.152ZM765 632.5V641H794.5H824V632.5V624H794.5H765V632.5ZM1443 632.5V641H1470.39H1497.78L1497.7 632.5L1497.61 624H1470.31H1443V632.5ZM310.879 731.646C309.329 733.513 283.687 756.599 255.5 781.503C245.05 790.736 234.018 800.587 230.984 803.395C227.95 806.203 213.662 819.008 199.234 831.851L173 855.203V958.601V1062H278.5H384V1003.72C384 954.719 384.228 945.119 385.435 943.397C386.224 942.27 390.79 937.445 395.583 932.674L404.296 924H470.474H536.652L546.834 934.225L557.016 944.449L556.758 1000.96L556.5 1057.46L541.5 1067.53C533.25 1073.06 518.625 1082.93 509 1089.47C499.375 1096 475.075 1112.37 455 1125.84C434.925 1139.32 409.5 1156.42 398.5 1163.84C387.5 1171.26 366.125 1185.66 351 1195.83C335.875 1206 316.075 1219.34 307 1225.49C284.759 1240.56 219.361 1284.49 193.75 1301.57L173 1315.4V1504.19V1692.97L470.503 1692.96L768.007 1692.94L767.753 1552.22L767.5 1411.5L662.25 1411.24L557 1410.99V1459V1507.01L470.75 1506.76L384.5 1506.5L384.268 1466L384.035 1425.5L399.268 1415.34C413.137 1406.09 428.922 1395.41 467 1369.5C474.425 1364.44 489.275 1354.37 500 1347.1C510.725 1339.83 530.975 1326.06 545 1316.51C559.025 1306.95 579.275 1293.17 590 1285.88C600.725 1278.6 613.775 1269.72 619 1266.16C624.225 1262.6 636.15 1254.5 645.5 1248.17C654.85 1241.83 664.075 1235.44 666 1233.97C667.925 1232.5 675.8 1227.08 683.5 1221.93C691.2 1216.78 697.65 1212.21 697.833 1211.78C698.017 1211.35 698.767 1211 699.5 1211C700.233 1211 700.983 1210.61 701.167 1210.12C701.35 1209.64 705.325 1206.73 710 1203.65C725.583 1193.39 751.264 1175.77 761.75 1168.16L768 1163.61V1009.71V855.811L760.75 849.095C756.763 845.402 746.975 836.572 739 829.472C731.025 822.373 724.275 816.319 724 816.019C723.725 815.718 719.675 812.104 715 807.986C710.325 803.869 706.275 800.275 706 800C705.725 799.725 701.228 795.675 696.008 791C684.657 780.836 686.126 782.155 676.394 773.393C672.052 769.485 661.975 760.548 654 753.534C646.025 746.521 636.75 738.356 633.389 735.391L627.278 730H469.762C324.756 730 312.136 730.131 310.879 731.646ZM1630.42 737.294C1626.06 741.305 1612.82 753.309 1601 763.97C1589.18 774.63 1568.27 793.51 1554.55 805.926C1540.83 818.342 1522.75 834.575 1514.37 842L1499.15 855.5L1499.08 1217.09L1499 1578.68L1509.66 1588.59C1515.53 1594.04 1522.12 1600.08 1524.32 1602C1526.51 1603.92 1529.7 1606.78 1531.41 1608.35C1534.78 1611.46 1541.39 1617.54 1550.01 1625.45C1557.1 1631.96 1572.23 1645.56 1577.98 1650.58C1580.44 1652.74 1583.41 1655.4 1584.58 1656.5C1589.31 1660.95 1596.74 1667.7 1600.55 1671C1604.19 1674.16 1611.36 1680.5 1622.5 1690.4L1626.5 1693.95L1802.39 1693.98L1978.28 1694L1983.39 1689.62C1986.2 1687.21 1990.06 1683.72 1991.97 1681.87C1993.88 1680.02 1997.03 1677.23 1998.97 1675.67C2000.91 1674.11 2005.21 1670.29 2008.53 1667.17C2011.84 1664.05 2019.7 1656.78 2025.98 1651C2032.27 1645.22 2039.06 1638.92 2041.08 1637C2043.09 1635.08 2046.04 1632.42 2047.62 1631.1C2049.2 1629.78 2052.76 1626.63 2055.52 1624.1C2058.28 1621.57 2064.58 1615.9 2069.52 1611.5C2077.51 1604.38 2086.28 1596.37 2092.53 1590.5C2093.7 1589.4 2097.11 1586.25 2100.11 1583.5L2105.56 1578.5L2105.53 1217.21L2105.5 855.912L2102.27 853.093C2100.49 851.542 2095.09 846.681 2090.27 842.291C2078.83 831.88 2064.67 819.156 2036.52 794C2023.9 782.725 2008.37 768.775 2002.01 763C1983.51 746.21 1972.77 736.535 1968.87 733.151L1965.24 730H1801.78H1638.33L1630.42 737.294ZM837 952.948V1172.9L869.798 1206.2C887.838 1224.51 909.55 1246.6 918.048 1255.28L933.5 1271.06L1068.59 1271.02L1203.69 1270.99L1214.09 1282.05L1224.5 1293.12L1225 1391.2C1225.37 1464.01 1225.2 1489.96 1224.35 1491.89C1223.71 1493.33 1220.49 1497.09 1217.19 1500.25L1211.18 1506H1143.26H1075.35L1067.67 1498.9L1060 1491.81V1448.4V1405H948.5H837V1496.91V1588.82L840.25 1591.53C842.038 1593.02 846.83 1597.22 850.9 1600.87C854.969 1604.52 859.244 1608.31 860.4 1609.29C865.954 1614.03 868.866 1616.56 873.105 1620.37C875.638 1622.64 880.401 1626.84 883.69 1629.69C886.978 1632.55 891.023 1636.15 892.678 1637.69C894.333 1639.24 898.082 1642.53 901.009 1645C903.936 1647.47 906.83 1649.95 907.44 1650.5C908.05 1651.05 912.138 1654.68 916.524 1658.56C924.881 1665.96 927.3 1668.06 935.5 1675.02C939.914 1678.77 952.449 1689.77 955.416 1692.5C956.014 1693.05 959.873 1696.42 963.991 1700C968.11 1703.58 972.36 1707.29 973.435 1708.26C975.284 1709.92 984.341 1710.01 1139.27 1709.97L1303.16 1709.93L1308.33 1705.22C1311.17 1702.62 1313.72 1700.28 1314 1700C1314.28 1699.72 1316.76 1697.47 1319.52 1695C1335.59 1680.6 1341.47 1675.34 1342.99 1674C1345.6 1671.72 1361.77 1657.14 1367.98 1651.47C1371.02 1648.7 1377.55 1642.86 1382.5 1638.49C1387.45 1634.12 1392.42 1629.63 1393.54 1628.52C1395.66 1626.41 1412.59 1611.05 1419.45 1605C1422.77 1602.08 1426.75 1598.48 1435.56 1590.48C1436.38 1589.73 1436.66 1538.99 1436.58 1400.17L1436.49 1210.88L1400.49 1174.23C1380.7 1154.07 1350.37 1123.27 1333.09 1105.79L1301.69 1074.01L1181.09 1073.75L1060.5 1073.5V1008V942.5L1248.75 942.247L1437 941.995V837.497V733H1137H837V952.948ZM309.138 755C303.217 760.225 285.127 776.173 268.937 790.439C244.183 812.252 228.164 826.558 217.519 836.358C216.408 837.38 209.313 843.643 201.75 850.276L188 862.336V954.168V1046H278.5H369L369.033 991.75L369.066 937.5L383.001 923.288L396.935 909.076L454.717 908.998C486.498 908.954 519.475 908.937 528 908.96L543.501 909L558.25 923.708L573 938.416V1001.62V1064.82L567.25 1068.73C564.087 1070.89 550.925 1079.78 538 1088.5C525.075 1097.22 509.55 1107.72 503.5 1111.84C497.45 1115.95 478.775 1128.54 462 1139.81C445.225 1151.08 423.179 1165.97 413.008 1172.9C402.837 1179.83 391.753 1187.3 388.376 1189.5C384.998 1191.7 374.87 1198.48 365.868 1204.56C356.865 1210.64 338.925 1222.75 326 1231.47C313.075 1240.18 292.825 1253.85 281 1261.83C269.175 1269.81 255.45 1279.03 250.5 1282.33C245.55 1285.62 240.375 1289.07 239 1289.98C235.831 1292.09 213.453 1307.31 201 1315.82C195.775 1319.39 190.71 1322.99 189.744 1323.82C188.081 1325.24 188.002 1334.54 188.244 1501.41L188.5 1677.5H470.5H752.5L752.754 1551.75L753.008 1426H663.004H573V1474V1522H471H369V1469.61V1417.22L393.75 1400.5C407.363 1391.31 429.975 1375.98 444 1366.43C458.025 1356.88 480.3 1341.78 493.5 1332.86C506.7 1323.94 525.825 1310.96 536 1304C546.175 1297.04 560.35 1287.36 567.5 1282.49C574.65 1277.62 588.825 1267.94 599 1260.98C609.175 1254.02 623.575 1244.19 631 1239.13C638.425 1234.07 654.625 1222.95 667 1214.41C679.375 1205.88 694.206 1195.71 699.959 1191.81C705.711 1187.92 715.161 1181.49 720.959 1177.52C726.756 1173.55 735.55 1167.56 740.5 1164.2C745.45 1160.85 750.288 1157.32 751.25 1156.37C752.901 1154.75 753 1146.38 753 1008.83C753 870.137 752.913 862.914 751.214 861.25C750.231 860.288 745.647 856.125 741.026 852C731.958 843.905 716.866 830.375 702.5 817.463C697.55 813.013 689.45 805.811 684.5 801.456C679.55 797.102 673.925 792.124 672 790.393C656.055 776.059 626.903 750.34 624.396 748.394L621.291 745.985L470.597 745.742L319.902 745.5L309.138 755ZM1631.96 757C1625.06 763.325 1606.38 780.176 1590.46 794.447C1574.53 808.717 1558.35 823.39 1554.5 827.053C1548.03 833.206 1534.99 844.961 1520.46 857.73L1514.51 862.961L1514.49 1217.6L1514.46 1572.23L1525.98 1583C1532.32 1588.93 1539.73 1595.74 1542.45 1598.14C1550.98 1605.64 1583.34 1634.78 1588.96 1640C1589.85 1640.82 1594.83 1645.28 1600.04 1649.89C1605.24 1654.51 1611.97 1660.59 1615 1663.42C1618.03 1666.25 1623.24 1670.91 1626.58 1673.78L1632.66 1679H1802.91H1973.17L1979.34 1673.17C1989.78 1663.3 1999.27 1654.53 2004.5 1649.92C2007.25 1647.49 2014.69 1640.78 2021.04 1635.01C2027.38 1629.23 2036.38 1621.12 2041.02 1617C2045.66 1612.88 2052.86 1606.35 2057 1602.5C2068.06 1592.23 2075.75 1585.24 2083.3 1578.61L2090 1572.72V1217.95V863.19L2061.25 837.244C2045.44 822.973 2016.15 796.609 1996.17 778.655L1959.84 746.012L1802.17 745.756L1644.5 745.5L1631.96 757ZM853 957.313V1166.63L881.227 1195.56C896.752 1211.48 916.491 1231.66 925.092 1240.41L940.73 1256.32L1075.7 1256.41L1210.68 1256.5L1214.97 1261C1217.34 1263.47 1224.15 1270.57 1230.12 1276.78L1240.98 1288.05L1241.24 1376.78C1241.38 1425.57 1241.28 1472.85 1241 1481.84L1240.5 1498.18L1229 1509.59L1217.5 1521L1143 1520.97L1068.5 1520.94L1056.75 1509.61L1045 1498.29V1459.14V1419.99L949.25 1420.24L853.5 1420.5L853.231 1501.5L852.963 1582.5L855.168 1584.31C856.381 1585.31 860.327 1588.76 863.937 1591.99C867.546 1595.22 871.449 1598.68 872.608 1599.68C873.768 1600.68 878.024 1604.42 882.066 1608C893.651 1618.25 899.369 1623.27 903.069 1626.45C904.956 1628.07 910.55 1632.97 915.5 1637.35C920.45 1641.72 926.075 1646.66 928 1648.32C929.925 1649.99 933.545 1653.18 936.045 1655.43C938.544 1657.67 941.919 1660.63 943.545 1662.02C954.933 1671.71 975.265 1689.45 977.435 1691.59C978.043 1692.19 979.432 1693.11 980.521 1693.63C982.185 1694.43 1103.08 1694.61 1271 1694.08L1297.5 1693.99L1320 1673.88C1345.24 1651.32 1357.18 1640.53 1367.5 1631C1371.37 1627.42 1376.77 1622.53 1379.52 1620.12C1409.19 1594.07 1420.83 1583.11 1421.07 1581C1421.16 1580.18 1421.18 1498.05 1421.12 1398.5L1421 1217.5L1418.43 1214.5C1417.02 1212.85 1405.43 1200.92 1392.68 1188C1379.93 1175.07 1352.74 1147.51 1332.27 1126.75L1295.03 1089H1170.02H1045V1008V927H1233H1421V837.5V748H1137H853V957.313ZM1725.83 908.785L1716.17 909.07L1701.83 923.825L1687.5 938.58L1687.54 1217.62L1687.59 1496.65L1701.04 1509.8L1714.5 1522.94L1801.5 1522.96L1888.5 1522.97L1901.94 1510.08L1915.39 1497.18L1915.23 1217.47L1915.07 937.755L1900.39 923.174L1885.72 908.594L1810.61 908.547C1769.3 908.521 1731.15 908.628 1725.83 908.785ZM1713.23 934.267L1703 944.534V1217.38V1490.23L1706.8 1493.87C1708.89 1495.86 1713.19 1499.86 1716.36 1502.75L1722.11 1508L1802.31 1507.99L1882.5 1507.98L1891.25 1499.34L1900 1490.69V1217.82V944.951L1889.5 934.476L1879 924H1801.23H1723.46L1713.23 934.267ZM1157 1768.89L1146.5 1773.74L1146.49 1780.66L1146.48 1787.57L1152.49 1785.25C1155.8 1783.97 1159.24 1782.52 1160.14 1782.02C1161.04 1781.52 1162.06 1781.39 1162.39 1781.73C1162.73 1782.06 1163 1797.73 1163 1816.54V1850.75L1170.49 1850.8C1175.19 1850.84 1178.26 1850.42 1178.74 1849.68C1179.16 1849.03 1179.53 1829.49 1179.56 1806.25L1179.62 1764L1173.56 1764.02C1168.44 1764.03 1165.87 1764.79 1157 1768.89ZM1197 1771C1197 1777.95 1197.02 1778 1199.75 1778.09C1201.26 1778.14 1210.31 1778.13 1219.86 1778.07L1237.22 1777.97L1236.54 1780.71C1236.16 1782.22 1232.22 1790.89 1227.78 1799.97C1212.73 1830.83 1204 1849.15 1204 1849.9C1204 1850.32 1207.85 1850.65 1212.55 1850.65L1221.1 1850.65L1226.94 1838.88C1230.15 1832.41 1232.53 1826.86 1232.22 1826.56C1231.92 1826.25 1232.19 1826 1232.83 1826C1233.48 1826 1234 1825.58 1234 1825.06C1234 1824.55 1238.88 1814 1244.85 1801.62C1255.49 1779.58 1255.71 1778.98 1255.91 1771.56L1256.1 1764H1226.55H1197V1771ZM1266.33 1771L1266.26 1778L1270.38 1778.07C1272.65 1778.11 1282.04 1778.16 1291.25 1778.18C1300.46 1778.2 1308 1778.59 1308 1779.03C1308 1779.48 1303 1790.12 1296.88 1802.67C1276.26 1844.99 1274 1849.69 1274 1850.26C1274 1850.57 1277.95 1850.83 1282.78 1850.83H1291.56L1296.46 1840.66C1303.09 1826.93 1316.1 1799.23 1316.5 1798C1316.59 1797.72 1318.8 1793.06 1321.41 1787.64C1325.49 1779.16 1326.18 1776.82 1326.36 1770.89L1326.57 1764H1296.49H1266.41L1266.33 1771ZM1347.18 1766.14C1342.74 1768.34 1340.41 1770.98 1339.29 1775.13C1338.93 1776.43 1338.49 1791 1338.31 1807.51C1337.98 1837.03 1338.01 1837.6 1340.24 1841.99C1344.19 1849.79 1346.5 1850.5 1368 1850.5C1385.27 1850.5 1386.73 1850.36 1390 1848.32C1396.38 1844.34 1397.35 1841.38 1397.6 1825.18C1397.84 1810.13 1397.14 1806.1 1393.61 1802.12C1390.2 1798.28 1385.83 1797 1376.1 1797C1366.1 1797 1362.78 1797.91 1358.76 1801.74C1357.25 1803.18 1355.74 1804.08 1355.41 1803.74C1354.23 1802.56 1354.32 1781.95 1355.51 1780.32C1356.36 1779.16 1358.73 1778.69 1364.58 1778.52C1377.31 1778.16 1379.99 1779.56 1380.88 1787.05C1380.95 1787.71 1384.03 1788.03 1389.07 1787.91L1397.13 1787.71L1396.89 1783.11C1396.39 1773.89 1393.53 1769.13 1386.5 1765.89C1383.16 1764.35 1379.93 1764.04 1367 1764.02C1353.16 1764 1351.04 1764.23 1347.18 1766.14ZM1047.04 1769.25C1047.14 1770.49 1047.17 1774.31 1047.11 1777.75L1047 1784H1042.23H1037.47L1037.43 1790L1037.4 1796H1042.2H1047V1817.53C1047 1841.41 1047.53 1844.1 1052.94 1847.96C1055.58 1849.84 1057.62 1850.25 1065.3 1850.47C1070.36 1850.61 1075.06 1850.52 1075.75 1850.26C1076.57 1849.95 1077 1847.59 1077 1843.39V1837H1071.52C1063.32 1837 1063.1 1836.39 1063.32 1814.5L1063.5 1796.5L1070.62 1796.21L1077.74 1795.92L1077.88 1789.96C1078.03 1783.3 1079.05 1784 1068.5 1783.66L1063.5 1783.5L1063.31 1777C1063.21 1773.42 1063.1 1769.71 1063.06 1768.75C1063.01 1767.23 1061.92 1767 1054.93 1767C1047.17 1767 1046.86 1767.09 1047.04 1769.25ZM918.797 1785.45C911.172 1789.13 910.546 1791.32 910.198 1815.5C909.851 1839.57 910.446 1842.62 916.434 1847.46L920.194 1850.5H937.025C952.465 1850.5 954.085 1850.33 956.616 1848.44C961.223 1845 962.925 1841.81 963.539 1835.49L964.123 1829.48L957.311 1829.63C953.565 1829.71 950.275 1829.88 950 1830.01C949.725 1830.13 949.163 1830.18 948.75 1830.12C948.337 1830.05 947.993 1831.01 947.985 1832.25C947.955 1836.59 946.694 1837.23 937.677 1837.47C928.474 1837.71 927.831 1837.54 926.28 1834.5C925.108 1832.2 925.135 1824.11 926.32 1822.25C926.91 1821.33 931.799 1821 945.059 1821H963L963.074 1818.25C963.661 1796.43 962.813 1790.79 958.352 1786.87C955.266 1784.15 952.105 1783.65 937.273 1783.52C924.814 1783.41 922.517 1783.65 918.797 1785.45ZM986.48 1784.72C979.169 1788.45 976.355 1794.87 977.311 1805.62C978.224 1815.88 982.329 1819.15 998 1822.1C1012.25 1824.78 1014 1825.75 1014 1830.95C1014 1836.85 1012.22 1838.01 1003.18 1837.97C994.287 1837.93 992 1836.74 992 1832.14V1829H984.366H976.731L977.236 1836.06C977.664 1842.03 978.168 1843.57 980.511 1846.01C982.034 1847.6 984.481 1849.32 985.948 1849.83C989.249 1850.98 1015.39 1851.02 1019.54 1849.89C1026.78 1847.9 1030.18 1840.16 1029.49 1827.21C1029.14 1820.57 1027.52 1817.03 1023.74 1814.59C1021.75 1813.31 1013.19 1811.22 1003 1809.52C993.019 1807.85 990.001 1804.66 993.131 1799.07C994.438 1796.73 995.223 1796.47 1001.77 1796.21C1010.25 1795.86 1013 1796.98 1013 1800.79C1013 1803.47 1013.08 1803.5 1019.75 1803.53C1023.46 1803.55 1026.79 1803.15 1027.15 1802.64C1028.23 1801.09 1027.04 1791.72 1025.46 1789.3C1022.12 1784.2 1019.62 1783.51 1004.02 1783.35C992.739 1783.24 988.789 1783.55 986.48 1784.72ZM926.793 1797.89C925.601 1799.59 925.432 1801.56 925.864 1808.78C925.998 1811.03 926.172 1811.06 936.75 1810.78L947.5 1810.5L947.801 1805.28C948.295 1796.72 947.464 1796 937.022 1796C929.427 1796 927.919 1796.28 926.793 1797.89ZM1357.74 1813.38C1355.16 1815.59 1354.96 1816.34 1354.74 1824.34C1354.42 1835.92 1354.7 1836.18 1367.96 1836.13C1374.24 1836.11 1378.72 1835.64 1379.59 1834.93C1380.63 1834.07 1381 1831.18 1381 1824.03C1381 1811.49 1380.55 1811 1368.92 1811C1361.5 1811 1360.17 1811.28 1357.74 1813.38ZM1091.25 1832.82C1089.11 1833.12 1089 1833.57 1089 1842.07V1851H1097.5H1106V1842V1833L1103.25 1832.91C1101.74 1832.86 1098.92 1832.75 1097 1832.66C1095.08 1832.57 1092.49 1832.64 1091.25 1832.82Z" fill="white"/>
</svg>
