<svg width="1962" height="961" viewBox="0 0 1962 961" fill="none" xmlns="http://www.w3.org/2000/svg">
<path d="M1591.26 57.9501C1513.74 117.13 1473.5 191.69 1437.4 275.12C1401.3 358.56 1383.55 489.93 1403.67 549.1C1423.79 608.28 1469.95 659.17 1602.5 665.68C1735.05 672.19 1768.78 649.7 1768.78 649.7L1820.26 483.42C1742.15 510.05 1688.89 514.19 1636.82 508.87C1584.75 503.54 1571.14 488.16 1569.95 449.1C1568.77 410.04 1601.31 315.36 1635.63 258.56C1669.95 201.75 1689.48 170.39 1764.63 171.57C1839.78 172.75 1896.59 191.1 1896.59 191.1L1953.99 33.6901C1855.17 -8.91991 1668.77 -1.21989 1591.25 57.9501H1591.26Z" fill="url(#paint0_linear_105_2)"/>
<path d="M1392.41 8.22998L1061.77 666.67H1074.63L1405.27 8.22998H1392.41Z" fill="#64B8E8"/>
<path d="M681.16 6.86011C681.16 6.86011 579.95 383.66 536.85 502.91C493.76 622.16 424.61 681.29 229.2 681.29C33.79 681.29 -17.28 576.11 22.6 421.36C60.87 272.83 144.03 6.86011 144.03 6.86011H345.4C328.51 67.5001 234.72 404.47 222.16 453.32C208.35 507.04 221.32 532.22 260.53 536.2C313.48 541.57 333.43 504.74 342.64 473.27C350.46 446.55 450.16 108.22 480.03 6.8501H681.17L681.16 6.86011Z" fill="url(#paint1_linear_105_2)"/>
<path d="M1529.82 8.22998H1405.27L1074.63 666.67H1197.53L1529.82 8.22998Z" fill="url(#paint2_linear_105_2)"/>
<path d="M1315.7 8.22998L1120.02 385.03L1196.86 8.22998H1037.72L832.25 371.98L924.69 8.22998H743.99L553.68 666.67H830.37L967.31 416.49L931.89 666.67H1061.77L1392.41 8.22998H1315.7Z" fill="url(#paint3_linear_105_2)"/>
<path d="M1797.1 12.27C1853.91 12.27 1908.12 21.17 1946.95 36.78L1893.17 184.25C1877.47 179.74 1827.8 166.99 1764.72 166C1763.32 165.98 1761.94 165.97 1760.58 165.97C1685.07 165.97 1664.67 199.74 1630.87 255.68C1596.1 313.23 1563.17 409.12 1564.39 449.27C1565.72 493.15 1583.18 508.98 1636.25 514.4C1649.72 515.78 1662.41 516.45 1675.04 516.45C1716.98 516.45 1760.66 508.7 1811.74 492.12L1764.11 645.98C1753 651.77 1717.12 661.3 1648.17 661.3C1633.93 661.3 1618.66 660.9 1602.77 660.12C1493.42 654.75 1433.64 619.96 1408.94 547.31C1389.77 490.93 1405.77 362.25 1442.51 277.33C1480.83 188.75 1521.36 118.3 1594.64 62.3699C1635.12 31.4699 1712.7 12.27 1797.1 12.27ZM1797.1 6.70996C1717.4 6.70996 1636.11 23.7099 1591.26 57.95C1513.74 117.13 1473.5 191.69 1437.4 275.12C1401.3 358.56 1383.55 489.93 1403.67 549.1C1423.79 608.28 1469.95 659.17 1602.5 665.68C1619.26 666.5 1634.44 666.86 1648.17 666.86C1743.05 666.86 1768.78 649.7 1768.78 649.7L1820.26 483.42C1760.99 503.62 1716.03 510.88 1675.04 510.88C1662.01 510.88 1649.38 510.15 1636.81 508.86C1584.74 503.53 1571.13 488.15 1569.94 449.09C1568.76 410.03 1601.3 315.35 1635.62 258.55C1669.32 202.78 1688.76 171.53 1760.57 171.53C1761.9 171.53 1763.25 171.54 1764.62 171.56C1839.77 172.74 1896.58 191.09 1896.58 191.09L1953.98 33.6799C1912.34 15.7299 1855.12 6.69995 1797.08 6.69995L1797.1 6.70996Z" fill="#642A0B" fill-opacity="0.4"/>
<path d="M673.9 12.4299C659.81 64.6099 570.91 392.31 531.62 501.03C508.46 565.12 479.33 605.55 437.18 632.12C389.97 661.87 323.89 675.73 229.2 675.73C140.8 675.73 79.02 653.86 45.6 610.73C12.71 568.29 6.78002 505.04 27.98 422.75C63.26 285.82 137.69 45.8999 148.11 12.4299H338.07C315.87 92.1499 228.88 404.81 216.76 451.94C208.5 484.08 209.53 506.94 219.91 521.83C227.92 533.31 241.02 539.83 259.96 541.75C263.59 542.12 267.16 542.3 270.6 542.3C308.84 542.3 334.88 519.61 347.98 474.85C355.64 448.67 452.61 119.59 484.19 12.4299H673.9ZM1383.39 13.7999L1058.34 661.11H938.29L972.82 417.28C973.2 414.62 971.62 412.07 969.07 411.22C968.49 411.03 967.9 410.94 967.32 410.94C965.33 410.94 963.44 412.01 962.44 413.83L827.09 661.11H561.09L748.19 13.7999H917.54L826.86 370.62C826.17 373.32 827.59 376.12 830.18 377.15C830.86 377.42 831.56 377.55 832.25 377.55C834.21 377.55 836.08 376.51 837.1 374.72L1040.97 13.7999H1190.05L1114.57 383.92C1114.02 386.64 1115.55 389.35 1118.17 390.28C1118.78 390.5 1119.41 390.6 1120.03 390.6C1122.06 390.6 1123.99 389.49 1124.97 387.6L1319.08 13.7999H1383.39ZM681.16 6.85986H480.02C450.15 108.23 350.45 446.55 342.63 473.28C334.03 502.67 316.07 536.73 270.59 536.73C267.37 536.73 264.01 536.56 260.52 536.2C221.31 532.22 208.34 507.04 222.15 453.32C234.71 404.47 328.51 67.4899 345.39 6.85986H144.02C144.02 6.85986 60.86 272.83 22.59 421.36C-17.28 576.11 33.78 681.29 229.2 681.29C424.62 681.29 493.76 622.16 536.85 502.91C579.94 383.66 681.16 6.85986 681.16 6.85986ZM1392.41 8.22986H1315.7L1120.03 385.03L1196.87 8.22986H1037.73L832.26 371.98L924.7 8.22986H744.01L553.69 666.67H830.39L967.33 416.5L931.91 666.67H1061.8L1392.44 8.22986H1392.41Z" fill="url(#paint4_linear_105_2)"/>
<path d="M1520.78 13.8L1194.11 661.11H1083.65L1408.7 13.8H1520.78ZM1529.82 8.22998H1405.27L1074.63 666.67H1197.53L1529.82 8.22998Z" fill="url(#paint5_linear_105_2)"/>
<path d="M66.0672 888.889C53.1568 888.889 42.9229 885.111 35.3656 877.553C27.9657 869.996 24.2658 859.841 24.2658 847.088C24.2658 843.467 24.4233 840.711 24.7381 838.822L38.6719 724.518C38.8294 723.731 39.1443 723.101 39.6166 722.628C40.2464 721.999 40.9549 721.684 41.7421 721.684H74.333C75.1202 721.684 75.75 721.999 76.2224 722.628C76.6947 723.101 76.8521 723.731 76.6947 724.518L62.2886 842.601L62.0524 845.199C62.0524 848.347 62.7609 850.867 64.1779 852.756C65.7523 854.488 67.7991 855.354 70.3182 855.354C73.3096 855.354 75.75 854.173 77.6393 851.811C79.6861 849.45 80.9457 846.379 81.418 842.601L96.0603 724.518C96.0603 723.731 96.3752 723.101 97.005 722.628C97.6347 721.999 98.3432 721.684 99.1305 721.684H131.485C133.217 721.684 134.083 722.628 134.083 724.518L119.913 838.822C118.024 853.937 112.12 866.06 102.201 875.192C92.4391 884.323 80.3946 888.889 66.0672 888.889ZM213.409 724.518C213.566 723.731 213.881 723.101 214.354 722.628C214.983 721.999 215.692 721.684 216.479 721.684H248.598C249.385 721.684 250.015 721.999 250.487 722.628C250.959 723.101 251.117 723.731 250.959 724.518L231.358 884.166C231.358 884.953 231.043 885.662 230.413 886.292C229.783 886.764 229.075 887 228.287 887H191.918C190.343 887 189.399 886.213 189.084 884.638L176.331 802.453C176.331 801.98 176.095 801.744 175.622 801.744C175.308 801.587 175.15 801.823 175.15 802.453L165.467 884.166C165.31 884.953 164.916 885.662 164.286 886.292C163.814 886.764 163.184 887 162.397 887H130.279C129.491 887 128.862 886.764 128.389 886.292C127.917 885.662 127.759 884.953 127.917 884.166L147.519 724.518C147.676 723.731 147.991 723.101 148.463 722.628C149.093 721.999 149.802 721.684 150.589 721.684H186.486C188.218 721.684 189.241 722.471 189.556 724.045L202.309 806.704C202.309 807.176 202.467 807.412 202.782 807.412C203.254 807.412 203.569 807.097 203.726 806.467L213.409 724.518ZM248.565 887C247.777 887 247.148 886.764 246.675 886.292C246.203 885.662 246.045 884.953 246.203 884.166L265.805 724.518C265.962 723.731 266.277 723.101 266.749 722.628C267.379 721.999 268.088 721.684 268.875 721.684H301.466C302.253 721.684 302.883 721.999 303.355 722.628C303.827 723.101 303.985 723.731 303.827 724.518L284.226 884.166C284.068 884.953 283.675 885.662 283.045 886.292C282.572 886.764 281.943 887 281.155 887H248.565ZM402.908 752.385C402.751 753.173 402.357 753.881 401.727 754.511C401.255 754.983 400.625 755.219 399.838 755.219H353.786C353.156 755.219 352.684 755.613 352.369 756.4L348.826 786.157C348.826 786.944 349.141 787.338 349.771 787.338H375.041C375.828 787.338 376.458 787.653 376.93 788.283C377.402 788.755 377.56 789.385 377.402 790.172L373.86 818.276C373.86 819.063 373.545 819.771 372.915 820.401C372.285 820.873 371.577 821.11 370.79 821.11H345.756C345.126 821.11 344.654 821.503 344.339 822.29L336.782 884.166C336.624 884.953 336.231 885.662 335.601 886.292C335.129 886.764 334.499 887 333.712 887H301.121C300.334 887 299.704 886.764 299.231 886.292C298.759 885.662 298.602 884.953 298.759 884.166L318.361 724.518C318.518 723.731 318.833 723.101 319.306 722.628C319.935 721.999 320.644 721.684 321.431 721.684H403.853C405.585 721.684 406.451 722.628 406.451 724.518L402.908 752.385ZM397.727 887C396.94 887 396.31 886.764 395.838 886.292C395.366 885.662 395.208 884.953 395.366 884.166L414.968 724.518C415.125 723.731 415.44 723.101 415.912 722.628C416.542 721.999 417.25 721.684 418.038 721.684H450.629C451.416 721.684 452.046 721.999 452.518 722.628C452.99 723.101 453.148 723.731 452.99 724.518L433.388 884.166C433.231 884.953 432.837 885.662 432.208 886.292C431.735 886.764 431.106 887 430.318 887H397.727ZM552.071 752.385C551.914 753.173 551.52 753.881 550.89 754.511C550.418 754.983 549.788 755.219 549.001 755.219H502.949C502.319 755.219 501.847 755.613 501.532 756.4L497.989 786.157C497.989 786.944 498.304 787.338 498.934 787.338H524.204C524.991 787.338 525.621 787.653 526.093 788.283C526.565 788.755 526.723 789.385 526.565 790.172L523.023 818.276C523.023 819.063 522.708 819.771 522.078 820.401C521.448 820.873 520.74 821.11 519.953 821.11H494.919C494.289 821.11 493.817 821.503 493.502 822.29L489.96 852.284C489.645 853.071 489.96 853.464 490.904 853.464H536.957C537.744 853.464 538.374 853.779 538.846 854.409C539.318 854.881 539.476 855.511 539.318 856.298L536.012 884.166C535.854 884.953 535.461 885.662 534.831 886.292C534.201 886.764 533.493 887 532.706 887H450.284C449.496 887 448.867 886.764 448.394 886.292C447.922 885.662 447.764 884.953 447.922 884.166L467.524 724.518C467.681 723.731 467.996 723.101 468.468 722.628C469.098 721.999 469.807 721.684 470.594 721.684H553.016C554.748 721.684 555.614 722.628 555.614 724.518L552.071 752.385ZM550.119 887C549.332 887 548.702 886.764 548.23 886.292C547.757 885.662 547.6 884.953 547.757 884.166L567.359 724.518C567.517 723.731 567.832 723.101 568.304 722.628C568.934 721.999 569.642 721.684 570.429 721.684H614.12C627.66 721.684 638.288 725.226 646.003 732.311C653.717 739.396 657.575 749.079 657.575 761.36C657.575 762.777 657.417 765.06 657.102 768.208L648.128 840.475C646.396 854.488 640.571 865.745 630.652 874.247C620.89 882.749 608.61 887 593.81 887H550.119ZM589.795 852.284C589.48 853.071 589.795 853.464 590.74 853.464L597.116 853.228C600.422 853.071 603.335 851.654 605.854 848.977C608.373 846.143 609.948 842.443 610.578 837.877L618.607 770.806C618.765 770.019 618.843 768.917 618.843 767.5C618.843 763.721 617.899 760.73 616.009 758.526C614.278 756.321 611.916 755.219 608.924 755.219H602.784C602.154 755.219 601.682 755.613 601.367 756.4L589.795 852.284ZM731.065 887C729.175 887 728.231 886.134 728.231 884.402L716.659 724.754C716.659 722.707 717.603 721.684 719.493 721.684H753.028C754.918 721.684 755.862 722.55 755.862 724.282L756.571 801.98C756.571 802.453 756.728 802.689 757.043 802.689C757.515 802.689 757.83 802.453 757.988 801.98L777.826 724.282C778.298 722.55 779.4 721.684 781.132 721.684H807.819C809.551 721.684 810.417 722.55 810.417 724.282L812.306 801.98C812.463 802.453 812.7 802.689 813.014 802.689C813.329 802.689 813.487 802.453 813.487 801.98L832.616 724.282C832.774 722.55 833.718 721.684 835.45 721.684H868.513C870.403 721.684 871.111 722.707 870.639 724.754L821.516 884.402C821.044 886.134 819.942 887 818.21 887H788.925C787.194 887 786.328 886.134 786.328 884.402L784.674 803.633C784.674 803.161 784.438 802.925 783.966 802.925C783.651 802.925 783.415 803.161 783.257 803.633L763.42 884.402C762.947 886.134 761.924 887 760.349 887H731.065ZM863.925 887C863.138 887 862.508 886.764 862.035 886.292C861.563 885.662 861.406 884.953 861.563 884.166L881.165 724.518C881.322 723.731 881.637 723.101 882.11 722.628C882.739 721.999 883.448 721.684 884.235 721.684H916.826C917.613 721.684 918.243 721.999 918.715 722.628C919.188 723.101 919.345 723.731 919.188 724.518L899.586 884.166C899.428 884.953 899.035 885.662 898.405 886.292C897.933 886.764 897.303 887 896.516 887H863.925ZM976.231 887C974.499 887 973.554 886.213 973.397 884.638L965.604 822.054C965.446 821.425 965.052 821.11 964.423 821.11H961.116C960.487 821.11 960.014 821.503 959.699 822.29L952.142 884.166C951.985 884.953 951.591 885.662 950.961 886.292C950.489 886.764 949.859 887 949.072 887H916.481C915.694 887 915.064 886.764 914.592 886.292C914.119 885.662 913.962 884.953 914.119 884.166L933.721 724.518C933.879 723.731 934.193 723.101 934.666 722.628C935.296 721.999 936.004 721.684 936.791 721.684H986.15C998.273 721.684 1007.8 725.541 1014.73 733.256C1021.81 740.971 1025.35 751.283 1025.35 764.194C1025.35 767.972 1025.2 770.885 1024.88 772.932C1023.78 781.749 1021.18 789.7 1017.09 796.785C1013.15 803.712 1008.11 809.301 1001.97 813.552C1001.66 813.71 1001.42 813.946 1001.26 814.261C1001.11 814.418 1001.11 814.654 1001.26 814.969L1012.36 883.694V884.166C1012.36 886.055 1011.5 887 1009.77 887H976.231ZM969.146 755.219C968.516 755.219 968.044 755.613 967.729 756.4L963.714 789.936C963.714 790.723 964.029 791.117 964.659 791.117H971.035C975.759 791.117 979.616 789.227 982.607 785.449C985.599 781.512 987.095 776.159 987.095 769.389C987.095 764.823 986.071 761.36 984.024 758.998C981.978 756.479 979.144 755.219 975.522 755.219H969.146ZM1127.33 752.385C1127.17 753.173 1126.78 753.881 1126.15 754.511C1125.68 754.983 1125.05 755.219 1124.26 755.219H1078.21C1077.58 755.219 1077.1 755.613 1076.79 756.4L1073.25 786.157C1073.25 786.944 1073.56 787.338 1074.19 787.338H1099.46C1100.25 787.338 1100.88 787.653 1101.35 788.283C1101.82 788.755 1101.98 789.385 1101.82 790.172L1098.28 818.276C1098.28 819.063 1097.97 819.771 1097.34 820.401C1096.71 820.873 1096 821.11 1095.21 821.11H1070.18C1069.55 821.11 1069.07 821.503 1068.76 822.29L1065.22 852.284C1064.9 853.071 1065.22 853.464 1066.16 853.464H1112.21C1113 853.464 1113.63 853.779 1114.1 854.409C1114.58 854.881 1114.73 855.511 1114.58 856.298L1111.27 884.166C1111.11 884.953 1110.72 885.662 1110.09 886.292C1109.46 886.764 1108.75 887 1107.96 887H1025.54C1024.75 887 1024.12 886.764 1023.65 886.292C1023.18 885.662 1023.02 884.953 1023.18 884.166L1042.78 724.518C1042.94 723.731 1043.25 723.101 1043.73 722.628C1044.36 721.999 1045.06 721.684 1045.85 721.684H1128.27C1130.01 721.684 1130.87 722.628 1130.87 724.518L1127.33 752.385ZM1295.73 883.458C1296.05 884.087 1296.2 884.638 1296.2 885.111C1296.2 885.583 1295.97 886.055 1295.5 886.528C1295.02 886.843 1294.39 887 1293.61 887H1258.42C1256.84 887 1255.74 886.449 1255.11 885.347L1251.33 879.915C1251.18 879.285 1250.7 879.128 1249.92 879.443C1237.64 886.055 1224.73 889.362 1211.18 889.362C1197.96 889.362 1187.57 886.37 1180.01 880.387C1172.61 874.247 1168.91 865.351 1168.91 853.701C1168.91 852.284 1169.07 849.843 1169.38 846.379C1170.64 836.303 1173.71 827.801 1178.59 820.873C1183.63 813.789 1190.09 807.569 1197.96 802.216C1198.59 801.901 1198.75 801.35 1198.43 800.563C1194.02 793.321 1190.95 787.574 1189.22 783.323C1187.49 778.915 1186.62 774.664 1186.62 770.57C1186.62 769.311 1186.78 767.264 1187.1 764.43C1188.67 751.047 1194.1 740.262 1203.39 732.075C1212.84 723.888 1224.33 719.794 1237.87 719.794C1250.62 719.794 1260.94 723.416 1268.81 730.658C1276.68 737.743 1280.62 747.268 1280.62 759.234C1280.62 770.885 1277.7 780.568 1271.88 788.283C1266.21 795.997 1258.5 803.082 1248.74 809.538C1248.11 810.01 1248.03 810.561 1248.5 811.191C1248.97 812.135 1249.84 813.552 1251.1 815.442L1259.13 827.958C1259.76 828.588 1260.31 828.51 1260.78 827.722C1265.82 821.897 1270.07 816.071 1273.53 810.246C1274.48 808.514 1275.74 808.121 1277.31 809.065L1299.51 823.235C1300.93 824.18 1301.16 825.439 1300.22 827.014C1292.82 838.822 1285.81 848.426 1279.2 855.826C1278.57 856.456 1278.41 857.007 1278.73 857.479C1280.62 860.156 1282.51 862.99 1284.4 865.981C1286.44 868.973 1288.49 872.043 1290.54 875.192L1295.73 883.458ZM1234.57 755.219C1231.57 755.219 1229.13 756.558 1227.24 759.234C1225.51 761.753 1224.65 764.902 1224.65 768.681C1224.65 770.098 1224.96 771.751 1225.59 773.64C1226.22 775.372 1227.48 777.97 1229.37 781.434C1229.84 781.906 1230.39 781.985 1231.02 781.67C1234.49 778.993 1237.16 776.238 1239.05 773.404C1241.1 770.57 1242.12 767.5 1242.12 764.194C1242.12 761.36 1241.41 759.155 1240 757.581C1238.58 756.007 1236.77 755.219 1234.57 755.219ZM1221.1 855.826C1223.94 855.354 1227.4 854.252 1231.5 852.52C1232.28 851.89 1232.44 851.339 1231.97 850.867C1230.08 848.347 1228.9 846.616 1228.42 845.671L1217.8 830.32C1217.48 829.69 1217.01 829.612 1216.38 830.084C1210.87 834.807 1208.11 839.609 1208.11 844.49C1208.11 847.954 1209.14 850.867 1211.18 853.228C1213.39 855.432 1216.7 856.298 1221.1 855.826ZM1399.84 888.889C1386.61 888.889 1376.22 885.268 1368.66 878.026C1361.1 870.783 1357.33 860.864 1357.33 848.269C1357.33 846.537 1357.48 843.939 1357.8 840.475L1366.77 767.972C1368.5 753.173 1374.25 741.443 1384.01 732.784C1393.77 724.124 1405.9 719.794 1420.38 719.794C1433.61 719.794 1444 723.416 1451.56 730.658C1459.27 737.743 1463.13 747.505 1463.13 759.943C1463.13 761.517 1462.97 764.194 1462.66 767.972L1462.42 770.098C1462.26 770.885 1461.87 771.594 1461.24 772.223C1460.77 772.696 1460.14 772.932 1459.35 772.932L1426.52 774.349C1424.79 774.349 1424 773.404 1424.16 771.515L1425.11 765.138C1425.42 761.517 1424.79 758.683 1423.22 756.636C1421.64 754.432 1419.36 753.33 1416.37 753.33C1413.38 753.33 1410.86 754.432 1408.81 756.636C1406.76 758.683 1405.5 761.517 1405.03 765.138L1395.35 843.782C1395.03 847.245 1395.58 850.079 1397 852.284C1398.58 854.33 1400.86 855.354 1403.85 855.354C1406.84 855.354 1409.36 854.33 1411.41 852.284C1413.61 850.079 1414.95 847.245 1415.42 843.782L1416.13 836.933C1416.29 836.146 1416.6 835.516 1417.08 835.043C1417.71 834.414 1418.41 834.099 1419.2 834.099L1451.56 835.516C1453.29 835.516 1454.15 836.46 1454.15 838.35L1453.68 840.475C1451.95 855.118 1446.12 866.847 1436.2 875.664C1426.44 884.481 1414.32 888.889 1399.84 888.889ZM1526.97 887C1525.24 887 1524.37 886.134 1524.37 884.402L1523.9 863.856C1524.06 863.541 1523.98 863.305 1523.67 863.147C1523.35 862.832 1523.04 862.675 1522.72 862.675H1497.92C1496.98 862.675 1496.51 863.069 1496.51 863.856L1491.31 884.402C1490.84 886.134 1489.74 887 1488 887H1455.41C1453.52 887 1452.89 885.977 1453.52 883.93L1506.19 724.282C1506.66 722.55 1507.76 721.684 1509.5 721.684H1546.81C1548.7 721.684 1549.64 722.55 1549.64 724.282L1562.87 883.93V884.638C1562.87 886.213 1562 887 1560.27 887H1526.97ZM1505.48 831.265C1505.48 832.052 1505.72 832.446 1506.19 832.446H1521.54C1522.33 832.446 1522.72 832.052 1522.72 831.265L1521.07 777.419C1521.07 776.789 1520.91 776.474 1520.6 776.474C1520.28 776.474 1519.97 776.789 1519.65 777.419L1505.48 831.265ZM1675.56 840.003C1673.98 855.118 1668.16 866.768 1658.08 874.956C1648.16 882.985 1636.12 887 1621.95 887H1575.66C1574.87 887 1574.24 886.764 1573.77 886.292C1573.3 885.662 1573.14 884.953 1573.3 884.166L1592.9 724.518C1593.06 723.731 1593.37 723.101 1593.85 722.628C1594.48 721.999 1595.18 721.684 1595.97 721.684H1636.36C1650.68 721.684 1661.86 724.833 1669.89 731.13C1678.08 737.428 1682.17 746.875 1682.17 759.47C1682.17 762.934 1682.01 765.611 1681.7 767.5C1679.81 782.615 1673.67 793.714 1663.28 800.799C1662.49 801.272 1662.33 801.744 1662.81 802.216C1671.62 809.459 1676.03 819.535 1676.03 832.446C1676.03 834.02 1675.87 836.539 1675.56 840.003ZM1628.33 755.219C1627.7 755.219 1627.22 755.613 1626.91 756.4L1623.37 786.629C1623.05 787.417 1623.37 787.81 1624.31 787.81H1628.56C1633.44 787.81 1637.22 786.078 1639.9 782.615C1642.73 778.993 1644.15 774.034 1644.15 767.736C1644.15 763.643 1643.13 760.572 1641.08 758.526C1639.19 756.321 1636.36 755.219 1632.58 755.219H1628.33ZM1623.13 853.228C1627.54 853.228 1631.16 851.26 1633.99 847.324C1636.99 843.388 1638.48 837.877 1638.48 830.792C1638.48 826.227 1637.54 822.605 1635.65 819.929C1633.76 817.252 1631.16 815.914 1627.85 815.914H1620.77C1619.98 815.914 1619.59 816.308 1619.59 817.095L1615.34 852.047C1615.02 852.835 1615.34 853.228 1616.28 853.228H1623.13ZM1683.8 887C1683.01 887 1682.38 886.764 1681.91 886.292C1681.44 885.662 1681.28 884.953 1681.44 884.166L1701.04 724.518C1701.2 723.731 1701.51 723.101 1701.98 722.628C1702.61 721.999 1703.32 721.684 1704.11 721.684H1736.7C1737.49 721.684 1738.12 721.999 1738.59 722.628C1739.06 723.101 1739.22 723.731 1739.06 724.518L1723.48 852.284C1723.16 853.071 1723.48 853.464 1724.42 853.464H1771.18C1771.97 853.464 1772.6 853.779 1773.07 854.409C1773.54 854.881 1773.7 855.511 1773.54 856.298L1770 884.166C1770 884.953 1769.68 885.662 1769.06 886.292C1768.43 886.764 1767.72 887 1766.93 887H1683.8ZM1884.27 752.385C1884.11 753.173 1883.72 753.881 1883.09 754.511C1882.62 754.983 1881.99 755.219 1881.2 755.219H1835.15C1834.52 755.219 1834.04 755.613 1833.73 756.4L1830.19 786.157C1830.19 786.944 1830.5 787.338 1831.13 787.338H1856.4C1857.19 787.338 1857.82 787.653 1858.29 788.283C1858.76 788.755 1858.92 789.385 1858.76 790.172L1855.22 818.276C1855.22 819.063 1854.91 819.771 1854.28 820.401C1853.65 820.873 1852.94 821.11 1852.15 821.11H1827.12C1826.49 821.11 1826.01 821.503 1825.7 822.29L1822.16 852.284C1821.84 853.071 1822.16 853.464 1823.1 853.464H1869.15C1869.94 853.464 1870.57 853.779 1871.04 854.409C1871.52 854.881 1871.67 855.511 1871.52 856.298L1868.21 884.166C1868.05 884.953 1867.66 885.662 1867.03 886.292C1866.4 886.764 1865.69 887 1864.9 887H1782.48C1781.69 887 1781.06 886.764 1780.59 886.292C1780.12 885.662 1779.96 884.953 1780.12 884.166L1799.72 724.518C1799.88 723.731 1800.19 723.101 1800.67 722.628C1801.3 721.999 1802 721.684 1802.79 721.684H1885.21C1886.95 721.684 1887.81 722.628 1887.81 724.518L1884.27 752.385Z" fill="black"/>
<defs>
<linearGradient id="paint0_linear_105_2" x1="1674.62" y1="15.1801" x2="1674.62" y2="641.18" gradientUnits="userSpaceOnUse">
<stop offset="0.02" stop-color="#A54F1E"/>
<stop offset="0.05" stop-color="#A75221"/>
<stop offset="0.08" stop-color="#AE5C2D"/>
<stop offset="0.11" stop-color="#B96E3F"/>
<stop offset="0.14" stop-color="#C9875A"/>
<stop offset="0.17" stop-color="#DEA77C"/>
<stop offset="0.2" stop-color="#FDD6AF"/>
<stop offset="0.35" stop-color="#D76E2F"/>
<stop offset="0.44" stop-color="#FC8D31"/>
<stop offset="0.58" stop-color="#80350C"/>
<stop offset="0.8" stop-color="#D67137"/>
<stop offset="0.99" stop-color="#914116"/>
</linearGradient>
<linearGradient id="paint1_linear_105_2" x1="345.58" y1="15.5201" x2="345.58" y2="655.06" gradientUnits="userSpaceOnUse">
<stop offset="0.07" stop-color="#205A9C"/>
<stop offset="0.2" stop-color="#97C6FE"/>
<stop offset="0.21" stop-color="#93C3FC"/>
<stop offset="0.25" stop-color="#69A5EF"/>
<stop offset="0.29" stop-color="#4B8FE5"/>
<stop offset="0.32" stop-color="#3882DF"/>
<stop offset="0.34" stop-color="#327EDD"/>
<stop offset="0.5" stop-color="#239AFF"/>
<stop offset="1" stop-color="#194D83"/>
</linearGradient>
<linearGradient id="paint2_linear_105_2" x1="1302.23" y1="16.68" x2="1302.23" y2="641.05" gradientUnits="userSpaceOnUse">
<stop offset="0.04" stop-color="#ADA6AD"/>
<stop offset="0.2" stop-color="#F0E8F0"/>
<stop offset="0.47" stop-color="#968E96"/>
<stop offset="0.92" stop-color="#847C84"/>
</linearGradient>
<linearGradient id="paint3_linear_105_2" x1="973.04" y1="16.68" x2="973.04" y2="641.05" gradientUnits="userSpaceOnUse">
<stop offset="0.07" stop-color="#205A9C"/>
<stop offset="0.2" stop-color="#97C6FE"/>
<stop offset="0.21" stop-color="#87BAF8"/>
<stop offset="0.23" stop-color="#68A4EE"/>
<stop offset="0.26" stop-color="#5093E6"/>
<stop offset="0.28" stop-color="#3F87E1"/>
<stop offset="0.31" stop-color="#3580DE"/>
<stop offset="0.34" stop-color="#327EDD"/>
<stop offset="0.5" stop-color="#239AFF"/>
<stop offset="0.99" stop-color="#194D83"/>
</linearGradient>
<linearGradient id="paint4_linear_105_2" x1="769.92" y1="20.1099" x2="769.92" y2="663.55" gradientUnits="userSpaceOnUse">
<stop offset="0.01" stop-color="#205A9C"/>
<stop offset="0.51" stop-color="#239AFF"/>
<stop offset="0.93" stop-color="#194D83"/>
</linearGradient>
<linearGradient id="paint5_linear_105_2" x1="1302.23" y1="686.33" x2="1302.23" y2="37.64" gradientUnits="userSpaceOnUse">
<stop offset="0.16" stop-color="#6F696F"/>
<stop offset="1" stop-color="#C1BAC1"/>
</linearGradient>
</defs>
</svg>
