<svg width="1767" height="708" viewBox="0 0 1767 708" fill="none" xmlns="http://www.w3.org/2000/svg">
<path d="M51.5 369L113 49.5L330.5 39L255 395V464.5L302.5 483L343.5 435.5L416.5 56.5L599 49.5L498.5 567.5L407.5 661L250 693L138 661L51.5 595L37.5 501.5L51.5 369Z" fill="white"/>
<path d="M572 533L686.5 56.5H846.5V243L946 56.5L1098 49.5V197L1107.5 232L1186.5 49.5L1299 42.5L1315 62.5L1287 197L1364 103L1486.5 37L1614 42.5L1734 119.5L1628 282.5L1583 239L1497 232L1420.5 316.5L1409 407L1497 482L1619 434.5L1701 542.5V576L1572.5 672.5L1441.5 689.5L1299 596L1254.5 512.5L1249 347.5L1221 342L1098 684H914L924.5 435.5L802.5 684H546L572 533Z" fill="white"/>
<path fill-rule="evenodd" clip-rule="evenodd" d="M1522 47.6739C1476.85 52.2429 1430.52 71.9559 1394 102.133L1383.88 110.5L1389.69 111.225C1392.88 111.624 1404.73 112.883 1416 114.023C1427.27 115.163 1445.73 117.029 1457 118.171C1484.52 120.956 1529.33 121.187 1552.5 118.664C1579.14 115.763 1601.2 111.955 1629.5 105.378C1646.57 101.41 1673.14 94.1279 1674.23 93.1189C1675.19 92.2279 1664.52 84.5459 1652.47 77.4539C1626.26 62.0329 1596.73 51.6439 1570 48.4399C1559.7 47.2069 1531.13 46.7509 1522 47.6739ZM1198.38 63.8739C1197.07 66.8299 1196 69.3819 1196 69.5439C1196 69.7059 1190.1 83.7129 1182.89 100.669C1175.68 117.626 1169.53 132.132 1169.23 132.904C1168.75 134.089 1170.84 134.198 1182.58 133.602C1202.14 132.609 1223.32 129.764 1253.5 124.078C1286.66 117.83 1284.99 118.077 1285.04 119.389C1285.06 120 1287.26 114.65 1289.92 107.5C1292.58 100.35 1297.75 86.6819 1301.42 77.1279C1305.09 67.5729 1307.93 59.5969 1307.74 59.4029C1307.54 59.2099 1283.39 58.9279 1254.07 58.7759L1200.75 58.4999L1198.38 63.8739ZM1680.5 168.686C1660.46 175.628 1617.68 186.001 1593 189.902C1561.54 194.875 1553.13 195.466 1513.5 195.483C1474.39 195.5 1469.87 195.227 1429.5 190.394C1392.63 185.979 1378.14 184.902 1349.82 184.468L1322.15 184.043L1317.71 191.772C1309.41 206.219 1303.17 218.471 1297.23 232C1290.21 247.966 1284.53 262.858 1285.19 263.524C1285.45 263.785 1290.58 263.451 1296.58 262.781C1302.82 262.085 1321.22 261.549 1339.5 261.531C1370.91 261.501 1380.32 262.07 1419 266.341L1429.5 267.5L1434.47 261C1451.39 238.858 1478.41 219.694 1503.12 212.304C1511.81 209.706 1513.75 209.501 1529.5 209.515C1549.33 209.533 1554.01 210.516 1569.5 217.915C1583.05 224.388 1594.07 232.761 1609.31 248.178C1620.89 259.888 1622.38 261.075 1624.86 260.53C1626.51 260.168 1628.37 258.639 1629.51 256.713C1630.55 254.946 1642.24 237.075 1655.48 217C1685.32 171.767 1688.37 167.025 1687.89 166.601C1687.67 166.414 1684.35 167.353 1680.5 168.686ZM1241.5 198.56C1216.98 203.315 1197.9 205.225 1173.5 205.366C1160.85 205.44 1147.72 205.144 1144.33 204.709C1138.45 203.956 1138.13 204.027 1137.43 206.209C1137.03 207.469 1130.88 221.55 1123.75 237.5C1116.63 253.45 1110.2 267.879 1109.46 269.565L1108.13 272.63L1119.81 274.836C1142.28 279.076 1146.93 279.448 1177 279.42C1199.19 279.399 1209.1 278.988 1216.98 277.762C1222.75 276.866 1227.67 276.34 1227.93 276.594C1228.43 277.094 1256.89 199.305 1256.96 197.25C1257.01 195.661 1256.02 195.745 1241.5 198.56ZM993 335.113C948.789 338.626 927.477 343.611 817 376.276C777.718 387.891 756.999 393.344 734.5 397.989C703.174 404.457 662.915 409.353 630.731 410.608C613.776 411.27 612.941 411.397 612.495 413.401C612.237 414.555 609.963 424.725 607.442 436C602.608 457.61 596 488.607 596 489.668C596 491.01 648.123 489.076 667 487.033C721.64 481.118 753.565 473.946 837.5 448.73C852.9 444.103 874.753 437.685 886.062 434.467L906.624 428.616L913.523 415.558C917.317 408.376 922.727 397.716 925.545 391.869L930.668 381.239L931.835 396.869C932.477 405.466 933.009 415.2 933.017 418.5C933.024 421.8 933.364 423.975 933.773 423.334C935.26 420.995 973.768 414.881 999.309 412.928C1018.39 411.469 1051.68 412.226 1068 414.491C1074.33 415.368 1088.73 418.049 1100 420.447C1127.91 426.384 1141.82 428.24 1159.47 428.381L1174.44 428.5L1183.67 403C1188.74 388.975 1194.89 371.862 1197.32 364.97L1201.74 352.44L1192.62 353.305C1180.1 354.492 1151.38 353.388 1134.5 351.071C1126.8 350.014 1110.15 346.897 1097.5 344.144C1055.09 334.916 1026.53 332.448 993 335.113ZM1296.5 337.003C1291.55 337.465 1282.48 338.377 1276.35 339.029L1265.21 340.216L1264.06 347.858C1261.41 365.506 1260.02 383.613 1260.01 400.75C1260 410.788 1260.34 418.992 1260.75 418.983C1261.16 418.973 1265.55 418.302 1270.49 417.492C1294.06 413.63 1309.17 412.607 1341 412.721C1359.08 412.786 1378.6 413.417 1386.81 414.203L1401.11 415.572L1400.46 413.036C1395.01 391.741 1394.03 365.146 1397.98 346C1398.5 343.525 1398.93 341.016 1398.96 340.424C1399.07 337.575 1319.03 334.903 1296.5 337.003ZM344.987 458.183C340.301 467.404 336.943 471.868 329.2 479.172C320.527 487.354 312.361 491.473 299.676 494.064C291.261 495.783 288.78 495.908 281.227 494.993C263.045 492.79 251.412 486.683 244.457 475.69L241.728 471.377L230.114 473.656C176.486 484.179 119.222 481.128 60.0001 464.593C55.3251 463.288 50.8401 462.058 50.0331 461.86C48.9061 461.583 48.3671 463.122 47.7061 468.5C46.4411 478.807 46.5261 508.287 47.8491 517.5C49.3171 527.728 54.2821 549.654 54.7871 548.14C54.9981 547.506 55.5531 547.224 56.0201 547.513C57.9791 548.723 94.6171 556.051 108 557.909C128.942 560.817 152.626 562.276 167 561.545C198.55 559.941 220.791 556.463 260 547C303.731 536.446 322.355 533.696 350.5 533.635C378.061 533.576 398.957 536.498 442.5 546.499C452.95 548.899 465.775 551.576 471 552.447C476.225 553.318 481.419 554.234 482.543 554.482C484.047 554.815 484.881 554.217 485.704 552.217C497.597 523.307 501.593 510.372 508.523 478.348C508.95 476.375 508.467 476.139 502.745 475.524C488.814 474.027 471.146 470.585 446 464.468C406.811 454.935 386.906 452 361.458 452H348.128L344.987 458.183ZM1632.25 472.681C1630.49 473.397 1622.63 475.754 1614.78 477.92C1545.79 496.945 1490.87 501.021 1410.5 493.082C1353.03 487.406 1324.83 486.792 1290 490.458C1282.03 491.297 1274.33 492.08 1272.91 492.197L1270.31 492.41L1273.77 503.455C1280.16 523.882 1289.19 544.304 1299.69 562.057L1304.15 569.615L1310.33 568.865C1333.52 566.048 1369.34 566.98 1414.5 571.577C1451.46 575.338 1494.29 575.955 1521.6 573.118C1564.94 568.617 1604.35 559.744 1655.87 542.884C1667.77 538.993 1677.58 535.729 1677.69 535.632C1677.79 535.534 1675.91 532.54 1673.5 528.977C1671.09 525.415 1661.54 510.998 1652.28 496.94L1635.44 471.38L1632.25 472.681ZM1001 488.068C979.31 489.832 935.167 496.5 933.384 498.282C933.046 498.621 932.582 514.558 932.352 533.699C932.123 552.839 931.821 571.28 931.682 574.677C931.542 578.074 931.769 580.643 932.187 580.385C933.593 579.515 964.395 574.174 977 572.613C1023.72 566.828 1059.54 568.276 1107 577.869L1120.5 580.598L1128.67 558.049C1133.16 545.647 1139.3 528.525 1142.32 520L1147.8 504.5L1137.15 503.221C1131.29 502.518 1121.1 500.814 1114.5 499.434C1079.69 492.158 1073.42 490.998 1061 489.556C1043.8 487.558 1015.81 486.864 1001 488.068ZM863 515.011C854.138 518.035 772.285 541.747 757.954 545.441C706.325 558.751 662.221 564.897 612.473 565.713L579.446 566.254L575.066 586.877C565.039 634.099 563.01 644.343 563.573 644.907C564.736 646.071 615.61 646.183 631.904 645.056C689.247 641.093 743.247 630.888 801.212 613.062C812.054 609.728 821.523 607 822.254 607C823.894 607 824.876 605.013 847.732 555.5C857.887 533.5 866.403 515.163 866.657 514.75C867.223 513.83 866.26 513.898 863 515.011ZM313.338 614.55C295.004 616.552 280.115 619.453 251.958 626.51C206.539 637.894 188.568 640.389 152.661 640.299L128.822 640.239L133.161 642.72C162.982 659.769 196.596 669.84 238 674.13C254.638 675.854 292.572 675.549 309.5 673.555C354.915 668.205 390.468 655.33 420.899 633.212C433.036 624.391 433.754 625.454 412.691 621.073C374.69 613.171 344.271 611.173 313.338 614.55ZM1605.5 632.593C1540.72 650.385 1488.56 654.515 1417 647.52C1409.03 646.74 1398.45 645.841 1393.5 645.522L1384.5 644.942L1390.5 648.114C1420.94 664.206 1464.65 672.983 1500.01 670.104C1528.27 667.803 1558.57 659.446 1585.82 646.435C1598.53 640.369 1615 631.32 1615 630.405C1615 630.182 1614.89 630.027 1614.75 630.061C1614.61 630.094 1610.45 631.234 1605.5 632.593ZM1013.5 650.029C990.112 651.214 965.351 654.823 940.75 660.635C930.304 663.103 930 663.252 930 665.925V668.677L963.163 669.338C981.403 669.702 1017.09 670 1042.47 670H1088.61L1090.89 662.918C1092.14 659.022 1092.97 655.636 1092.73 655.392C1091.79 654.455 1065.95 651.154 1055 650.573C1031.6 649.33 1028.19 649.285 1013.5 650.029ZM778.199 697.744C782.984 697.927 791.084 697.928 796.199 697.746C801.315 697.564 797.4 697.414 787.5 697.413C777.6 697.412 773.415 697.561 778.199 697.744Z" fill="#B92425"/>
<path fill-rule="evenodd" clip-rule="evenodd" d="M113.896 18.3059C108.892 19.6039 103.071 24.0219 100.432 28.5259C97.8539 32.9249 98.0109 32.1749 75.9639 145C70.4289 173.325 63.2459 210 60.0019 226.5C56.7579 243 50.007 277.425 45 303C39.993 328.575 31.6749 370.875 26.5149 397C13.5539 462.619 13.549 462.657 13.549 492.5C13.549 514.332 13.837 519.018 15.824 529.481C24.59 575.636 42.117 608.946 73.209 638.537C124.429 687.285 203.653 712.279 290.5 707.089C364.705 702.655 417.497 681.646 461.385 639.086C490.273 611.071 510.982 576.774 526.043 532C532.054 514.129 538.49 485.368 546.499 440.574C553.505 401.393 558.034 376.525 564.452 342C580.174 257.436 590.668 197.88 603.394 121C617.629 35.0089 617.25 37.6419 616.031 33.1149C614.569 27.6849 610.817 23.4749 605.722 21.5449C601.944 20.1139 591.768 19.9749 508.927 20.2229L416.353 20.4999L412.298 23.1839C407.375 26.4419 404.591 31.8319 402.576 42.0029C401.759 46.1259 396.817 70.1999 391.594 95.4999C386.371 120.8 376.226 170.075 369.049 205C323.931 424.58 322.317 431.711 314.736 444.962C305.677 460.795 290.137 467.89 277.962 461.75C274.546 460.028 272.914 458.327 271 454.5C268.71 449.919 268.509 448.452 268.607 437C268.699 426.353 269.335 421.609 272.901 405C286.12 343.432 289.554 327.215 293.971 305.5C296.656 292.3 300.717 272.95 302.996 262.5C308.122 238.992 316.69 198.305 327 148.5C331.327 127.6 338.086 95.1999 342.019 76.4999C345.953 57.7999 349.181 39.9829 349.192 36.9059C349.222 28.7359 345.908 23.4609 338.349 19.6429C335.536 18.2219 323.515 18.0219 226.102 17.7759C166.099 17.6239 115.606 17.8629 113.896 18.3059ZM1525.5 18.0299C1447.48 23.2869 1376.45 63.2989 1320.51 133.5C1316.56 138.45 1312.07 144.422 1310.52 146.77C1308.97 149.119 1307.55 150.886 1307.36 150.697C1307.17 150.508 1311.56 138.011 1317.11 122.927C1338.72 64.1699 1344.1 48.0519 1343.39 44.1339C1342.15 37.2949 1338.21 32.4119 1331.5 29.3979C1330.4 28.9039 1298.22 28.2349 1260 27.9119C1221.78 27.5879 1189.15 26.9929 1187.5 26.5879C1182.93 25.4669 1177.76 29.3189 1176.86 34.5239C1176.2 38.2869 1160.33 76.7109 1126.89 155.5C1115.5 182.345 1112.04 189.657 1112.02 186.881C1112.01 184.891 1113.58 151.851 1115.51 113.459L1119.01 43.6549L1116.91 39.3129C1115.52 36.4349 1113.41 34.1559 1110.65 32.5509L1106.5 30.1299L1026.38 29.4129L946.26 28.6959L941.564 30.9689C938.801 32.3069 935.871 34.7479 934.447 36.9009C933.115 38.9139 926.233 53.8219 919.153 70.0299C912.073 86.2389 898.293 117.5 888.53 139.5C878.768 161.5 868.728 184.336 866.221 190.247C863.713 196.158 861.493 200.826 861.287 200.621C861.082 200.415 861.826 184.329 862.941 164.874C864.056 145.418 865.432 119.15 865.998 106.5C866.565 93.8499 867.434 74.3839 867.931 63.2409C868.496 50.5729 868.478 41.6929 867.884 39.5409C866.745 35.4169 860.207 29.4909 855.831 28.6159C854.136 28.2769 814.767 27.9999 768.343 27.9999C699.14 27.9999 683.345 28.2469 680.657 29.3699C676.945 30.9209 670.459 38.0009 669.723 41.3059C669.454 42.5129 665.591 57.6749 661.139 74.9999C652.385 109.068 638.997 164.022 628.008 211C624.212 227.225 619.976 245.225 618.594 251C596.003 345.393 570.253 461.637 545.493 581C530.921 651.25 525.856 678.058 526.533 681.347C527.713 687.072 531.758 692 537.397 694.581L542.648 696.985L674.074 697C746.358 697.008 806.748 697.011 808.272 697.007C810.125 697.002 812.531 695.63 815.522 692.873C817.985 690.603 820 688.408 820 687.995C820 687.583 828.595 668.853 839.1 646.373C861.631 598.159 883.441 550.779 894.971 525C899.522 514.825 903.527 506.184 903.872 505.798C904.218 505.412 904.199 512.387 903.83 521.298C902.91 543.562 901.299 593.398 899.894 643.038C898.733 684.055 898.744 684.634 900.771 689.215C902.16 692.356 904.201 694.767 907.088 696.677L911.353 699.5L1006.43 699.766C1072.97 699.953 1102.29 699.708 1104.12 698.949C1105.56 698.354 1108.12 696.434 1109.8 694.683C1112.96 691.398 1111.99 693.966 1154.34 576.898C1161.19 557.979 1172.49 526.3 1179.45 506.5C1194.63 463.363 1229.5 365.113 1230.38 363C1230.73 362.175 1230.74 364.65 1230.4 368.5C1229.01 384.46 1228.39 415.545 1229.17 430.5C1230.83 462.201 1236.16 492.768 1244.68 519.443C1277.05 620.793 1350.63 686.046 1448.5 700.199C1462.86 702.276 1507.82 701.948 1521.5 699.666C1583.78 689.28 1642.36 659.531 1685.52 616.375C1702.07 599.819 1720.88 576.313 1724.5 567.656C1726.36 563.197 1726.43 555.971 1724.65 551.718C1723.1 548.007 1696.77 507.447 1659.88 451.921C1631.05 408.547 1631.86 409.408 1620.86 410.204C1616.19 410.542 1614.01 411.323 1610.24 414.01C1572.64 440.833 1547.12 454.246 1523.5 459.615C1512.65 462.08 1491.13 462.082 1482 459.62C1469.6 456.275 1461.32 451.377 1451.44 441.529C1438.41 428.553 1431.57 414.402 1428.46 394C1421.82 350.478 1438.98 298.273 1470.24 266.908C1492.6 244.469 1520.19 234.783 1544.23 240.932C1563.63 245.893 1580.18 258.883 1603.03 287.099C1615.63 302.659 1618.11 304.551 1625.64 304.398C1634.75 304.212 1635.49 303.394 1660.8 265.443C1696.63 211.701 1741.3 141.81 1745.12 133.5C1747.49 128.34 1747.46 121.604 1745.04 116.27C1741.75 109.029 1711.95 81.6169 1690.93 66.4999C1641.89 31.2339 1583.49 14.1219 1525.5 18.0299ZM1522 47.6739C1502.42 49.6549 1477.96 55.8729 1457.02 64.1919C1410.15 82.8089 1362.92 123.329 1329.03 174C1292.33 228.87 1269.21 295.645 1261.43 369.2C1259.42 388.145 1259.96 434.412 1262.38 451.141C1267.9 489.338 1276.9 518.54 1292.38 548.5C1305.76 574.392 1318.19 591.213 1338.35 610.703C1389.08 659.737 1458.19 680.142 1527 666.406C1561.55 659.509 1599.46 642.381 1632.13 618.905C1651.17 605.222 1677.33 580.585 1690.34 564.078L1693.83 559.656L1689.99 554.078C1685.52 547.578 1652.95 498.062 1632.71 467C1625.01 455.175 1618.6 445.367 1618.47 445.205C1618.35 445.042 1614.7 447.576 1610.37 450.835C1590.35 465.91 1563.04 480.289 1542.86 486.383C1513.72 495.185 1484.33 494.95 1462 485.737C1406.87 462.986 1382.82 398.31 1402.42 325.459C1406.71 309.516 1414.92 290.497 1423.33 277.014C1443.21 245.172 1472.41 221.489 1503.12 212.304C1511.81 209.706 1513.75 209.501 1529.5 209.515C1549.33 209.533 1554.01 210.516 1569.5 217.915C1585.23 225.426 1602.65 239.48 1617.34 256.5C1620.67 260.35 1623.82 263.5 1624.36 263.5C1624.89 263.5 1626.71 261.25 1628.38 258.5C1630.06 255.75 1641.84 237.75 1654.55 218.5C1677.78 183.317 1712.67 129.022 1713.6 126.601C1714.42 124.464 1689.13 102.591 1669.37 88.3469C1640.52 67.5499 1602.69 52.3579 1570 48.4399C1559.7 47.2069 1531.13 46.7509 1522 47.6739ZM540.992 65.8769L537.686 76.7889L534.093 77.3839C532.117 77.7109 527.462 77.9829 523.75 77.9889C520.038 77.9949 517 78.4119 517 78.9169C517 79.4209 517.396 79.9829 517.881 80.1669C518.365 80.3499 521.764 83.3199 525.434 86.7659L532.107 93.0319L528.972 104.101C527.247 110.188 526.015 115.348 526.233 115.566C526.451 115.784 530.347 112.818 534.89 108.974L543.15 101.986L550.412 107.993C554.407 111.297 557.912 114 558.202 114C558.491 114 557.725 109.049 556.499 102.997L554.27 91.9939L562.528 84.7469L570.786 77.4999L560.643 76.9999L550.5 76.4999L547.818 66.1509C546.343 60.4589 544.947 55.6139 544.717 55.3839C544.487 55.1539 542.811 59.8759 540.992 65.8769ZM153.492 63.7259C151.956 68.0019 150.08 72.7379 149.324 74.2499L147.949 76.9999H135.974C129.388 76.9999 124.013 77.3379 124.028 77.7499C124.043 78.1619 128.093 81.3859 133.028 84.9119C137.963 88.4389 142 91.8379 142 92.4659C142 93.0929 140.428 98.2739 138.508 103.978C136.587 109.682 135.148 114.481 135.311 114.644C135.473 114.806 139.96 112.028 145.281 108.47C150.602 104.911 155.166 102 155.424 102C155.681 102 160.034 104.932 165.097 108.515C170.16 112.099 174.451 114.882 174.633 114.7C174.815 114.518 173.622 109.675 171.982 103.937C170.342 98.1989 169 93.1859 169 92.7969C169 92.4079 173.613 88.8069 179.25 84.7949L189.5 77.4999L176.529 76.9999L163.558 76.4999L160.529 66.8329C158.863 61.5169 157.227 56.8929 156.893 56.5589C156.559 56.2249 155.028 59.4499 153.492 63.7259ZM267.497 57.4999C267.137 58.5999 265.404 63.3249 263.645 67.9999L260.447 76.4999L248.224 76.7809C241.501 76.9349 236 77.3939 236 77.8009C236 78.2069 240.05 81.5739 245 85.2809C249.95 88.9889 254 92.4449 254 92.9619C254 93.4779 252.425 98.2519 250.5 103.57C248.575 108.888 247 113.647 247 114.145C247 114.644 251.059 112.323 256.019 108.987C260.98 105.651 265.623 102.698 266.337 102.424C267.052 102.15 271.792 104.867 276.872 108.463C281.952 112.058 286.254 115 286.433 115C286.612 115 285.39 110.339 283.718 104.641C282.046 98.9439 280.938 93.6029 281.257 92.7729C281.575 91.9429 286.261 88.1669 291.668 84.3819L301.5 77.4999L288.457 77.2219L275.414 76.9449L271.782 66.2219C269.146 58.4399 267.972 56.0479 267.497 57.4999ZM1200.51 58.9999C1200.34 59.2749 1197.86 65.1249 1195 71.9999C1160.38 155.1 1111.51 266.677 1089.94 311.907C1083.79 324.802 1083.52 325.185 1082.86 321.95C1082.48 320.1 1082.03 306.753 1081.86 292.29C1081.6 269.732 1081.34 265.93 1080.03 265.541C1076.99 264.639 1060.28 262.073 1050.79 261.048C1036.61 259.518 997.862 259.772 981.5 261.502C945.363 265.325 918.092 271.601 867 287.852L848.5 293.737L839.5 309.1L830.5 324.462L830.219 311.636C829.986 300.976 829.696 298.903 828.503 299.361C819.828 302.689 768.711 316.543 749 320.908C715.526 328.319 662.493 334.98 636.832 334.996L630.164 335L627.991 344.75C626.796 350.113 624.962 357.936 623.917 362.136C621.852 370.428 610.978 419.655 599.98 470.5C596.172 488.1 591.001 511.95 588.488 523.5C585.975 535.05 583.071 548.775 582.036 554C581 559.225 577.394 576.325 574.023 592C565.921 629.665 558.811 665.145 559.272 665.605C559.476 665.809 612.786 666.094 677.739 666.238L795.836 666.5L811.075 634C819.456 616.125 835.497 581.7 846.72 557.5C857.943 533.3 870.882 505.4 875.474 495.5C880.065 485.6 888.619 467.15 894.482 454.5C900.346 441.85 908.58 424.975 912.781 417C916.981 409.025 922.727 397.71 925.549 391.856L930.681 381.211L931.945 398.356C933.17 414.964 933.573 498.685 932.514 516.5C932.252 520.9 931.801 547.225 931.512 575C931.223 602.775 930.7 635.213 930.349 647.085L929.711 668.671L963.019 669.335C981.338 669.701 1017.1 670 1042.48 670H1088.64L1090.43 664.25C1091.41 661.087 1101.22 633.75 1112.22 603.5C1133.85 543.982 1135.92 538.173 1157.64 476C1165.61 453.175 1173.64 430.45 1175.48 425.5C1181 410.694 1196.84 366.5 1202.01 351.5C1208.06 333.935 1229.17 274.725 1239.98 245C1244.48 232.625 1254.67 204.353 1262.63 182.174C1276.68 143.014 1293 98.8949 1303.14 72.6389C1305.87 65.5649 1307.95 59.6139 1307.75 59.4139C1307.18 58.8479 1200.85 58.4379 1200.51 58.9999ZM716.61 71.4149L711.74 81.9999H701.37C695.667 81.9999 691 82.1729 691 82.3849C691 82.5959 694.17 85.8589 698.043 89.6349L705.087 96.4999L700.582 107.25C698.105 113.162 696.303 118 696.577 118C696.852 118 701.138 115.269 706.103 111.931C713.886 106.698 715.361 106.04 716.814 107.157C717.741 107.869 721.104 110.658 724.286 113.356C727.469 116.054 730.233 118.09 730.429 117.88C730.625 117.671 730.162 113.041 729.401 107.592C728.351 100.074 728.296 97.3479 729.173 96.2909C729.809 95.5249 734.192 92.1089 738.914 88.6989L747.5 82.4999L736.5 81.9999L725.5 81.4999L723.489 71.1649L721.479 60.8299L716.61 71.4149ZM970.183 71.7499L964.982 81.9999H956.05C950.629 81.9999 946.851 82.4329 946.438 83.1009C946.058 83.7149 948.481 86.9499 951.927 90.4259L958.096 96.6509L953.524 106.503C951.009 111.921 949.076 116.727 949.228 117.183C949.38 117.639 952.428 116.063 956.002 113.682C959.576 111.301 963.898 108.54 965.606 107.546L968.713 105.739L976.369 112.023C980.581 115.479 984.224 118.11 984.465 117.868C984.707 117.626 984.216 112.792 983.375 107.125C982.534 101.458 981.993 96.7099 982.173 96.5729C988.555 91.7409 998.496 84.7469 999.568 84.3349C1003.43 82.8529 999.965 81.9999 990.071 81.9999H979.142L978.139 76.7499C977.587 73.8629 976.742 69.2499 976.26 66.4999L975.385 61.4999L970.183 71.7499ZM1069.11 71.9669L1064.75 81.9999H1054.15H1043.55L1050.76 89.2559L1057.97 96.5129L1054.01 106.006C1051.84 111.228 1050.05 116.027 1050.03 116.671C1050.01 117.315 1053.94 115.181 1058.75 111.93C1063.56 108.678 1067.95 106.026 1068.5 106.036C1069.05 106.046 1071.08 107.402 1073 109.049C1080.98 115.876 1083.98 118.097 1083.51 116.835C1083.24 116.101 1082.42 111.353 1081.68 106.284L1080.33 97.0679L1083.67 93.8379C1086.41 91.1749 1087 89.8609 1087 86.3589V82.1099L1082.26 81.8049L1077.51 81.4999L1075.93 72.9999C1075.05 68.3249 1074.14 63.9229 1073.91 63.2169C1073.67 62.5109 1071.51 66.4489 1069.11 71.9669ZM449.5 76.5749L445.5 81.0899L436.25 80.4849C427.758 79.9289 427.003 80.0279 427.037 81.6899C427.057 82.6849 429.753 86.1999 433.028 89.4999C436.303 92.7999 438.986 95.9719 438.991 96.5489C438.996 97.1269 437.672 101.836 436.048 107.014C434.425 112.193 433.241 116.575 433.419 116.752C433.596 116.929 437.164 114.808 441.347 112.037C445.531 109.267 449.344 107 449.822 107C450.299 107 453.998 109.911 458.042 113.47C462.085 117.028 465.484 119.841 465.595 119.72C465.706 119.599 464.745 114.55 463.461 108.5L461.125 97.4999L469.09 89.9999C473.47 85.8749 477.043 82.2749 477.029 81.9999C477.016 81.7249 472.503 81.6419 467.002 81.8159C459.265 82.0609 456.983 81.8349 456.926 80.8159C456.885 80.0919 456.098 77.8259 455.176 75.7799L453.5 72.0599L449.5 76.5749ZM814.752 76.7829L811.003 81.9999H799.277H787.55L794.834 89.3329L802.117 96.6649L798.017 106.958C795.762 112.618 794.084 117.418 794.29 117.623C794.495 117.828 798.585 115.26 803.378 111.916L812.093 105.835L816.622 109.667C819.113 111.775 822.496 114.592 824.139 115.927L827.127 118.354L826.583 115.927C826.284 114.592 825.552 109.736 824.956 105.136L823.873 96.7719L829.187 91.9309C832.109 89.2689 834.837 87.0699 835.25 87.0449C835.663 87.0199 836 85.8749 836 84.4999C836 82.0599 835.824 81.9999 828.645 81.9999H821.289L819.895 76.7829L818.5 71.5659L814.752 76.7829ZM200.369 128.323L196.26 139.5L183.88 140L171.5 140.5L180.75 147.48C185.838 151.319 190 154.943 190 155.533C190 156.124 188.455 161.195 186.566 166.804C184.678 172.412 183.44 176.999 183.816 176.998C184.192 176.997 188.55 174.298 193.5 171C198.45 167.702 202.883 165.003 203.351 165.002C203.819 165.001 208.094 167.712 212.851 171.026C218.169 174.731 221.605 176.561 221.774 175.776C221.924 175.074 220.912 170.708 219.524 166.074C218.136 161.439 217.014 156.939 217.031 156.074C217.048 155.208 221.624 151.35 227.2 147.5L237.338 140.5L224.495 140L211.652 139.5L208.318 128.575C206.484 122.567 204.87 117.537 204.731 117.398C204.592 117.259 202.63 122.175 200.369 128.323ZM485.978 133.767L482.456 144.5L472.228 144.785C466.603 144.942 462 145.346 462 145.684C462 146.022 465.39 149.493 469.533 153.399L477.067 160.5L474.033 170.879C472.365 176.588 471 181.692 471 182.222C471 182.752 473.137 181.426 475.75 179.274C478.363 177.123 482.178 174.11 484.229 172.578L487.958 169.795L494.729 175.084C498.453 177.993 502.003 180.745 502.617 181.198C503.301 181.704 502.867 177.746 501.497 170.986L499.261 159.949L507.881 151.923L516.5 143.897L506.01 144.199L495.52 144.5L493.048 133.75C491.688 127.838 490.333 123.008 490.038 123.017C489.742 123.026 487.915 127.863 485.978 133.767ZM1007.75 134.209L1003.12 144.5L992.059 144.783C985.977 144.938 981 145.353 981 145.705C981 146.057 984.326 149.41 988.392 153.157L995.784 159.968L991.376 170.635C988.952 176.501 987.109 181.442 987.281 181.614C987.453 181.786 991.623 179.245 996.547 175.966C1001.47 172.687 1006.09 170.003 1006.8 170.002C1007.52 170.001 1011.25 172.537 1015.08 175.637C1018.92 178.737 1022.33 181.004 1022.66 180.675C1023.16 180.176 1021.79 168.043 1020.53 161.732C1020.28 160.455 1023 157.957 1030.34 152.732L1040.5 145.5L1028.87 145.219L1017.24 144.939L1015.48 135.719C1014.52 130.649 1013.42 125.919 1013.05 125.209C1012.65 124.439 1010.51 128.071 1007.75 134.209ZM755.599 130.5C754.095 133.8 751.94 138.637 750.809 141.25L748.754 146H737.877C731.895 146 727 146.178 727 146.397C727 146.615 730.34 150.032 734.422 153.99L741.844 161.187L737.416 171.754C734.981 177.567 733.186 182.52 733.428 182.761C733.67 183.003 737.957 180.4 742.956 176.976L752.045 170.751L759.607 176.958C763.766 180.371 767.366 182.967 767.607 182.726C767.848 182.485 767.36 177.726 766.523 172.151C765.685 166.575 765 161.857 765 161.667C765 161.476 769.318 158.211 774.597 154.41L784.193 147.5L773.347 147L762.5 146.5L760.417 135.5L758.333 124.5L755.599 130.5ZM131.016 183.226C129.768 186.677 127.877 191.849 126.813 194.721L124.878 199.941L112.375 200.221L99.873 200.5L108.6 207C113.4 210.575 117.702 213.751 118.16 214.057C118.618 214.363 117.225 219.876 115.065 226.307C112.904 232.738 111.408 238 111.74 238C112.071 238 113.053 237.4 113.921 236.667C114.79 235.933 119.149 232.797 123.609 229.697L131.718 224.061L140.97 230.586C146.059 234.174 150.434 236.899 150.692 236.641C150.95 236.383 149.834 231.521 148.211 225.836C146.589 220.151 145.433 215.197 145.642 214.826C145.852 214.456 150.317 211.081 155.565 207.326L165.107 200.5L152.706 200.221L140.305 199.943L137.029 188.721C135.227 182.55 133.648 177.377 133.519 177.226C133.391 177.075 132.264 179.775 131.016 183.226ZM248.366 188.75L244.471 199.5L231.669 200L218.868 200.5L227.684 206.927C232.533 210.461 236.877 213.673 237.337 214.063C237.797 214.454 236.539 219.829 234.541 226.008C232.544 232.187 231.042 237.375 231.205 237.537C231.367 237.699 235.775 234.96 241 231.451C246.225 227.941 250.95 225.057 251.5 225.042C252.05 225.027 256.663 227.921 261.75 231.474C266.837 235.027 271 237.554 271 237.09C271 236.626 269.65 231.86 268 226.5C266.35 221.14 265 216.363 265 215.885C265 215.407 269.387 211.75 274.75 207.758L284.5 200.5L272.013 200L259.525 199.5L256.513 188.76C254.856 182.853 253.221 178.015 252.881 178.01C252.54 178.004 250.509 182.837 248.366 188.75ZM526.471 193.601L522.5 205.5L512.25 205.785C506.612 205.942 502 206.27 502 206.514C502 206.941 506.725 211.371 513.89 217.663L517.28 220.639L514.14 231.664C512.413 237.727 511 243.017 511 243.419C511 243.82 514.487 241.144 518.75 237.472C523.013 233.8 527.038 230.577 527.696 230.311C528.354 230.045 532.08 232.403 535.976 235.55C539.872 238.698 543.219 241.1 543.414 240.887C543.608 240.674 542.934 235.874 541.915 230.219L540.062 219.939L543.781 216.603C545.826 214.768 549.609 211.519 552.186 209.383C554.764 207.248 556.901 205.224 556.936 204.887C556.971 204.55 552.34 204.489 546.645 204.751L536.289 205.228L533.366 193.465L530.442 181.701L526.471 193.601ZM431.298 185C430.774 186.375 429.133 190.875 427.651 195C426.169 199.125 424.628 203.012 424.228 203.638C423.689 204.48 420.954 204.382 413.71 203.261C408.325 202.428 403.624 202.042 403.263 202.403C402.902 202.765 406.126 206.6 410.427 210.926L418.247 218.792L414.696 229.396C412.743 235.228 411.367 240 411.638 240C411.909 240 415.969 237.733 420.66 234.962L429.189 229.925L436.681 237.042C440.802 240.957 444.328 244.005 444.516 243.817C444.704 243.629 444.273 240.331 443.557 236.488C440.581 220.508 439.825 223.138 449.634 215.371L458.313 208.5L453.407 207.838C450.708 207.473 446.123 207.136 443.219 207.088C439.888 207.032 437.754 206.522 437.441 205.706C437.167 204.994 435.888 199.481 434.597 193.456C432.596 184.114 432.11 182.868 431.298 185ZM1053.28 185.626C1052.72 187.207 1050.57 192.212 1048.5 196.75L1044.72 205H1033.36C1022.67 205 1019.94 205.742 1023.42 207.7C1024.2 208.14 1027.77 211.091 1031.36 214.257L1037.87 220.014L1033.41 230.652C1030.96 236.503 1029.15 241.484 1029.39 241.721C1029.62 241.958 1034.21 239.214 1039.58 235.625L1049.34 229.098L1057.67 235.603C1067.26 243.093 1067.02 243.347 1064.44 228.596C1063.49 223.194 1063.25 219.458 1063.82 219.096C1069.41 215.539 1081.94 206.331 1081.96 205.75C1081.98 205.337 1076.91 205 1070.68 205H1059.37L1057.56 195.25C1055.34 183.321 1054.64 181.733 1053.28 185.626ZM797.277 186.626C796.724 188.207 794.573 193.212 792.497 197.75L788.722 206H777.861C771.887 206 767 206.268 767 206.595C767 206.922 770.342 210.31 774.426 214.124L781.852 221.059L777.404 231.674C774.958 237.513 773.079 242.397 773.228 242.527C773.378 242.657 777.951 239.932 783.391 236.47L793.282 230.175L801.141 236.677C810.146 244.127 809.917 244.365 807.573 230C806.811 225.325 806.558 221.05 807.011 220.5C807.464 219.95 811.692 216.8 816.406 213.5C821.12 210.2 824.982 207.163 824.988 206.75C824.995 206.337 820.092 206 814.092 206H803.185L801.461 196.25C799.36 184.359 798.645 182.715 797.277 186.626ZM934.635 195L929.777 206L918.138 206.029L906.5 206.058L914.431 213.353L922.361 220.648L918.176 231.074C915.874 236.808 913.993 241.84 913.996 242.256C913.998 242.671 918.491 240.021 923.981 236.366L933.962 229.72L942.039 235.969C946.481 239.406 950.333 242 950.599 241.735C950.864 241.469 950.358 236.701 949.474 231.139C948.589 225.577 948.101 220.645 948.389 220.18C948.676 219.715 953.215 216.447 958.476 212.917L968.04 206.5L956.27 206L944.5 205.5L942.589 194.75C941.538 188.837 940.412 184 940.086 184C939.76 184 937.307 188.95 934.635 195ZM682.624 195.924C677.216 208.094 677.346 208 665.982 208C662.029 208 660.049 208.43 659.69 209.366C659.388 210.151 661.469 213.006 664.583 216.082C667.562 219.024 670 221.813 670 222.279C670 222.746 667.975 227.868 665.5 233.662C663.025 239.456 661 244.38 661 244.604C661 244.828 665.501 242.014 671.002 238.352C680.027 232.343 681.174 231.835 682.752 233.151C683.713 233.953 687.387 237.055 690.915 240.046L697.33 245.484L696.719 239.992C696.384 236.971 695.801 231.742 695.425 228.371L694.74 222.242L704.506 215.371L714.271 208.5L703.422 208.214C697.167 208.049 692.296 207.479 691.918 206.867C691.557 206.284 690.69 201.687 689.99 196.653C689.29 191.619 688.433 186.95 688.085 186.279C687.737 185.607 685.28 189.947 682.624 195.924ZM184.63 247.071C182.576 252.835 180.547 258.116 180.12 258.806C179.579 259.681 175.657 260.128 167.174 260.281C160.48 260.401 155.026 260.725 155.053 261C155.081 261.275 158.955 264.182 163.664 267.46C168.372 270.738 172.46 274.035 172.749 274.787C173.169 275.884 170.688 284.239 166.21 296.803C165.954 297.52 170.29 295.157 175.844 291.553C181.398 287.949 186.347 285 186.841 285C187.336 285 191.911 287.951 197.007 291.559C207.591 299.049 207.097 299.726 202.652 283.817L200.226 275.134L210.171 268.172L220.116 261.21L214.094 260.511C210.781 260.126 205.272 259.967 201.851 260.156L195.631 260.5L192.488 250C190.759 244.225 189.124 238.845 188.854 238.045C188.584 237.245 186.683 241.306 184.63 247.071ZM725.292 257.041L720.168 268H708.501C702.084 268 696.983 268.384 697.167 268.854C697.35 269.324 700.959 272.725 705.187 276.413L712.874 283.118L709.324 291.309C707.372 295.814 705.145 300.962 704.374 302.75C703.604 304.538 703.204 306 703.487 306C703.77 306 708.226 303.075 713.389 299.5C718.552 295.925 723.216 293 723.753 293C724.289 293 728.201 295.738 732.446 299.085C736.69 302.432 740.398 304.936 740.685 304.649C740.971 304.362 740.512 299.486 739.665 293.814L738.124 283.5L740.812 281.243C742.29 280.002 746.742 276.852 750.705 274.243C754.668 271.634 757.931 269.262 757.955 268.971C757.98 268.68 752.938 268.304 746.75 268.136C740.563 267.967 735.375 267.706 735.222 267.554C735.07 267.402 734.043 262.626 732.941 256.941C731.839 251.255 730.82 246.486 730.676 246.343C730.533 246.2 728.11 251.014 725.292 257.041ZM469.479 258.492C467.315 264.402 465.075 269.418 464.502 269.638C463.929 269.857 459.307 269.673 454.23 269.227C449.154 268.782 445 268.689 445 269.022C445 269.354 446.392 270.948 448.094 272.563C449.795 274.178 452.979 277.628 455.169 280.229L459.151 284.958L455.713 295.479C453.821 301.266 452.627 306 453.057 306C453.488 306 457.488 303.487 461.946 300.416L470.052 294.833L477.749 301.36C481.982 304.951 485.556 307.778 485.691 307.643C485.826 307.507 485.076 302.47 484.025 296.448C482.551 288.007 482.387 285.257 483.307 284.438C483.963 283.854 487.84 280.479 491.923 276.938L499.345 270.5L488.943 270L478.541 269.5L476.436 259.996C475.278 254.77 474.125 249.875 473.873 249.119C473.621 248.364 471.644 252.581 469.479 258.492ZM106.072 306.208C104.796 310.172 102.933 315.324 101.933 317.657L100.114 321.899L90.3069 321.601C74.8449 321.131 74.5769 321.456 84.6149 328.5C89.3179 331.8 93.5439 334.956 94.0079 335.512C94.4899 336.091 93.384 340.736 91.425 346.356C89.541 351.763 88 356.774 88 357.491C88 358.215 92.339 355.948 97.75 352.398C103.113 348.879 107.997 346.186 108.604 346.412C109.21 346.639 113.616 349.621 118.394 353.039C123.172 356.456 127.239 359.083 127.432 358.876C127.625 358.669 126.259 353.55 124.396 347.5C122.533 341.45 121.007 336.473 121.004 336.44C121.002 336.406 125.575 333.256 131.166 329.44L141.331 322.5L129.184 322.219C115.141 321.895 116.662 323.123 112.495 308.75C110.941 303.387 109.382 299 109.031 299C108.681 299 107.349 302.243 106.072 306.208ZM228.498 300.5C228.131 301.6 226.17 306.775 224.141 312L220.451 321.5L208.192 322L195.933 322.5L204.967 329.261C209.935 332.98 214 336.639 214 337.392C214 338.145 212.411 343.151 210.469 348.516C208.527 353.881 207.085 358.418 207.265 358.599C207.445 358.779 210.947 356.669 215.046 353.911C228.329 344.973 226.452 345.088 237.024 352.571C242.093 356.158 246.394 358.939 246.582 358.751C246.771 358.563 245.592 353.968 243.962 348.541C242.333 343.115 241 338.138 241 337.482C241 336.826 243.813 334.345 247.25 331.968C250.688 329.591 254.175 327.03 255 326.277C255.825 325.524 257.4 324.268 258.5 323.486C260.274 322.224 259.127 322.06 248.321 322.032L236.142 322L234.502 316.25C230.17 301.064 229.178 298.462 228.498 300.5ZM407.796 302.541C407.435 303.114 406.027 306.54 404.666 310.155C403.305 313.77 401.497 318.073 400.647 319.716L399.101 322.704L389.511 321.226C384.236 320.412 379.624 320.042 379.263 320.403C378.902 320.765 382.02 324.534 386.193 328.78L393.779 336.5L390.389 346.462C388.525 351.941 387 356.753 387 357.156C387 357.558 390.914 355.471 395.699 352.517L404.397 347.146L412.081 354.073C416.307 357.883 419.984 361 420.251 361C420.518 361 419.914 357.063 418.908 352.25C417.902 347.438 417.079 342.6 417.079 341.5C417.08 340.111 419.742 337.673 425.79 333.52L434.5 327.54L430 326.814C427.525 326.416 422.8 325.732 419.5 325.295L413.5 324.5L411.281 314.5C410.061 309 408.925 303.825 408.758 303C408.573 302.09 408.195 301.91 407.796 302.541ZM508.724 311C508.402 311.825 506.645 317.173 504.819 322.885L501.5 333.269L491.25 332.691C485.613 332.372 481 332.414 481 332.784C481 333.153 484.338 336.841 488.417 340.978L495.834 348.5L492.428 359C490.554 364.775 489.017 369.636 489.011 369.803C488.992 370.341 504.107 359.576 505.171 358.294C505.955 357.35 508.026 358.48 513.85 363.029C518.32 366.52 521.615 368.482 521.776 367.748C521.928 367.058 521.194 362.309 520.145 357.196L518.238 347.9L526.369 340.768C530.841 336.845 534.644 333.284 534.821 332.855C534.998 332.425 530.516 332.17 524.861 332.287L514.581 332.5L512.331 322.5C509.147 308.352 509.419 309.219 508.724 311ZM366.012 381.629C361.294 405.094 356.527 426.385 354.115 434.767C348.474 454.368 341.01 467.839 329.908 478.458C320.617 487.344 312.788 491.386 299.676 494.064C291.262 495.783 288.779 495.908 281.227 494.994C260.323 492.462 248.5 484.978 240.954 469.5C234.235 455.718 232.902 433.643 237.363 410.037C238.762 402.632 239.797 396.464 239.663 396.33C239.529 396.196 233.138 397.159 225.46 398.471C205.178 401.935 189.919 403.225 169 403.242C138.423 403.267 110.838 399.7 81 391.864C72.475 389.625 64.843 387.728 64.039 387.647C62.421 387.484 58.063 407.547 51.581 445C44.663 484.976 44.667 507.473 51.597 536.956C60.058 572.946 78.38 601.655 108 625.335C142.479 652.901 184.184 668.554 238 674.13C254.638 675.854 292.572 675.549 309.5 673.555C367.314 666.744 409.251 647.931 442.583 613.853C477.919 577.726 497.367 536.732 509.406 473C512.986 454.048 521.94 402.606 521.7 402.371C521.59 402.264 514.975 401.692 507 401.101C487.189 399.633 478.281 397.982 443.5 389.333C412.134 381.534 391.771 377.628 376.346 376.454L367.192 375.757L366.012 381.629Z" fill="#0C2F66"/>
</svg>
