<svg width="1499" height="1420" viewBox="0 0 1499 1420" fill="none" xmlns="http://www.w3.org/2000/svg">
<rect width="682" height="682" fill="#0362BC"/>
<path d="M210.217 371.31C205.208 371.291 200.898 370.058 197.288 367.612C193.696 365.166 190.93 361.623 188.989 356.984C187.067 352.344 186.116 346.763 186.135 340.24C186.135 333.737 187.096 328.194 189.018 323.613C190.959 319.031 193.725 315.547 197.317 313.159C200.928 310.752 205.228 309.548 210.217 309.548C215.206 309.548 219.496 310.752 223.087 313.159C226.698 315.566 229.474 319.061 231.415 323.642C233.357 328.204 234.318 333.737 234.298 340.24C234.298 346.782 233.328 352.373 231.386 357.013C229.464 361.652 226.708 365.195 223.116 367.641C219.525 370.087 215.225 371.31 210.217 371.31ZM210.217 360.857C213.633 360.857 216.361 359.138 218.399 355.702C220.438 352.266 221.447 347.112 221.428 340.24C221.428 335.717 220.962 331.951 220.03 328.942C219.117 325.933 217.817 323.671 216.128 322.157C214.458 320.643 212.488 319.886 210.217 319.886C206.819 319.886 204.102 321.584 202.063 324.982C200.025 328.379 198.996 333.465 198.977 340.24C198.977 344.821 199.433 348.646 200.345 351.713C201.277 354.761 202.587 357.052 204.276 358.585C205.965 360.099 207.945 360.857 210.217 360.857ZM265.332 370.815C260.984 370.815 257.111 370.068 253.714 368.573C250.336 367.059 247.666 364.982 245.706 362.342C243.765 359.682 242.765 356.615 242.706 353.14H255.403C255.48 354.596 255.956 355.877 256.829 356.984C257.722 358.071 258.907 358.915 260.382 359.517C261.857 360.119 263.517 360.42 265.361 360.42C267.283 360.42 268.982 360.08 270.457 359.401C271.933 358.721 273.088 357.78 273.922 356.576C274.757 355.372 275.175 353.984 275.175 352.412C275.175 350.82 274.728 349.413 273.835 348.19C272.961 346.947 271.7 345.977 270.05 345.278C268.419 344.579 266.478 344.229 264.226 344.229H258.664V334.969H264.226C266.128 334.969 267.807 334.639 269.263 333.979C270.739 333.319 271.884 332.407 272.699 331.242C273.515 330.058 273.922 328.68 273.922 327.107C273.922 325.612 273.563 324.302 272.845 323.176C272.146 322.031 271.156 321.138 269.875 320.497C268.613 319.857 267.138 319.536 265.449 319.536C263.74 319.536 262.178 319.847 260.76 320.468C259.343 321.07 258.208 321.934 257.354 323.06C256.499 324.186 256.043 325.506 255.985 327.02H243.9C243.959 323.584 244.939 320.555 246.841 317.935C248.744 315.314 251.306 313.266 254.529 311.79C257.771 310.296 261.43 309.548 265.507 309.548C269.622 309.548 273.224 310.296 276.31 311.79C279.397 313.285 281.794 315.304 283.503 317.847C285.23 320.371 286.085 323.205 286.065 326.35C286.085 329.689 285.046 332.475 282.949 334.707C280.872 336.94 278.164 338.357 274.825 338.959V339.425C279.212 339.988 282.551 341.512 284.842 343.996C287.152 346.462 288.298 349.549 288.278 353.256C288.298 356.654 287.317 359.672 285.337 362.312C283.376 364.953 280.668 367.03 277.213 368.544C273.757 370.058 269.797 370.815 265.332 370.815ZM320.229 370.815C317.162 370.796 314.202 370.281 311.348 369.272C308.514 368.263 305.971 366.622 303.719 364.351C301.467 362.08 299.681 359.071 298.361 355.324C297.06 351.577 296.41 346.976 296.41 341.521C296.429 336.513 297.002 332.038 298.128 328.097C299.273 324.137 300.904 320.779 303.02 318.022C305.155 315.265 307.708 313.169 310.678 311.732C313.648 310.276 316.978 309.548 320.666 309.548C324.646 309.548 328.16 310.325 331.207 311.878C334.255 313.411 336.701 315.498 338.545 318.138C340.409 320.779 341.535 323.739 341.923 327.02H329.489C329.004 324.943 327.985 323.312 326.432 322.128C324.879 320.944 322.957 320.352 320.666 320.352C316.784 320.352 313.833 322.04 311.814 325.418C309.814 328.796 308.795 333.387 308.756 339.192H309.164C310.057 337.425 311.261 335.921 312.775 334.678C314.308 333.416 316.046 332.455 317.987 331.795C319.948 331.116 322.015 330.776 324.19 330.776C327.723 330.776 330.868 331.611 333.624 333.281C336.381 334.931 338.555 337.202 340.147 340.094C341.739 342.987 342.535 346.297 342.535 350.024C342.535 354.062 341.593 357.653 339.71 360.798C337.847 363.943 335.236 366.409 331.877 368.195C328.538 369.961 324.656 370.835 320.229 370.815ZM320.171 360.915C322.112 360.915 323.85 360.449 325.384 359.517C326.917 358.585 328.121 357.323 328.994 355.732C329.868 354.14 330.305 352.354 330.305 350.374C330.305 348.393 329.868 346.617 328.994 345.045C328.14 343.472 326.956 342.22 325.442 341.288C323.928 340.357 322.2 339.891 320.259 339.891C318.803 339.891 317.453 340.162 316.211 340.706C314.988 341.25 313.911 342.007 312.979 342.977C312.066 343.948 311.348 345.074 310.824 346.355C310.3 347.617 310.038 348.966 310.038 350.403C310.038 352.325 310.474 354.081 311.348 355.673C312.241 357.265 313.445 358.537 314.959 359.488C316.492 360.439 318.23 360.915 320.171 360.915ZM351.474 370V360.915L372.702 341.259C374.508 339.512 376.022 337.94 377.245 336.542C378.487 335.144 379.429 333.776 380.07 332.436C380.71 331.077 381.031 329.612 381.031 328.039C381.031 326.292 380.633 324.787 379.837 323.526C379.041 322.244 377.954 321.264 376.575 320.585C375.197 319.886 373.634 319.536 371.887 319.536C370.062 319.536 368.47 319.905 367.112 320.643C365.753 321.38 364.704 322.438 363.967 323.817C363.229 325.195 362.86 326.835 362.86 328.738H350.892C350.892 324.836 351.775 321.448 353.542 318.575C355.308 315.702 357.784 313.479 360.967 311.907C364.151 310.335 367.82 309.548 371.974 309.548C376.245 309.548 379.963 310.305 383.127 311.82C386.311 313.314 388.786 315.392 390.553 318.051C392.319 320.711 393.202 323.759 393.202 327.195C393.202 329.446 392.756 331.669 391.863 333.863C390.989 336.057 389.427 338.493 387.175 341.172C384.923 343.831 381.749 347.025 377.653 350.752L368.946 359.284V359.692H393.989V370H351.474ZM403.474 370V310.364H427.352C431.739 310.364 435.399 311.014 438.33 312.315C441.261 313.615 443.465 315.421 444.94 317.731C446.416 320.022 447.153 322.662 447.153 325.651C447.153 327.981 446.687 330.029 445.756 331.795C444.824 333.543 443.542 334.979 441.912 336.105C440.3 337.212 438.456 337.998 436.379 338.464V339.046C438.65 339.143 440.776 339.784 442.756 340.968C444.756 342.152 446.377 343.812 447.619 345.947C448.862 348.063 449.483 350.587 449.483 353.518C449.483 356.683 448.697 359.507 447.124 361.992C445.571 364.458 443.271 366.409 440.223 367.845C437.175 369.282 433.419 370 428.954 370H403.474ZM416.083 359.692H426.362C429.876 359.692 432.438 359.022 434.05 357.683C435.661 356.324 436.466 354.518 436.466 352.266C436.466 350.616 436.068 349.16 435.273 347.898C434.477 346.637 433.341 345.647 431.866 344.928C430.41 344.21 428.672 343.851 426.653 343.851H416.083V359.692ZM416.083 335.319H425.43C427.158 335.319 428.692 335.018 430.031 334.416C431.39 333.795 432.458 332.921 433.234 331.795C434.03 330.67 434.428 329.32 434.428 327.748C434.428 325.593 433.661 323.856 432.128 322.536C430.613 321.215 428.459 320.555 425.663 320.555H416.083V335.319ZM510.306 331.242H497.551C497.319 329.592 496.843 328.126 496.125 326.845C495.406 325.545 494.484 324.438 493.358 323.526C492.232 322.613 490.932 321.914 489.456 321.429C488 320.944 486.418 320.701 484.71 320.701C481.623 320.701 478.935 321.468 476.644 323.001C474.353 324.516 472.577 326.729 471.315 329.641C470.053 332.533 469.422 336.047 469.422 340.182C469.422 344.433 470.053 348.005 471.315 350.898C472.596 353.79 474.382 355.974 476.673 357.45C478.964 358.925 481.614 359.663 484.623 359.663C486.311 359.663 487.874 359.439 489.311 358.993C490.767 358.546 492.058 357.896 493.184 357.042C494.31 356.168 495.241 355.11 495.979 353.868C496.736 352.625 497.26 351.208 497.551 349.616L510.306 349.675C509.976 352.412 509.151 355.052 507.831 357.595C506.53 360.119 504.773 362.38 502.56 364.38C500.366 366.36 497.746 367.933 494.698 369.097C491.669 370.243 488.243 370.815 484.419 370.815C479.1 370.815 474.343 369.612 470.15 367.205C465.976 364.797 462.676 361.313 460.25 356.751C457.842 352.189 456.639 346.666 456.639 340.182C456.639 333.679 457.862 328.146 460.308 323.584C462.754 319.022 466.074 315.547 470.267 313.159C474.46 310.752 479.177 309.548 484.419 309.548C487.874 309.548 491.077 310.034 494.028 311.004C496.998 311.975 499.629 313.392 501.919 315.256C504.21 317.1 506.074 319.362 507.51 322.04C508.966 324.719 509.898 327.787 510.306 331.242Z" fill="white"/>
<rect x="817" width="682" height="682" fill="#B9BDBD"/>
<rect y="738" width="682" height="682" fill="#E36417"/>
<path d="M188.183 1108V1048.36H228.368V1058.76H200.792V1072.97H226.3V1083.37H200.792V1097.6H228.484V1108H188.183ZM260.086 1108.82C255.738 1108.82 251.865 1108.07 248.468 1106.57C245.09 1105.06 242.42 1102.98 240.46 1100.34C238.518 1097.68 237.519 1094.61 237.46 1091.14H250.156C250.234 1092.6 250.71 1093.88 251.583 1094.98C252.476 1096.07 253.66 1096.92 255.136 1097.52C256.611 1098.12 258.271 1098.42 260.115 1098.42C262.037 1098.42 263.736 1098.08 265.211 1097.4C266.686 1096.72 267.842 1095.78 268.676 1094.58C269.511 1093.37 269.928 1091.98 269.928 1090.41C269.928 1088.82 269.482 1087.41 268.589 1086.19C267.715 1084.95 266.454 1083.98 264.803 1083.28C263.173 1082.58 261.231 1082.23 258.98 1082.23H253.418V1072.97H258.98C260.882 1072.97 262.561 1072.64 264.017 1071.98C265.493 1071.32 266.638 1070.41 267.453 1069.24C268.269 1068.06 268.676 1066.68 268.676 1065.11C268.676 1063.61 268.317 1062.3 267.599 1061.18C266.9 1060.03 265.91 1059.14 264.629 1058.5C263.367 1057.86 261.892 1057.54 260.203 1057.54C258.494 1057.54 256.932 1057.85 255.514 1058.47C254.097 1059.07 252.962 1059.93 252.107 1061.06C251.253 1062.19 250.797 1063.51 250.739 1065.02H238.654C238.713 1061.58 239.693 1058.56 241.595 1055.93C243.498 1053.31 246.06 1051.27 249.283 1049.79C252.525 1048.3 256.184 1047.55 260.261 1047.55C264.376 1047.55 267.977 1048.3 271.064 1049.79C274.151 1051.29 276.548 1053.3 278.257 1055.85C279.984 1058.37 280.838 1061.21 280.819 1064.35C280.838 1067.69 279.8 1070.47 277.703 1072.71C275.626 1074.94 272.918 1076.36 269.579 1076.96V1077.42C273.966 1077.99 277.305 1079.51 279.596 1082C281.906 1084.46 283.052 1087.55 283.032 1091.26C283.052 1094.65 282.071 1097.67 280.091 1100.31C278.13 1102.95 275.422 1105.03 271.967 1106.54C268.511 1108.06 264.551 1108.82 260.086 1108.82ZM314.983 1108.82C311.916 1108.8 308.956 1108.28 306.102 1107.27C303.268 1106.26 300.725 1104.62 298.473 1102.35C296.221 1100.08 294.435 1097.07 293.115 1093.32C291.814 1089.58 291.164 1084.98 291.164 1079.52C291.183 1074.51 291.756 1070.04 292.882 1066.1C294.027 1062.14 295.658 1058.78 297.774 1056.02C299.909 1053.27 302.462 1051.17 305.432 1049.73C308.402 1048.28 311.732 1047.55 315.42 1047.55C319.4 1047.55 322.913 1048.32 325.961 1049.88C329.009 1051.41 331.455 1053.5 333.299 1056.14C335.163 1058.78 336.289 1061.74 336.677 1065.02H324.243C323.758 1062.94 322.739 1061.31 321.186 1060.13C319.633 1058.94 317.711 1058.35 315.42 1058.35C311.538 1058.35 308.587 1060.04 306.568 1063.42C304.568 1066.8 303.549 1071.39 303.51 1077.19H303.918C304.811 1075.43 306.015 1073.92 307.529 1072.68C309.062 1071.42 310.8 1070.46 312.741 1069.8C314.702 1069.12 316.769 1068.78 318.944 1068.78C322.477 1068.78 325.622 1069.61 328.378 1071.28C331.135 1072.93 333.309 1075.2 334.901 1078.09C336.493 1080.99 337.289 1084.3 337.289 1088.02C337.289 1092.06 336.347 1095.65 334.464 1098.8C332.6 1101.94 329.989 1104.41 326.631 1106.19C323.292 1107.96 319.409 1108.83 314.983 1108.82ZM314.925 1098.91C316.866 1098.91 318.604 1098.45 320.137 1097.52C321.671 1096.59 322.875 1095.32 323.748 1093.73C324.622 1092.14 325.059 1090.35 325.059 1088.37C325.059 1086.39 324.622 1084.62 323.748 1083.04C322.894 1081.47 321.71 1080.22 320.196 1079.29C318.681 1078.36 316.954 1077.89 315.012 1077.89C313.556 1077.89 312.207 1078.16 310.965 1078.71C309.742 1079.25 308.664 1080.01 307.733 1080.98C306.82 1081.95 306.102 1083.07 305.578 1084.36C305.054 1085.62 304.792 1086.97 304.792 1088.4C304.792 1090.32 305.228 1092.08 306.102 1093.67C306.995 1095.27 308.199 1096.54 309.713 1097.49C311.246 1098.44 312.984 1098.91 314.925 1098.91ZM345.326 1097.52V1087.59L370.223 1048.36H378.784V1062.11H373.717L358.022 1086.95V1087.41H393.402V1097.52H345.326ZM373.95 1108V1094.49L374.183 1090.09V1048.36H386.005V1108H373.95ZM426.947 1048.36V1108H414.338V1060.33H413.989L400.332 1068.89V1057.71L415.096 1048.36H426.947ZM443.48 1108L468.202 1059.08V1058.67H439.403V1048.36H481.247V1058.82L456.496 1108H443.48Z" fill="white"/>
<path d="M1011.18 370V310.364H1035.06C1039.45 310.364 1043.11 311.014 1046.04 312.315C1048.97 313.615 1051.17 315.421 1052.65 317.731C1054.12 320.022 1054.86 322.662 1054.86 325.651C1054.86 327.981 1054.4 330.029 1053.46 331.795C1052.53 333.543 1051.25 334.979 1049.62 336.105C1048.01 337.212 1046.17 337.998 1044.09 338.464V339.046C1046.36 339.143 1048.49 339.784 1050.47 340.968C1052.46 342.152 1054.09 343.812 1055.33 345.947C1056.57 348.063 1057.19 350.587 1057.19 353.518C1057.19 356.683 1056.41 359.507 1054.83 361.992C1053.28 364.458 1050.98 366.409 1047.93 367.845C1044.88 369.282 1041.13 370 1036.66 370H1011.18ZM1023.79 359.692H1034.07C1037.58 359.692 1040.15 359.022 1041.76 357.683C1043.37 356.324 1044.18 354.518 1044.18 352.266C1044.18 350.616 1043.78 349.16 1042.98 347.898C1042.19 346.637 1041.05 345.647 1039.57 344.928C1038.12 344.21 1036.38 343.851 1034.36 343.851H1023.79V359.692ZM1023.79 335.319H1033.14C1034.87 335.319 1036.4 335.018 1037.74 334.416C1039.1 333.795 1040.17 332.921 1040.94 331.795C1041.74 330.67 1042.14 329.32 1042.14 327.748C1042.14 325.593 1041.37 323.856 1039.84 322.536C1038.32 321.215 1036.17 320.555 1033.37 320.555H1023.79V335.319ZM1086.62 309.548C1089.69 309.548 1092.64 310.063 1095.48 311.092C1098.33 312.12 1100.87 313.761 1103.11 316.013C1105.36 318.265 1107.13 321.254 1108.43 324.982C1109.75 328.689 1110.42 333.242 1110.44 338.638C1110.44 343.705 1109.87 348.228 1108.73 352.208C1107.6 356.168 1105.98 359.536 1103.86 362.312C1101.75 365.089 1099.19 367.205 1096.2 368.661C1093.21 370.097 1089.88 370.815 1086.19 370.815C1082.21 370.815 1078.69 370.049 1075.65 368.515C1072.6 366.962 1070.14 364.856 1068.28 362.196C1066.43 359.517 1065.32 356.508 1064.93 353.169H1077.36C1077.85 355.343 1078.87 357.032 1080.42 358.236C1081.97 359.42 1083.9 360.012 1086.19 360.012C1090.07 360.012 1093.02 358.323 1095.04 354.945C1097.06 351.548 1098.08 346.899 1098.1 340.997H1097.69C1096.8 342.744 1095.59 344.249 1094.08 345.511C1092.56 346.753 1090.83 347.714 1088.87 348.393C1086.93 349.073 1084.86 349.413 1082.66 349.413C1079.15 349.413 1076.01 348.588 1073.26 346.938C1070.5 345.287 1068.33 343.016 1066.74 340.124C1065.14 337.231 1064.35 333.931 1064.35 330.223C1064.33 326.224 1065.25 322.662 1067.11 319.536C1068.98 316.411 1071.58 313.965 1074.92 312.198C1078.28 310.412 1082.18 309.529 1086.62 309.548ZM1086.71 319.449C1084.75 319.449 1083 319.915 1081.47 320.847C1079.96 321.778 1078.75 323.031 1077.86 324.603C1076.99 326.175 1076.56 327.932 1076.58 329.874C1076.58 331.834 1077.01 333.601 1077.86 335.173C1078.73 336.726 1079.92 337.969 1081.41 338.901C1082.93 339.813 1084.65 340.269 1086.59 340.269C1088.05 340.269 1089.4 339.997 1090.64 339.454C1091.89 338.91 1092.96 338.163 1093.87 337.212C1094.81 336.241 1095.53 335.125 1096.06 333.863C1096.58 332.601 1096.84 331.262 1096.84 329.844C1096.83 327.961 1096.38 326.234 1095.51 324.661C1094.63 323.089 1093.43 321.827 1091.89 320.876C1090.36 319.924 1088.63 319.449 1086.71 319.449ZM1119.53 370V310.364H1143.41C1147.79 310.364 1151.45 311.014 1154.38 312.315C1157.32 313.615 1159.52 315.421 1160.99 317.731C1162.47 320.022 1163.21 322.662 1163.21 325.651C1163.21 327.981 1162.74 330.029 1161.81 331.795C1160.88 333.543 1159.6 334.979 1157.97 336.105C1156.36 337.212 1154.51 337.998 1152.43 338.464V339.046C1154.71 339.143 1156.83 339.784 1158.81 340.968C1160.81 342.152 1162.43 343.812 1163.67 345.947C1164.92 348.063 1165.54 350.587 1165.54 353.518C1165.54 356.683 1164.75 359.507 1163.18 361.992C1161.63 364.458 1159.33 366.409 1156.28 367.845C1153.23 369.282 1149.47 370 1145.01 370H1119.53ZM1132.14 359.692H1142.42C1145.93 359.692 1148.49 359.022 1150.1 357.683C1151.72 356.324 1152.52 354.518 1152.52 352.266C1152.52 350.616 1152.12 349.16 1151.33 347.898C1150.53 346.637 1149.4 345.647 1147.92 344.928C1146.46 344.21 1144.73 343.851 1142.71 343.851H1132.14V359.692ZM1132.14 335.319H1141.48C1143.21 335.319 1144.75 335.018 1146.09 334.416C1147.44 333.795 1148.51 332.921 1149.29 331.795C1150.08 330.67 1150.48 329.32 1150.48 327.748C1150.48 325.593 1149.72 323.856 1148.18 322.536C1146.67 321.215 1144.51 320.555 1141.72 320.555H1132.14V335.319ZM1194.88 370H1173.74V310.364H1195.06C1201.06 310.364 1206.22 311.558 1210.55 313.945C1214.88 316.314 1218.21 319.721 1220.54 324.166C1222.89 328.612 1224.06 333.931 1224.06 340.124C1224.06 346.336 1222.89 351.674 1220.54 356.139C1218.21 360.604 1214.86 364.031 1210.49 366.418C1206.14 368.806 1200.94 370 1194.88 370ZM1186.35 359.197H1194.36C1198.09 359.197 1201.22 358.537 1203.76 357.217C1206.33 355.877 1208.25 353.81 1209.53 351.014C1210.83 348.199 1211.48 344.569 1211.48 340.124C1211.48 335.717 1210.83 332.116 1209.53 329.32C1208.25 326.525 1206.34 324.467 1203.79 323.147C1201.25 321.827 1198.11 321.167 1194.39 321.167H1186.35V359.197ZM1233.4 370V310.364H1257.28C1261.67 310.364 1265.32 311.014 1268.26 312.315C1271.19 313.615 1273.39 315.421 1274.87 317.731C1276.34 320.022 1277.08 322.662 1277.08 325.651C1277.08 327.981 1276.61 330.029 1275.68 331.795C1274.75 333.543 1273.47 334.979 1271.84 336.105C1270.23 337.212 1268.38 337.998 1266.3 338.464V339.046C1268.58 339.143 1270.7 339.784 1272.68 340.968C1274.68 342.152 1276.3 343.812 1277.54 345.947C1278.79 348.063 1279.41 350.587 1279.41 353.518C1279.41 356.683 1278.62 359.507 1277.05 361.992C1275.5 364.458 1273.2 366.409 1270.15 367.845C1267.1 369.282 1263.34 370 1258.88 370H1233.4ZM1246.01 359.692H1256.29C1259.8 359.692 1262.36 359.022 1263.98 357.683C1265.59 356.324 1266.39 354.518 1266.39 352.266C1266.39 350.616 1265.99 349.16 1265.2 347.898C1264.4 346.637 1263.27 345.647 1261.79 344.928C1260.34 344.21 1258.6 343.851 1256.58 343.851H1246.01V359.692ZM1246.01 335.319H1255.36C1257.08 335.319 1258.62 335.018 1259.96 334.416C1261.32 333.795 1262.38 332.921 1263.16 331.795C1263.96 330.67 1264.35 329.32 1264.35 327.748C1264.35 325.593 1263.59 323.856 1262.05 322.536C1260.54 321.215 1258.38 320.555 1255.59 320.555H1246.01V335.319ZM1308.75 370H1287.61V310.364H1308.93C1314.93 310.364 1320.09 311.558 1324.42 313.945C1328.75 316.314 1332.08 319.721 1334.41 324.166C1336.76 328.612 1337.93 333.931 1337.93 340.124C1337.93 346.336 1336.76 351.674 1334.41 356.139C1332.08 360.604 1328.73 364.031 1324.36 366.418C1320.01 368.806 1314.81 370 1308.75 370ZM1300.22 359.197H1308.23C1311.96 359.197 1315.09 358.537 1317.63 357.217C1320.2 355.877 1322.12 353.81 1323.4 351.014C1324.7 348.199 1325.35 344.569 1325.35 340.124C1325.35 335.717 1324.7 332.116 1323.4 329.32C1322.12 326.525 1320.21 324.467 1317.66 323.147C1315.12 321.827 1311.99 321.167 1308.26 321.167H1300.22V359.197Z" fill="white"/>
</svg>
