<svg version="1.1" id="Layer_1" xmlns="http://www.w3.org/2000/svg" xmlns:xlink="http://www.w3.org/1999/xlink" x="0px" y="0px"
	 width="100%" viewBox="0 0 1984 2168" enable-background="new 0 0 1984 2168" xml:space="preserve">
<path fill="#FEFEFD" opacity="1.000000" stroke="none" 
	d="
M1986.000000,738.000000 
	C1986.000000,1216.000000 1986.000000,1693.000000 1986.000000,2170.000000 
	C1324.666626,2170.000000 663.333313,2170.000000 2.000000,2170.000000 
	C2.000000,1447.333374 2.000000,724.666687 2.000000,2.000000 
	C663.333313,2.000000 1324.666626,2.000000 1986.000000,2.000000 
	C1986.000000,247.000000 1986.000000,492.000000 1986.000000,738.000000 
M537.778687,193.948776 
	C541.402039,197.384964 545.097473,200.748718 548.637024,204.269196 
	C569.893738,225.411713 591.376709,246.337494 612.185120,267.913361 
	C618.288269,274.241547 623.567261,270.397095 629.462036,269.447693 
	C635.093262,268.540680 636.785461,264.795044 637.684143,259.787598 
	C643.794556,225.739334 650.035461,191.714401 656.314575,157.696777 
	C656.529236,156.533875 657.594238,155.527939 659.401794,152.610733 
	C663.267944,163.603592 666.849487,172.982666 669.872681,182.538422 
	C678.105164,208.560440 686.074768,234.665573 694.225220,260.713745 
	C695.270935,264.055695 696.771423,267.255371 698.237427,270.966888 
	C710.258972,267.294006 721.278320,264.189545 731.979126,259.597015 
	C712.008606,196.876556 692.511597,135.149658 672.196533,72.966225 
	C663.293213,75.596245 655.746216,78.117928 648.042969,79.999847 
	C642.781067,81.285324 640.676941,83.990845 639.652771,89.411400 
	C632.608643,126.690643 625.150818,163.891937 617.768799,201.106918 
	C616.391663,208.049210 614.755005,214.940002 612.896118,223.413681 
	C603.490845,214.158768 595.536072,206.182495 587.420532,198.373276 
	C563.174805,175.042709 538.873047,151.770386 514.572021,128.497345 
	C511.966095,126.001610 509.583923,122.926552 505.162720,124.380432 
	C496.700104,127.163330 488.211761,129.867950 478.592590,132.973557 
	C497.811310,196.724258 516.756042,259.566132 535.920654,323.137451 
	C548.179199,319.449371 559.119507,316.157867 570.448853,312.749329 
	C569.563354,309.479095 569.106934,307.577820 568.534424,305.712189 
	C562.772766,286.937622 556.939941,268.184753 551.231750,249.394028 
	C545.724365,231.264465 540.340149,213.097519 535.739075,194.233505 
	C536.001099,193.977051 536.263184,193.720581 537.778687,193.948776 
M1531.254028,1227.740234 
	C1534.574219,1227.909058 1537.895630,1228.246216 1541.214233,1228.219849 
	C1568.342651,1228.003540 1594.904663,1223.509399 1621.041748,1216.689941 
	C1680.227417,1201.247559 1732.059082,1172.430298 1776.363892,1130.170532 
	C1818.939575,1089.560059 1849.488403,1041.514160 1866.122559,984.899475 
	C1878.632446,942.321899 1882.244507,898.810547 1880.821655,854.557983 
	C1878.841675,792.977905 1878.574219,731.419495 1885.358032,669.987732 
	C1889.641357,631.200317 1895.944946,592.890564 1906.355835,555.268311 
	C1907.406738,551.470581 1908.205688,547.382080 1907.922241,543.516541 
	C1907.743408,541.080383 1905.331055,538.808105 1902.198364,535.790649 
	C1895.582886,536.243103 1888.830322,535.996338 1882.374512,537.262878 
	C1843.598267,544.870544 1806.782471,558.658386 1770.628540,574.163208 
	C1701.953491,603.614990 1637.621460,640.435242 1580.886475,689.493713 
	C1534.641479,729.481384 1497.281616,776.284485 1473.943604,833.384521 
	C1444.130737,906.326355 1438.410034,981.689087 1450.806396,1059.030518 
	C1458.086548,1104.451294 1472.861328,1147.465088 1490.901611,1189.511719 
	C1493.519775,1195.613892 1496.685425,1201.533936 1500.123901,1207.220093 
	C1506.853638,1218.349121 1516.482666,1225.473389 1531.254028,1227.740234 
M956.893982,1197.985474 
	C957.657104,1198.008667 958.420166,1198.031738 959.343079,1199.681396 
	C953.809753,1240.832520 956.399231,1281.391357 967.863953,1321.376099 
	C1006.395630,1455.760132 1143.248657,1533.765381 1278.090454,1497.459839 
	C1334.208618,1482.350220 1378.004883,1448.462769 1414.022339,1403.749634 
	C1416.065674,1401.212891 1417.843872,1398.462524 1420.206055,1395.169312 
	C1397.752686,1377.627808 1375.831055,1360.501709 1354.841064,1344.103516 
	C1344.377197,1354.068726 1335.150024,1363.215332 1325.541382,1371.942017 
	C1289.791260,1404.410767 1248.561035,1423.438354 1199.400269,1420.066162 
	C1138.485596,1415.887695 1093.817261,1385.756470 1066.354370,1331.468628 
	C1048.302734,1295.784668 1043.829956,1257.311646 1047.292358,1217.637207 
	C1050.308716,1183.072144 1060.426636,1151.100830 1079.951538,1122.316406 
	C1120.555054,1062.456787 1193.377319,1035.804321 1260.545166,1056.472656 
	C1295.856812,1067.338501 1325.084106,1087.712280 1349.427368,1115.310303 
	C1353.103516,1119.478027 1356.815552,1123.614014 1360.894531,1128.195557 
	C1382.544312,1110.046875 1403.425293,1092.542725 1424.735474,1074.678711 
	C1422.543213,1071.235474 1420.913696,1068.394653 1419.018311,1065.743774 
	C1403.736572,1044.370117 1384.870483,1026.547974 1363.582275,1011.381653 
	C1313.537842,975.728760 1257.507568,961.680664 1196.485107,965.534790 
	C1134.526978,969.447998 1082.120483,994.387512 1037.888062,1037.144897 
	C1008.150818,1065.890381 987.023926,1100.306641 973.307068,1139.295044 
	C972.754578,1140.865234 972.329285,1142.497437 971.607971,1143.986084 
	C970.923523,1145.399048 969.927979,1146.661377 969.686157,1147.035522 
	C969.171631,1132.983276 969.551331,1118.283936 967.918518,1103.811768 
	C964.149658,1070.407593 951.679626,1040.634644 927.186890,1016.901917 
	C896.265991,986.940491 858.746033,972.390686 815.963501,972.266541 
	C712.305420,971.965698 608.645813,972.178711 504.986816,972.184509 
	C502.056030,972.184692 499.125214,972.184509 495.419586,972.184509 
	C495.419586,1147.492310 495.419586,1321.878662 495.419586,1496.184570 
	C525.298584,1496.184570 554.435547,1496.184570 584.125549,1496.184570 
	C584.125549,1471.070679 584.124084,1446.768188 584.125977,1422.465820 
	C584.127808,1398.134277 584.133118,1373.802734 584.136597,1349.471191 
	C584.140076,1325.139648 584.143738,1300.808105 584.146240,1276.476562 
	C584.148804,1251.811646 584.149414,1227.146851 584.152222,1202.481934 
	C584.154907,1178.150391 584.029663,1153.817993 584.199646,1129.487549 
	C584.368347,1105.345337 583.490479,1081.169800 584.815491,1056.818604 
	C588.674438,1056.643188 591.309326,1056.419067 593.944153,1056.418823 
	C663.938965,1056.412231 733.933899,1056.391724 803.928528,1056.501953 
	C810.568115,1056.512451 817.282593,1056.885254 823.831238,1057.919556 
	C845.590942,1061.356689 862.128784,1072.319580 872.354553,1092.294800 
	C879.094849,1105.461426 881.199097,1119.377686 880.379211,1133.954590 
	C878.651367,1164.674316 858.826294,1189.431152 828.841858,1196.194458 
	C817.280457,1198.802246 805.075439,1199.376709 793.156128,1199.439087 
	C733.495422,1199.750366 673.832336,1199.576416 614.170044,1199.604126 
	C610.316650,1199.605957 606.463379,1199.870239 602.623657,1200.011841 
	C602.623657,1228.695190 602.623657,1256.196167 602.623657,1284.104248 
	C605.824768,1284.316772 608.427673,1284.640259 611.030579,1284.640625 
	C678.692200,1284.651489 746.354126,1284.721558 814.015076,1284.503174 
	C823.296082,1284.473267 832.693298,1283.662964 841.830688,1282.048096 
	C891.277954,1273.309692 929.971313,1249.335693 952.402222,1202.773804 
	C953.247498,1201.019165 954.622925,1199.520142 956.893982,1197.985474 
M266.307129,935.377441 
	C266.990845,933.860901 267.689056,932.350708 268.356232,930.826904 
	C302.898376,851.931824 349.887421,781.021790 407.992065,717.737915 
	C475.949493,643.723022 555.960754,585.597412 647.172546,543.357178 
	C764.258972,489.134277 887.207825,465.257324 1016.242493,473.479584 
	C1056.243042,476.028473 1095.753418,481.744629 1134.675049,490.931274 
	C1282.429443,525.805603 1409.898682,596.764038 1515.455811,706.350891 
	C1517.461182,708.432800 1519.746582,710.245178 1522.010986,712.281799 
	C1523.630493,711.039124 1524.813965,710.388916 1525.665039,709.440613 
	C1554.357788,677.469360 1587.820068,651.163818 1623.205688,627.122070 
	C1625.283936,625.710083 1626.952271,623.694458 1629.635864,621.190308 
	C1624.333008,615.176819 1619.760498,609.522278 1614.707764,604.335632 
	C1572.270630,560.774231 1526.361938,521.351074 1476.153687,486.890320 
	C1409.254639,440.973907 1337.469604,404.935059 1260.952759,378.086578 
	C1185.708374,351.684601 1108.286743,335.841003 1028.799072,330.485626 
	C994.578064,328.180023 960.299622,327.549988 925.925354,329.355408 
	C882.590027,331.631561 839.632690,336.567383 797.129700,344.899292 
	C726.598572,358.725708 658.502075,380.351288 593.133911,410.479431 
	C472.291595,466.175476 369.238556,545.335876 282.080322,645.546265 
	C234.833084,699.868835 195.266968,759.465881 161.811310,823.090393 
	C100.401848,939.876221 67.326744,1064.543335 60.472004,1196.113770 
	C57.048187,1261.830566 60.611797,1327.268433 71.766281,1392.266479 
	C85.021545,1469.505859 107.320694,1543.967041 139.933502,1615.179688 
	C201.299210,1749.176880 290.730408,1861.208374 406.352112,1952.376709 
	C481.762787,2011.838379 564.534363,2058.301270 654.668213,2091.577393 
	C740.307129,2123.194092 828.916138,2140.518799 919.889099,2145.602539 
	C956.808044,2147.665771 993.811890,2147.222412 1030.781128,2144.480225 
	C1065.365845,2141.914795 1099.720337,2137.719727 1133.755859,2131.307861 
	C1208.723755,2117.184082 1280.989380,2094.327637 1349.999756,2061.724854 
	C1460.724731,2009.414795 1557.469482,1938.027832 1639.972290,1847.473877 
	C1709.054321,1771.650391 1763.919922,1686.646851 1803.804443,1592.107300 
	C1845.392700,1493.529541 1868.151978,1390.570068 1873.555664,1283.847168 
	C1876.578979,1224.137573 1873.333862,1164.625610 1863.754150,1105.544067 
	C1861.872681,1093.940063 1859.526123,1082.411499 1857.027222,1068.858765 
	C1854.455566,1072.274292 1853.192383,1073.708862 1852.197021,1075.309937 
	C1834.651733,1103.527466 1813.426880,1128.789795 1788.610962,1150.718384 
	C1771.424683,1165.904907 1752.774170,1179.443970 1734.634644,1193.534790 
	C1731.008423,1196.351685 1728.867065,1198.685425 1729.157593,1204.072021 
	C1731.766479,1252.421387 1730.535767,1300.714355 1723.406738,1348.638794 
	C1712.567383,1421.506836 1692.475830,1491.766724 1661.472168,1558.726196 
	C1614.673584,1659.798218 1548.437988,1746.230225 1463.746704,1818.335205 
	C1380.967651,1888.812378 1287.403809,1939.977539 1183.157959,1971.176270 
	C1127.773804,1987.751465 1071.219727,1998.832275 1013.423645,2001.265503 
	C980.533081,2002.650391 947.481018,2001.469971 914.546875,2000.236694 
	C871.475220,1998.623657 829.169617,1990.960693 787.414795,1980.598389 
	C639.277649,1943.835327 512.744263,1869.819702 407.707642,1759.154541 
	C359.458313,1708.319580 319.226501,1651.609985 287.158203,1589.337891 
	C238.304703,1494.471558 210.934189,1393.493286 204.470245,1287.030762 
	C201.129410,1232.006714 203.878662,1177.111694 212.512360,1122.622070 
	C222.667816,1058.528442 240.294586,996.529968 266.307129,935.377441 
M1192.565308,532.266541 
	C1153.182617,515.015564 1112.059814,509.123199 1069.507935,514.479431 
	C1025.482422,520.021057 983.834351,533.495789 944.291138,553.660034 
	C906.803101,572.776367 871.328796,595.074646 837.090881,619.503662 
	C810.433105,638.524170 785.444397,659.439758 762.049072,682.299744 
	C758.964172,685.314148 756.090759,688.604187 753.511292,692.059143 
	C751.140381,695.234924 750.920349,698.911072 753.206482,702.339050 
	C755.567871,705.879700 759.032837,706.491333 762.917603,705.423767 
	C765.165222,704.806091 767.387939,704.095581 769.612122,703.395691 
	C781.679260,699.598389 793.632080,695.383118 805.827759,692.058350 
	C858.945129,677.577454 913.171143,672.770935 968.073486,673.690735 
	C996.436890,674.165955 1024.594971,676.370178 1052.561890,681.157776 
	C1105.410156,690.204895 1155.887817,706.839417 1204.701294,728.724365 
	C1273.229492,759.447998 1332.626099,802.571289 1381.448975,859.855286 
	C1392.467163,872.782898 1402.969727,886.148743 1413.815674,899.224854 
	C1416.387451,902.325439 1419.745605,905.958923 1423.887451,903.616638 
	C1426.575562,902.096558 1428.793457,898.238647 1429.548828,895.033813 
	C1439.933105,850.972778 1454.194702,808.587402 1480.632935,771.125366 
	C1486.562500,762.723572 1484.667236,757.633057 1474.909058,754.795898 
	C1465.650513,752.103943 1456.193848,750.065369 1446.776367,747.954041 
	C1428.269165,743.804749 1409.599976,740.308838 1391.231201,735.627075 
	C1361.836670,728.135193 1338.563110,711.779968 1323.402710,685.120300 
	C1313.861572,668.341858 1304.814575,651.270020 1295.966187,634.112976 
	C1285.221924,613.279968 1272.847778,593.558594 1256.954956,576.289124 
	C1239.286865,557.090454 1217.202026,544.092834 1192.565308,532.266541 
M776.132874,639.104919 
	C789.131287,628.696777 801.831604,617.887939 815.183350,607.954773 
	C857.216797,576.683472 900.826172,547.948486 949.147766,527.056763 
	C954.648132,524.678711 960.179565,522.368896 965.633118,519.887817 
	C969.153931,518.286072 971.996704,515.830627 971.619751,511.563049 
	C971.220703,507.044922 968.176575,504.340424 963.987976,503.376770 
	C960.789368,502.640808 957.407837,502.418488 954.110291,502.436768 
	C910.753479,502.676910 867.709717,506.368988 824.971069,513.820129 
	C766.622986,523.992493 710.137817,540.312622 656.635498,565.863220 
	C570.081726,607.197876 493.510284,662.271484 427.946808,732.632812 
	C372.808777,791.805786 330.853546,859.288391 298.351593,932.988892 
	C297.283966,935.409790 296.165649,937.922974 295.764435,940.501038 
	C294.683594,947.446167 299.933441,951.504700 306.315521,948.398132 
	C309.485626,946.854919 312.427826,944.289673 314.704803,941.548584 
	C349.362335,899.826416 391.962128,868.167847 440.484894,844.799927 
	C475.245636,828.059570 510.881531,813.064819 546.520996,798.238220 
	C594.449280,778.299316 640.102844,754.487549 680.205505,721.251038 
	C712.249268,694.693665 743.472412,667.146240 776.132874,639.104919 
M1373.257812,1796.102539 
	C1363.332153,1813.435181 1353.414307,1830.772217 1343.472778,1848.095825 
	C1341.816406,1850.982056 1339.336914,1853.627075 1338.554810,1856.716919 
	C1337.817017,1859.631226 1337.812866,1863.600342 1339.285522,1866.001709 
	C1341.504028,1869.619263 1345.716797,1868.571289 1349.280884,1867.238770 
	C1350.518188,1866.776245 1351.691284,1866.088867 1352.812256,1865.375854 
	C1364.618652,1857.867310 1376.630859,1850.656860 1388.164917,1842.749512 
	C1440.401123,1806.937256 1487.019897,1764.840454 1528.291626,1716.800293 
	C1575.998413,1661.269653 1614.417603,1599.963989 1642.877563,1532.488037 
	C1664.320068,1481.649902 1679.573364,1428.953491 1689.316406,1374.675415 
	C1695.923096,1337.870117 1700.204468,1300.836426 1697.730713,1263.345215 
	C1697.030029,1252.726685 1695.974243,1242.092896 1694.303711,1231.589722 
	C1692.975952,1223.241699 1687.002075,1218.996948 1679.385254,1220.596313 
	C1663.631226,1223.904297 1650.116577,1230.223022 1646.163330,1248.024780 
	C1645.515625,1250.941284 1644.502319,1253.785645 1643.529907,1256.619507 
	C1629.720703,1296.863892 1611.921021,1335.077637 1586.091675,1369.187744 
	C1571.810303,1388.047852 1557.617798,1406.977173 1543.170288,1425.709473 
	C1509.696289,1469.110840 1479.540649,1514.574707 1456.811279,1564.627197 
	C1437.077026,1608.084839 1422.389404,1653.386963 1408.220459,1698.875610 
	C1398.119141,1731.305298 1388.093384,1763.774902 1373.257812,1796.102539 
M1125.209595,1960.282104 
	C1148.518433,1953.440918 1172.139160,1947.493896 1195.046265,1939.501587 
	C1217.017456,1931.835815 1238.370850,1922.328125 1259.717773,1912.994263 
	C1264.958252,1910.702881 1270.079834,1906.672119 1273.546997,1902.135010 
	C1278.805786,1895.253662 1275.725220,1889.273560 1266.990601,1888.058838 
	C1260.407959,1887.143311 1253.722412,1886.969971 1247.083618,1886.453979 
	C1232.154785,1885.293457 1216.998413,1885.381836 1202.342163,1882.718750 
	C1162.402588,1875.461914 1122.587280,1867.450562 1082.882812,1858.986938 
	C1021.424438,1845.886108 959.510315,1837.429565 896.538391,1839.879395 
	C864.941101,1841.108765 833.372498,1843.345215 801.831726,1845.677856 
	C771.285217,1847.937012 740.823547,1851.408447 710.262146,1853.378906 
	C690.356384,1854.662354 670.283875,1855.276978 650.387207,1854.243774 
	C630.509094,1853.211426 610.740906,1849.875610 590.961304,1847.270508 
	C586.206177,1846.644409 582.300293,1847.236938 579.505737,1851.263428 
	C576.317871,1855.856812 578.781128,1860.025024 581.930298,1862.855713 
	C588.567932,1868.822510 595.273560,1875.079102 602.952515,1879.463135 
	C657.590088,1910.656250 715.437683,1934.336060 775.906494,1951.575684 
	C827.007080,1966.144531 879.146057,1975.413818 932.201782,1977.612183 
	C962.755554,1978.878296 993.480530,1977.599609 1024.064087,1976.128906 
	C1057.711304,1974.511108 1090.810669,1968.349976 1125.209595,1960.282104 
M561.771545,832.363403 
	C562.566284,831.294373 563.794800,830.325195 564.068481,829.136169 
	C564.700806,826.389465 566.152771,822.475281 564.917786,820.982239 
	C563.194458,818.898743 559.303650,817.692444 556.376587,817.756775 
	C552.873352,817.833740 549.192688,819.202209 545.959473,820.773804 
	C506.435730,839.986633 466.658661,858.715393 427.597015,878.831360 
	C388.513977,898.958435 354.403107,926.134460 323.353851,957.169739 
	C286.419281,994.087585 262.036865,1038.137451 248.775253,1088.501831 
	C237.771194,1130.292603 234.195053,1173.074097 232.446594,1216.013672 
	C230.723633,1258.327393 231.751968,1300.595459 238.144470,1342.576782 
	C238.994324,1348.157959 240.041016,1353.723511 241.325287,1359.219482 
	C242.327667,1363.509399 245.154663,1366.109009 249.760010,1366.460449 
	C254.258011,1366.803589 257.577789,1364.856689 259.610077,1361.009277 
	C260.998138,1358.381470 262.125854,1355.550415 262.921234,1352.685669 
	C268.032410,1334.277588 275.602692,1316.804688 285.044586,1300.353638 
	C304.434570,1266.569458 323.986053,1232.840698 344.722137,1199.875977 
	C371.019775,1158.070068 394.662872,1114.934326 415.366394,1070.115234 
	C430.582336,1037.175903 446.099701,1004.370544 461.909912,971.712219 
	C486.944214,920.000061 519.264404,873.422485 561.771545,832.363403 
M270.656311,1411.954834 
	C267.856110,1431.832642 267.124817,1451.546753 271.219666,1471.510254 
	C277.972717,1504.433838 290.420197,1535.231201 304.853119,1565.266113 
	C334.472870,1626.905151 373.521423,1682.345947 417.726318,1734.286621 
	C420.951324,1738.075928 424.598206,1741.548096 428.327057,1744.854126 
	C431.694733,1747.839966 435.833771,1750.002441 440.159149,1747.297363 
	C444.491241,1744.587769 444.351562,1740.117065 442.975830,1735.662109 
	C441.601349,1731.210938 440.276520,1726.744141 438.872803,1722.302246 
	C433.447266,1705.134399 428.395447,1687.834717 427.595245,1669.735474 
	C426.684174,1649.128296 425.804199,1628.488770 425.966766,1607.871460 
	C426.300262,1565.584229 427.637024,1523.304565 427.903534,1481.017700 
	C427.982819,1468.436890 426.931610,1455.636597 424.534607,1443.298950 
	C420.161102,1420.787720 415.312286,1398.285889 409.033142,1376.244019 
	C392.633545,1318.676270 388.048096,1260.525513 397.665344,1201.350952 
	C398.571716,1195.774292 399.316467,1190.163574 399.894653,1184.543823 
	C400.286346,1180.736938 399.704956,1176.875732 395.707367,1175.221680 
	C391.114044,1173.321289 388.224792,1176.566650 385.681427,1179.709473 
	C384.226929,1181.506836 383.123657,1183.599121 381.945374,1185.607422 
	C374.531281,1198.244751 367.302460,1210.993774 359.711853,1223.523926 
	C336.067017,1262.555664 312.656097,1301.714111 293.479706,1343.210938 
	C283.537994,1364.724121 275.190979,1386.794312 270.656311,1411.954834 
M744.311218,1827.505859 
	C747.281372,1827.103149 750.241394,1826.591064 753.223267,1826.314697 
	C783.718506,1823.489380 814.219666,1820.728271 844.710693,1817.858032 
	C847.323853,1817.611938 850.337036,1817.359741 852.331726,1815.940308 
	C854.526794,1814.378418 856.795471,1811.579834 857.074219,1809.099976 
	C857.287354,1807.203735 854.878601,1804.255005 852.870605,1803.051270 
	C850.109558,1801.396240 846.677551,1800.703735 843.444153,1800.016113 
	C791.235229,1788.914795 741.862732,1770.080200 695.428406,1743.995239 
	C651.127563,1719.108643 610.474670,1688.847046 572.621704,1655.019897 
	C532.342468,1619.024292 497.606964,1578.399902 472.771454,1529.968262 
	C471.714569,1527.907227 470.591736,1525.770630 469.040649,1524.093994 
	C465.226471,1519.970947 459.688416,1521.194580 458.266144,1526.621582 
	C457.528717,1529.435181 457.858704,1532.567871 457.939087,1535.550049 
	C458.351898,1550.864746 459.654175,1566.204590 459.142487,1581.485352 
	C457.848785,1620.117676 455.805298,1658.734131 460.080017,1697.296143 
	C462.395386,1718.182617 466.028778,1738.824097 473.701843,1758.542725 
	C479.359711,1773.082275 487.402130,1785.790283 500.173279,1795.327759 
	C515.423523,1806.716919 532.584839,1813.676636 550.862427,1818.064819 
	C592.193542,1827.987671 634.141541,1832.806152 676.643494,1831.494141 
	C698.602478,1830.816406 720.525391,1828.968140 744.311218,1827.505859 
M1252.895874,1864.551880 
	C1287.754517,1864.930298 1313.213013,1848.873413 1331.587280,1819.986450 
	C1343.283447,1801.598267 1352.176636,1781.861328 1359.700195,1761.559692 
	C1376.475586,1716.291870 1392.694092,1670.817627 1409.094116,1625.411011 
	C1409.761841,1623.562134 1410.336792,1621.543457 1410.321045,1619.609253 
	C1410.270020,1613.355469 1405.467773,1610.633545 1400.194458,1613.994141 
	C1397.131104,1615.946167 1394.484741,1618.567139 1391.711426,1620.957520 
	C1373.042358,1637.048096 1354.864502,1653.750366 1335.641968,1669.149170 
	C1278.614014,1714.832153 1216.754272,1752.454102 1148.328979,1778.716431 
	C1116.274780,1791.019165 1083.892456,1802.267090 1049.680298,1807.122925 
	C1045.078369,1807.776123 1040.399658,1808.187866 1035.927368,1809.362183 
	C1032.136353,1810.357910 1029.037231,1813.283081 1029.965210,1817.378662 
	C1030.602173,1820.189575 1032.910156,1823.316772 1035.374756,1824.839966 
	C1038.360107,1826.684570 1042.260010,1827.166504 1045.830200,1827.928467 
	C1083.587646,1835.987305 1121.389160,1843.841431 1159.115112,1852.043823 
	C1189.406860,1858.629761 1219.685547,1865.076416 1252.895874,1864.551880 
M799.632812,1373.386841 
	C830.852478,1412.364624 862.120850,1451.303711 893.220947,1490.376587 
	C896.564819,1494.577637 899.845032,1496.935669 905.622070,1496.874878 
	C935.920410,1496.556152 966.223694,1496.720825 996.525085,1496.649414 
	C998.983154,1496.643555 1001.440063,1496.123657 1005.466370,1495.663330 
	C1002.143494,1491.004272 999.844177,1487.460205 997.231628,1484.164429 
	C950.492432,1425.205322 903.671997,1366.310303 857.040283,1307.266357 
	C853.809631,1303.175659 850.544189,1301.454102 845.337769,1301.491089 
	C815.371216,1301.704590 785.402283,1301.573486 755.434326,1301.622925 
	C752.615234,1301.627563 749.796875,1302.074219 746.353638,1302.369019 
	C747.008179,1304.520996 747.065369,1305.975586 747.791504,1306.910767 
	C764.733704,1328.729614 781.748413,1350.492065 799.632812,1373.386841 
M1607.277954,316.204803 
	C1597.556396,331.823456 1589.764282,348.642731 1578.546509,364.324097 
	C1577.525635,362.276733 1576.827148,361.446808 1576.700806,360.537384 
	C1574.410522,344.050842 1572.141357,327.561005 1569.963135,311.059296 
	C1565.258057,275.415009 1560.673218,239.754501 1555.796509,204.133835 
	C1555.440552,201.533752 1553.728638,198.278732 1551.620239,196.910736 
	C1544.149536,192.063263 1536.233032,187.902908 1527.449219,182.890915 
	C1494.058228,239.695206 1461.069946,295.814423 1427.658325,352.653992 
	C1438.752319,359.156586 1448.903320,365.106445 1459.558960,371.352081 
	C1470.982544,351.721680 1481.501831,333.228424 1492.431274,314.980774 
	C1503.427368,296.621460 1513.178345,277.477417 1526.018433,258.952789 
	C1527.003540,261.120239 1527.606934,261.912598 1527.717041,262.768402 
	C1530.607056,285.218475 1533.349487,307.687866 1536.317505,330.127502 
	C1540.246216,359.830566 1544.256836,389.523773 1548.505371,419.182068 
	C1548.932373,422.163391 1550.515747,425.913696 1552.812500,427.521057 
	C1560.354736,432.799652 1568.473145,437.254974 1576.968628,442.388245 
	C1610.269287,384.883545 1643.036987,328.299164 1676.053345,271.285492 
	C1665.288452,264.768921 1655.678345,258.951477 1645.123169,252.561890 
	C1632.426025,273.870697 1620.197998,294.392120 1607.277954,316.204803 
M306.123260,219.067368 
	C275.612885,242.814545 261.129944,273.662323 265.838928,312.420654 
	C272.270691,365.359161 319.866638,415.374268 382.719269,405.850098 
	C424.259552,399.555420 454.330109,376.915070 467.761017,336.539795 
	C479.638611,300.833954 471.850372,267.222748 449.060760,237.680542 
	C427.488708,209.716721 398.613586,195.961533 362.971985,198.065094 
	C342.513092,199.272568 324.224213,207.010178 306.123260,219.067368 
M781.218323,56.279366 
	C774.359131,57.059879 767.499939,57.840393 759.325684,58.770546 
	C765.490845,124.875549 771.587219,190.242462 777.662842,255.387711 
	C790.927063,256.193695 807.934509,253.701080 814.926208,250.169815 
	C813.004883,230.512878 811.077576,210.794540 809.080261,190.360641 
	C817.892456,189.519379 825.490662,189.025192 833.021606,188.025269 
	C847.181946,186.145111 861.572449,185.072571 875.385559,181.694687 
	C904.676270,174.531967 921.963501,155.239090 925.018738,126.220116 
	C927.851257,99.315598 918.707275,67.939674 882.048218,55.791317 
	C868.228455,51.211582 854.161926,49.724659 839.721741,51.047253 
	C820.832153,52.777367 801.938110,54.459770 781.218323,56.279366 
M1307.135864,160.123367 
	C1274.997559,196.915848 1242.859253,233.708344 1209.848511,271.499756 
	C1222.506470,275.951416 1233.725464,279.897034 1245.686401,284.103577 
	C1255.942383,272.072296 1266.030640,260.237885 1276.307007,248.182800 
	C1303.153198,257.354248 1329.475830,266.650726 1356.034790,275.214050 
	C1362.981567,277.453888 1365.442993,281.136139 1365.761719,287.947235 
	C1366.367188,300.888031 1367.515015,313.803467 1368.498169,327.577057 
	C1380.734497,331.717712 1392.824585,335.808899 1406.050537,340.284424 
	C1404.999634,328.327728 1404.160156,317.754608 1403.126465,307.200531 
	C1399.427368,269.431610 1395.651489,231.670212 1391.926147,193.903839 
	C1389.802246,172.372345 1387.640259,150.843964 1385.689331,129.296616 
	C1385.312744,125.137047 1383.987915,122.705727 1379.669556,121.460648 
	C1369.789307,118.611931 1360.061768,115.233650 1349.516479,111.826263 
	C1335.665405,127.603668 1321.863892,143.324509 1307.135864,160.123367 
M150.033829,476.938019 
	C142.528214,469.164276 136.974716,460.129791 132.952347,450.150604 
	C115.087364,405.829041 146.706833,360.273285 194.518250,361.388367 
	C198.104416,361.472015 201.694244,361.399384 206.083054,361.399384 
	C207.028107,350.585388 207.939987,340.151031 208.829742,329.969849 
	C198.124847,327.023376 183.448410,326.855530 173.028931,329.071045 
	C114.598038,341.495392 68.344765,408.788055 103.564987,476.574158 
	C122.731705,513.463074 153.390884,535.545715 196.119568,535.999390 
	C238.754929,536.452087 269.388458,515.182007 290.091492,478.874756 
	C297.456421,465.958801 299.924316,451.686249 299.383087,436.225494 
	C288.073212,435.457764 277.614075,434.747772 266.714569,434.007904 
	C266.267303,437.662079 265.986908,440.241913 265.631683,442.811340 
	C260.693878,478.530701 231.674942,502.406342 195.780182,499.942139 
	C177.981812,498.720306 163.543243,490.177399 150.033829,476.938019 
M1736.048462,317.029633 
	C1732.474121,314.160522 1728.899902,311.291443 1724.828247,308.023102 
	C1717.804810,316.487457 1711.276611,324.355133 1704.237915,332.837891 
	C1720.927612,346.809143 1736.894775,360.175629 1753.579834,374.143097 
	C1717.921753,416.375671 1683.599121,458.124969 1649.111938,500.559784 
	C1659.358032,508.931915 1668.504517,516.405518 1677.764404,523.971863 
	C1713.912964,481.999512 1746.237549,438.498749 1782.429321,397.839600 
	C1799.042236,411.851807 1814.679688,425.041229 1830.690796,438.545868 
	C1838.018677,429.496857 1844.453979,421.550140 1851.546753,412.791382 
	C1812.915527,380.761780 1775.026367,349.347534 1736.048462,317.029633 
M1026.485352,248.262039 
	C1054.127808,250.892487 1081.760010,253.667282 1109.997559,255.571396 
	C1110.786011,244.118088 1111.484741,233.967621 1112.233276,223.095642 
	C1077.420532,219.865906 1043.811157,216.747818 1009.667664,213.580154 
	C1013.626953,158.652512 1017.492920,105.019981 1021.411011,50.664707 
	C1008.827026,49.730473 997.368164,48.879761 985.003479,47.961803 
	C979.992920,113.476143 975.057312,178.010651 970.047241,243.518753 
	C988.977173,245.125137 1006.805725,246.638062 1026.485352,248.262039 
M1447.360962,683.650940 
	C1426.997559,667.073547 1407.307007,649.566711 1386.072266,634.192932 
	C1366.730957,620.190125 1345.869263,608.241211 1325.314941,595.995972 
	C1320.745361,593.273682 1314.676392,592.133118 1309.261719,592.021729 
	C1303.607544,591.905518 1301.453735,596.615662 1304.041992,601.820129 
	C1314.554688,622.958374 1325.092163,644.085938 1335.844360,665.102966 
	C1351.579346,695.859924 1377.232666,712.418396 1410.892822,718.400940 
	C1430.819092,721.942566 1450.439209,727.209473 1470.191284,731.725159 
	C1472.459106,732.243530 1474.670166,733.016296 1476.943604,733.501709 
	C1480.315063,734.221619 1483.677002,734.427002 1485.862549,731.015564 
	C1488.045044,727.609192 1486.448242,724.559021 1484.443115,721.823914 
	C1482.088989,718.612915 1479.675537,715.384888 1476.879883,712.569336 
	C1467.505249,703.127930 1457.948853,693.866882 1447.360962,683.650940 
M1613.879639,1270.807373 
	C1614.693970,1267.929810 1615.603882,1265.075439 1616.306396,1262.170898 
	C1619.293091,1249.819946 1614.689331,1244.435547 1602.083984,1245.563110 
	C1587.846069,1246.836426 1573.636963,1248.801636 1559.373901,1249.315430 
	C1545.892456,1249.801270 1538.664307,1256.986206 1534.832642,1268.794922 
	C1533.407349,1273.187378 1532.271118,1277.812134 1531.942993,1282.398193 
	C1530.471802,1302.956177 1529.085083,1323.527222 1528.164429,1344.115601 
	C1527.416016,1360.850586 1524.804810,1377.153809 1519.407959,1393.019531 
	C1518.563110,1395.502808 1517.529785,1398.230713 1517.818604,1400.701294 
	C1518.092285,1403.042603 1519.473145,1406.199951 1521.316528,1407.143677 
	C1523.120972,1408.067383 1526.425781,1407.219360 1528.517944,1406.107056 
	C1530.765015,1404.912109 1532.519043,1402.631592 1534.223267,1400.602295 
	C1540.639160,1392.962036 1547.035034,1385.301636 1553.280029,1377.521729 
	C1578.875854,1345.634521 1599.486206,1310.884277 1613.879639,1270.807373 
M1194.043091,195.151199 
	C1200.785645,155.596848 1208.943481,116.274574 1214.793945,76.001678 
	C1202.390869,73.749054 1191.409546,70.228699 1179.304810,69.644028 
	C1167.519653,134.057449 1155.922363,197.443359 1144.181641,261.613464 
	C1156.572876,264.699707 1168.218628,267.665985 1180.785400,268.595062 
	C1185.275879,243.924713 1189.558350,220.397232 1194.043091,195.151199 
z"/>
<path fill="#8BB747" opacity="1.000000" stroke="none" 
	d="
M266.028992,936.087402 
	C240.294586,996.529968 222.667816,1058.528442 212.512360,1122.622070 
	C203.878662,1177.111694 201.129410,1232.006714 204.470245,1287.030762 
	C210.934189,1393.493286 238.304703,1494.471558 287.158203,1589.337891 
	C319.226501,1651.609985 359.458313,1708.319580 407.707642,1759.154541 
	C512.744263,1869.819702 639.277649,1943.835327 787.414795,1980.598389 
	C829.169617,1990.960693 871.475220,1998.623657 914.546875,2000.236694 
	C947.481018,2001.469971 980.533081,2002.650391 1013.423645,2001.265503 
	C1071.219727,1998.832275 1127.773804,1987.751465 1183.157959,1971.176270 
	C1287.403809,1939.977539 1380.967651,1888.812378 1463.746704,1818.335205 
	C1548.437988,1746.230225 1614.673584,1659.798218 1661.472168,1558.726196 
	C1692.475830,1491.766724 1712.567383,1421.506836 1723.406738,1348.638794 
	C1730.535767,1300.714355 1731.766479,1252.421387 1729.157593,1204.072021 
	C1728.867065,1198.685425 1731.008423,1196.351685 1734.634644,1193.534790 
	C1752.774170,1179.443970 1771.424683,1165.904907 1788.610962,1150.718384 
	C1813.426880,1128.789795 1834.651733,1103.527466 1852.197021,1075.309937 
	C1853.192383,1073.708862 1854.455566,1072.274292 1857.027222,1068.858765 
	C1859.526123,1082.411499 1861.872681,1093.940063 1863.754150,1105.544067 
	C1873.333862,1164.625610 1876.578979,1224.137573 1873.555664,1283.847168 
	C1868.151978,1390.570068 1845.392700,1493.529541 1803.804443,1592.107300 
	C1763.919922,1686.646851 1709.054321,1771.650391 1639.972290,1847.473877 
	C1557.469482,1938.027832 1460.724731,2009.414795 1349.999756,2061.724854 
	C1280.989380,2094.327637 1208.723755,2117.184082 1133.755859,2131.307861 
	C1099.720337,2137.719727 1065.365845,2141.914795 1030.781128,2144.480225 
	C993.811890,2147.222412 956.808044,2147.665771 919.889099,2145.602539 
	C828.916138,2140.518799 740.307129,2123.194092 654.668213,2091.577393 
	C564.534363,2058.301270 481.762787,2011.838379 406.352112,1952.376709 
	C290.730408,1861.208374 201.299210,1749.176880 139.933502,1615.179688 
	C107.320694,1543.967041 85.021545,1469.505859 71.766281,1392.266479 
	C60.611797,1327.268433 57.048187,1261.830566 60.472004,1196.113770 
	C67.326744,1064.543335 100.401848,939.876221 161.811310,823.090393 
	C195.266968,759.465881 234.833084,699.868835 282.080322,645.546265 
	C369.238556,545.335876 472.291595,466.175476 593.133911,410.479431 
	C658.502075,380.351288 726.598572,358.725708 797.129700,344.899292 
	C839.632690,336.567383 882.590027,331.631561 925.925354,329.355408 
	C960.299622,327.549988 994.578064,328.180023 1028.799072,330.485626 
	C1108.286743,335.841003 1185.708374,351.684601 1260.952759,378.086578 
	C1337.469604,404.935059 1409.254639,440.973907 1476.153687,486.890320 
	C1526.361938,521.351074 1572.270630,560.774231 1614.707764,604.335632 
	C1619.760498,609.522278 1624.333008,615.176819 1629.635864,621.190308 
	C1626.952271,623.694458 1625.283936,625.710083 1623.205688,627.122070 
	C1587.820068,651.163818 1554.357788,677.469360 1525.665039,709.440613 
	C1524.813965,710.388916 1523.630493,711.039124 1522.010986,712.281799 
	C1519.746582,710.245178 1517.461182,708.432800 1515.455811,706.350891 
	C1409.898682,596.764038 1282.429443,525.805603 1134.675049,490.931274 
	C1095.753418,481.744629 1056.243042,476.028473 1016.242493,473.479584 
	C887.207825,465.257324 764.258972,489.134277 647.172546,543.357178 
	C555.960754,585.597412 475.949493,643.723022 407.992065,717.737915 
	C349.887421,781.021790 302.898376,851.931824 268.356232,930.826904 
	C267.689056,932.350708 266.990845,933.860901 266.028992,936.087402 
z"/>
<path fill="#6B9B41" opacity="1.000000" stroke="none" 
	d="
M955.751404,1197.901978 
	C954.622925,1199.520142 953.247498,1201.019165 952.402222,1202.773804 
	C929.971313,1249.335693 891.277954,1273.309692 841.830688,1282.048096 
	C832.693298,1283.662964 823.296082,1284.473267 814.015076,1284.503174 
	C746.354126,1284.721558 678.692200,1284.651489 611.030579,1284.640625 
	C608.427673,1284.640259 605.824768,1284.316772 602.623657,1284.104248 
	C602.623657,1256.196167 602.623657,1228.695190 602.623657,1200.011841 
	C606.463379,1199.870239 610.316650,1199.605957 614.170044,1199.604126 
	C673.832336,1199.576416 733.495422,1199.750366 793.156128,1199.439087 
	C805.075439,1199.376709 817.280457,1198.802246 828.841858,1196.194458 
	C858.826294,1189.431152 878.651367,1164.674316 880.379211,1133.954590 
	C881.199097,1119.377686 879.094849,1105.461426 872.354553,1092.294800 
	C862.128784,1072.319580 845.590942,1061.356689 823.831238,1057.919556 
	C817.282593,1056.885254 810.568115,1056.512451 803.928528,1056.501953 
	C733.933899,1056.391724 663.938965,1056.412231 593.944153,1056.418823 
	C591.309326,1056.419067 588.674438,1056.643188 584.815491,1056.818604 
	C583.490479,1081.169800 584.368347,1105.345337 584.199646,1129.487549 
	C584.029663,1153.817993 584.154907,1178.150391 584.152222,1202.481934 
	C584.149414,1227.146851 584.148804,1251.811646 584.146240,1276.476562 
	C584.143738,1300.808105 584.140076,1325.139648 584.136597,1349.471191 
	C584.133118,1373.802734 584.127808,1398.134277 584.125977,1422.465820 
	C584.124084,1446.768188 584.125549,1471.070679 584.125549,1496.184570 
	C554.435547,1496.184570 525.298584,1496.184570 495.419586,1496.184570 
	C495.419586,1321.878662 495.419586,1147.492310 495.419586,972.184509 
	C499.125214,972.184509 502.056030,972.184692 504.986816,972.184509 
	C608.645813,972.178711 712.305420,971.965698 815.963501,972.266541 
	C858.746033,972.390686 896.265991,986.940491 927.186890,1016.901917 
	C951.679626,1040.634644 964.149658,1070.407593 967.918518,1103.811768 
	C969.551331,1118.283936 969.171631,1132.983276 969.686157,1147.035522 
	C969.927979,1146.661377 970.923523,1145.399048 971.607971,1143.986084 
	C972.329285,1142.497437 972.754578,1140.865234 973.307068,1139.295044 
	C987.023926,1100.306641 1008.150818,1065.890381 1037.888062,1037.144897 
	C1082.120483,994.387512 1134.526978,969.447998 1196.485107,965.534790 
	C1257.507568,961.680664 1313.537842,975.728760 1363.582275,1011.381653 
	C1384.870483,1026.547974 1403.736572,1044.370117 1419.018311,1065.743774 
	C1420.913696,1068.394653 1422.543213,1071.235474 1424.735474,1074.678711 
	C1403.425293,1092.542725 1382.544312,1110.046875 1360.894531,1128.195557 
	C1356.815552,1123.614014 1353.103516,1119.478027 1349.427368,1115.310303 
	C1325.084106,1087.712280 1295.856812,1067.338501 1260.545166,1056.472656 
	C1193.377319,1035.804321 1120.555054,1062.456787 1079.951538,1122.316406 
	C1060.426636,1151.100830 1050.308716,1183.072144 1047.292358,1217.637207 
	C1043.829956,1257.311646 1048.302734,1295.784668 1066.354370,1331.468628 
	C1093.817261,1385.756470 1138.485596,1415.887695 1199.400269,1420.066162 
	C1248.561035,1423.438354 1289.791260,1404.410767 1325.541382,1371.942017 
	C1335.150024,1363.215332 1344.377197,1354.068726 1354.841064,1344.103516 
	C1375.831055,1360.501709 1397.752686,1377.627808 1420.206055,1395.169312 
	C1417.843872,1398.462524 1416.065674,1401.212891 1414.022339,1403.749634 
	C1378.004883,1448.462769 1334.208618,1482.350220 1278.090454,1497.459839 
	C1143.248657,1533.765381 1006.395630,1455.760132 967.863953,1321.376099 
	C956.399231,1281.391357 953.809753,1240.832520 959.559326,1198.151367 
	C960.446045,1192.609253 961.116577,1188.597046 961.787170,1184.584717 
	C961.242188,1184.477905 960.697205,1184.371094 960.152222,1184.264282 
	C958.685303,1188.810181 957.218384,1193.356079 955.751404,1197.901978 
z"/>
<path fill="#7EAE41" opacity="1.000000" stroke="none" 
	d="
M1903.920654,536.462402 
	C1905.331055,538.808105 1907.743408,541.080383 1907.922241,543.516541 
	C1908.205688,547.382080 1907.406738,551.470581 1906.355835,555.268311 
	C1895.944946,592.890564 1889.641357,631.200317 1885.358032,669.987732 
	C1878.574219,731.419495 1878.841675,792.977905 1880.821655,854.557983 
	C1882.244507,898.810547 1878.632446,942.321899 1866.122559,984.899475 
	C1849.488403,1041.514160 1818.939575,1089.560059 1776.363892,1130.170532 
	C1732.059082,1172.430298 1680.227417,1201.247559 1621.041748,1216.689941 
	C1594.904663,1223.509399 1568.342651,1228.003540 1541.214233,1228.219849 
	C1537.895630,1228.246216 1534.574219,1227.909058 1530.748779,1226.614746 
	C1532.084839,1219.486084 1534.062256,1213.521118 1535.744385,1207.473755 
	C1544.245972,1176.908569 1552.000366,1146.115601 1561.325317,1115.805054 
	C1569.403564,1089.546875 1578.846802,1063.684570 1588.395142,1037.909668 
	C1597.938477,1012.148621 1608.404297,986.730164 1618.369385,961.124084 
	C1621.109131,954.083923 1623.503784,946.909424 1626.651611,939.418823 
	C1635.592896,936.927429 1642.474854,932.452515 1649.018555,926.045593 
	C1655.003052,925.763733 1660.138062,925.499084 1664.181885,925.290710 
	C1666.063599,928.701294 1667.527344,931.354553 1669.216187,934.771057 
	C1669.574097,936.587280 1669.707031,937.640259 1670.121582,939.375244 
	C1678.919067,943.335754 1681.832397,942.973938 1686.024536,937.207703 
	C1686.172485,930.870178 1686.326050,925.441345 1687.116699,919.861816 
	C1691.762451,915.914307 1690.246948,912.847046 1686.312256,909.282166 
	C1686.282593,906.338318 1686.421875,904.189331 1687.458008,902.031494 
	C1701.104858,902.022705 1713.854980,902.022705 1727.501831,902.022705 
	C1727.501831,905.643372 1727.621704,908.145203 1727.479248,910.631958 
	C1727.049683,918.131836 1726.285645,925.623535 1726.207642,933.124268 
	C1726.190430,934.777710 1728.464600,936.455078 1729.809570,938.143311 
	C1729.935425,938.165100 1729.850220,938.405884 1730.094116,939.116028 
	C1737.759155,943.172180 1741.260986,942.912292 1746.253418,937.678101 
	C1746.457153,923.737671 1746.563477,910.771301 1747.106934,897.152466 
	C1747.213257,889.051819 1746.882324,881.603638 1746.373047,873.235840 
	C1746.176147,867.360046 1746.415161,862.384827 1746.050537,857.454224 
	C1745.795288,854.002991 1744.715210,850.612793 1743.893555,846.695251 
	C1741.667847,843.200806 1740.703857,844.701965 1739.175293,847.380737 
	C1733.670166,847.408325 1729.273438,847.628479 1729.104004,854.414429 
	C1728.990479,855.778198 1729.229004,856.836670 1729.632568,858.569336 
	C1729.688721,860.155945 1729.580200,861.068420 1728.781982,862.098022 
	C1717.388306,865.851562 1725.445679,874.823242 1722.955688,881.253906 
	C1711.525269,881.253906 1700.237183,881.253906 1689.168579,881.253906 
	C1688.159546,877.722534 1687.364258,874.939026 1686.388916,871.249573 
	C1686.329102,864.201294 1686.449219,858.058899 1686.813477,851.726318 
	C1687.364258,850.897156 1687.176270,850.409851 1686.151978,849.538513 
	C1685.172241,848.451172 1684.534180,847.899597 1683.722656,847.118042 
	C1682.976562,846.566040 1682.498291,846.695312 1681.316406,847.458496 
	C1678.356323,847.483276 1676.194214,847.325500 1673.957031,846.666321 
	C1673.242798,845.435913 1672.603638,844.707031 1672.045166,843.262817 
	C1675.099731,836.996033 1678.173340,831.495422 1681.030884,825.884705 
	C1699.910156,788.816101 1721.916870,753.592529 1744.756226,718.902588 
	C1756.243042,701.455444 1768.531860,684.504883 1781.084473,667.800476 
	C1791.627930,653.769836 1802.990479,640.348022 1814.167603,626.802917 
	C1819.444824,620.407837 1824.882935,614.105591 1830.690186,608.195496 
	C1846.974365,591.622742 1863.404053,575.190430 1879.948730,558.877502 
	C1887.735840,551.199280 1895.917725,543.921570 1903.920654,536.462402 
M1779.398071,895.935791 
	C1786.416504,897.967896 1793.467041,899.897095 1800.439819,902.075500 
	C1803.912231,903.160278 1807.822754,904.010925 1810.468506,906.235779 
	C1812.964478,908.334595 1815.070679,911.953491 1815.527466,915.162842 
	C1816.149170,919.531311 1812.938721,922.917114 1808.711548,923.747925 
	C1803.593750,924.753784 1798.032349,925.884949 1793.089844,924.874268 
	C1784.467651,923.110901 1776.171875,919.751160 1767.048828,916.840088 
	C1765.523071,920.284668 1763.825562,924.117310 1762.222900,927.735657 
	C1768.909424,935.257324 1777.213257,937.774353 1785.744507,939.114075 
	C1798.407837,941.102722 1810.928345,941.004517 1822.356567,933.641602 
	C1837.331909,923.993286 1837.989624,899.858398 1819.942627,892.205811 
	C1814.161621,889.754395 1808.014526,888.159607 1802.017090,886.227966 
	C1797.276855,884.701233 1792.425537,883.478943 1787.779175,881.712341 
	C1783.750122,880.180420 1781.306763,877.156067 1781.471436,872.527466 
	C1781.632080,868.016907 1783.969116,864.861389 1788.045166,863.436951 
	C1791.122681,862.361511 1794.595947,861.326843 1797.724487,861.697510 
	C1806.463989,862.732788 1815.116089,864.507568 1824.830933,866.166016 
	C1826.063477,863.335754 1827.739136,859.487854 1829.604126,855.205200 
	C1814.348022,845.419189 1798.763794,843.826111 1782.416016,849.309875 
	C1772.088013,852.774292 1765.520874,859.914429 1764.453979,871.028870 
	C1763.394287,882.067627 1767.652100,890.494751 1779.398071,895.935791 
z"/>
<path fill="#8BB647" opacity="1.000000" stroke="none" 
	d="
M1193.245605,532.599304 
	C1217.202026,544.092834 1239.286865,557.090454 1256.954956,576.289124 
	C1272.847778,593.558594 1285.221924,613.279968 1295.966187,634.112976 
	C1304.814575,651.270020 1313.861572,668.341858 1323.402710,685.120300 
	C1338.563110,711.779968 1361.836670,728.135193 1391.231201,735.627075 
	C1409.599976,740.308838 1428.269165,743.804749 1446.776367,747.954041 
	C1456.193848,750.065369 1465.650513,752.103943 1474.909058,754.795898 
	C1484.667236,757.633057 1486.562500,762.723572 1480.632935,771.125366 
	C1454.194702,808.587402 1439.933105,850.972778 1429.548828,895.033813 
	C1428.793457,898.238647 1426.575562,902.096558 1423.887451,903.616638 
	C1419.745605,905.958923 1416.387451,902.325439 1413.815674,899.224854 
	C1402.969727,886.148743 1392.467163,872.782898 1381.448975,859.855286 
	C1332.626099,802.571289 1273.229492,759.447998 1204.701294,728.724365 
	C1155.887817,706.839417 1105.410156,690.204895 1052.561890,681.157776 
	C1024.594971,676.370178 996.436890,674.165955 968.073486,673.690735 
	C913.171143,672.770935 858.945129,677.577454 805.827759,692.058350 
	C793.632080,695.383118 781.679260,699.598389 769.612122,703.395691 
	C767.387939,704.095581 765.165222,704.806091 762.917603,705.423767 
	C759.032837,706.491333 755.567871,705.879700 753.206482,702.339050 
	C750.920349,698.911072 751.140381,695.234924 753.511292,692.059143 
	C756.090759,688.604187 758.964172,685.314148 762.049072,682.299744 
	C785.444397,659.439758 810.433105,638.524170 837.090881,619.503662 
	C871.328796,595.074646 906.803101,572.776367 944.291138,553.660034 
	C983.834351,533.495789 1025.482422,520.021057 1069.507935,514.479431 
	C1112.059814,509.123199 1153.182617,515.015564 1193.245605,532.599304 
z"/>
<path fill="#6B9B40" opacity="1.000000" stroke="none" 
	d="
M1903.059570,536.126526 
	C1895.917725,543.921570 1887.735840,551.199280 1879.948730,558.877502 
	C1863.404053,575.190430 1846.974365,591.622742 1830.690186,608.195496 
	C1824.882935,614.105591 1819.444824,620.407837 1814.167603,626.802917 
	C1802.990479,640.348022 1791.627930,653.769836 1781.084473,667.800476 
	C1768.531860,684.504883 1756.243042,701.455444 1744.756226,718.902588 
	C1721.916870,753.592529 1699.910156,788.816101 1681.030884,825.884705 
	C1678.173340,831.495422 1675.099731,836.996033 1671.571045,843.577332 
	C1670.646240,845.654541 1670.276367,846.701965 1669.752319,848.454102 
	C1669.333130,850.079041 1669.067993,850.999146 1668.217041,852.136353 
	C1665.068237,857.326843 1662.572754,862.336487 1659.925415,867.264526 
	C1656.548340,873.550842 1655.760254,881.230774 1649.274048,885.712402 
	C1642.082642,875.005371 1632.288818,870.131409 1620.357056,869.259033 
	C1600.765259,867.826660 1585.977661,879.703857 1583.159058,898.945251 
	C1580.253540,918.779846 1591.049683,935.162476 1610.188599,939.129944 
	C1615.304199,940.190308 1620.758179,939.618896 1626.056763,939.796631 
	C1623.503784,946.909424 1621.109131,954.083923 1618.369385,961.124084 
	C1608.404297,986.730164 1597.938477,1012.148621 1588.395142,1037.909668 
	C1578.846802,1063.684570 1569.403564,1089.546875 1561.325317,1115.805054 
	C1552.000366,1146.115601 1544.245972,1176.908569 1535.744385,1207.473755 
	C1534.062256,1213.521118 1532.084839,1219.486084 1529.975342,1226.286255 
	C1516.482666,1225.473389 1506.853638,1218.349121 1500.123901,1207.220093 
	C1496.685425,1201.533936 1493.519775,1195.613892 1490.901611,1189.511719 
	C1472.861328,1147.465088 1458.086548,1104.451294 1450.806396,1059.030518 
	C1438.410034,981.689087 1444.130737,906.326355 1473.943604,833.384521 
	C1497.281616,776.284485 1534.641479,729.481384 1580.886475,689.493713 
	C1637.621460,640.435242 1701.953491,603.614990 1770.628540,574.163208 
	C1806.782471,558.658386 1843.598267,544.870544 1882.374512,537.262878 
	C1888.830322,535.996338 1895.582886,536.243103 1903.059570,536.126526 
M1570.061035,880.706543 
	C1569.561401,862.012756 1562.367798,852.198792 1544.896484,848.994568 
	C1528.895874,846.060120 1512.653442,848.234558 1496.349854,847.729431 
	C1496.349854,878.696777 1496.349854,908.391907 1496.349854,938.279907 
	C1501.947144,938.279907 1506.728638,938.279907 1512.677979,938.279907 
	C1512.677979,928.780212 1512.677979,919.995972 1512.677979,910.536194 
	C1519.781738,910.536194 1525.761963,910.116760 1531.633423,910.733093 
	C1534.146484,910.996887 1537.098389,912.903137 1538.690308,914.960999 
	C1542.541382,919.938660 1545.723022,925.435791 1549.151123,930.738647 
	C1555.376587,940.369202 1559.613525,941.656982 1571.495239,937.215576 
	C1565.077393,927.595581 1558.705811,918.045166 1552.092529,908.132141 
	C1562.581177,901.919617 1569.344116,894.180908 1570.061035,880.706543 
z"/>
<path fill="#8BB648" opacity="1.000000" stroke="none" 
	d="
M775.596313,639.571594 
	C743.472412,667.146240 712.249268,694.693665 680.205505,721.251038 
	C640.102844,754.487549 594.449280,778.299316 546.520996,798.238220 
	C510.881531,813.064819 475.245636,828.059570 440.484894,844.799927 
	C391.962128,868.167847 349.362335,899.826416 314.704803,941.548584 
	C312.427826,944.289673 309.485626,946.854919 306.315521,948.398132 
	C299.933441,951.504700 294.683594,947.446167 295.764435,940.501038 
	C296.165649,937.922974 297.283966,935.409790 298.351593,932.988892 
	C330.853546,859.288391 372.808777,791.805786 427.946808,732.632812 
	C493.510284,662.271484 570.081726,607.197876 656.635498,565.863220 
	C710.137817,540.312622 766.622986,523.992493 824.971069,513.820129 
	C867.709717,506.368988 910.753479,502.676910 954.110291,502.436768 
	C957.407837,502.418488 960.789368,502.640808 963.987976,503.376770 
	C968.176575,504.340424 971.220703,507.044922 971.619751,511.563049 
	C971.996704,515.830627 969.153931,518.286072 965.633118,519.887817 
	C960.179565,522.368896 954.648132,524.678711 949.147766,527.056763 
	C900.826172,547.948486 857.216797,576.683472 815.183350,607.954773 
	C801.831604,617.887939 789.131287,628.696777 775.596313,639.571594 
z"/>
<path fill="#8BB647" opacity="1.000000" stroke="none" 
	d="
M1373.568604,1795.419678 
	C1388.093384,1763.774902 1398.119141,1731.305298 1408.220459,1698.875610 
	C1422.389404,1653.386963 1437.077026,1608.084839 1456.811279,1564.627197 
	C1479.540649,1514.574707 1509.696289,1469.110840 1543.170288,1425.709473 
	C1557.617798,1406.977173 1571.810303,1388.047852 1586.091675,1369.187744 
	C1611.921021,1335.077637 1629.720703,1296.863892 1643.529907,1256.619507 
	C1644.502319,1253.785645 1645.515625,1250.941284 1646.163330,1248.024780 
	C1650.116577,1230.223022 1663.631226,1223.904297 1679.385254,1220.596313 
	C1687.002075,1218.996948 1692.975952,1223.241699 1694.303711,1231.589722 
	C1695.974243,1242.092896 1697.030029,1252.726685 1697.730713,1263.345215 
	C1700.204468,1300.836426 1695.923096,1337.870117 1689.316406,1374.675415 
	C1679.573364,1428.953491 1664.320068,1481.649902 1642.877563,1532.488037 
	C1614.417603,1599.963989 1575.998413,1661.269653 1528.291626,1716.800293 
	C1487.019897,1764.840454 1440.401123,1806.937256 1388.164917,1842.749512 
	C1376.630859,1850.656860 1364.618652,1857.867310 1352.812256,1865.375854 
	C1351.691284,1866.088867 1350.518188,1866.776245 1349.280884,1867.238770 
	C1345.716797,1868.571289 1341.504028,1869.619263 1339.285522,1866.001709 
	C1337.812866,1863.600342 1337.817017,1859.631226 1338.554810,1856.716919 
	C1339.336914,1853.627075 1341.816406,1850.982056 1343.472778,1848.095825 
	C1353.414307,1830.772217 1363.332153,1813.435181 1373.568604,1795.419678 
z"/>
<path fill="#8CB748" opacity="1.000000" stroke="none" 
	d="
M1124.401245,1960.461914 
	C1090.810669,1968.349976 1057.711304,1974.511108 1024.064087,1976.128906 
	C993.480530,1977.599609 962.755554,1978.878296 932.201782,1977.612183 
	C879.146057,1975.413818 827.007080,1966.144531 775.906494,1951.575684 
	C715.437683,1934.336060 657.590088,1910.656250 602.952515,1879.463135 
	C595.273560,1875.079102 588.567932,1868.822510 581.930298,1862.855713 
	C578.781128,1860.025024 576.317871,1855.856812 579.505737,1851.263428 
	C582.300293,1847.236938 586.206177,1846.644409 590.961304,1847.270508 
	C610.740906,1849.875610 630.509094,1853.211426 650.387207,1854.243774 
	C670.283875,1855.276978 690.356384,1854.662354 710.262146,1853.378906 
	C740.823547,1851.408447 771.285217,1847.937012 801.831726,1845.677856 
	C833.372498,1843.345215 864.941101,1841.108765 896.538391,1839.879395 
	C959.510315,1837.429565 1021.424438,1845.886108 1082.882812,1858.986938 
	C1122.587280,1867.450562 1162.402588,1875.461914 1202.342163,1882.718750 
	C1216.998413,1885.381836 1232.154785,1885.293457 1247.083618,1886.453979 
	C1253.722412,1886.969971 1260.407959,1887.143311 1266.990601,1888.058838 
	C1275.725220,1889.273560 1278.805786,1895.253662 1273.546997,1902.135010 
	C1270.079834,1906.672119 1264.958252,1910.702881 1259.717773,1912.994263 
	C1238.370850,1922.328125 1217.017456,1931.835815 1195.046265,1939.501587 
	C1172.139160,1947.493896 1148.518433,1953.440918 1124.401245,1960.461914 
z"/>
<path fill="#8BB647" opacity="1.000000" stroke="none" 
	d="
M561.294312,832.927490 
	C519.264404,873.422485 486.944214,920.000061 461.909912,971.712219 
	C446.099701,1004.370544 430.582336,1037.175903 415.366394,1070.115234 
	C394.662872,1114.934326 371.019775,1158.070068 344.722137,1199.875977 
	C323.986053,1232.840698 304.434570,1266.569458 285.044586,1300.353638 
	C275.602692,1316.804688 268.032410,1334.277588 262.921234,1352.685669 
	C262.125854,1355.550415 260.998138,1358.381470 259.610077,1361.009277 
	C257.577789,1364.856689 254.258011,1366.803589 249.760010,1366.460449 
	C245.154663,1366.109009 242.327667,1363.509399 241.325287,1359.219482 
	C240.041016,1353.723511 238.994324,1348.157959 238.144470,1342.576782 
	C231.751968,1300.595459 230.723633,1258.327393 232.446594,1216.013672 
	C234.195053,1173.074097 237.771194,1130.292603 248.775253,1088.501831 
	C262.036865,1038.137451 286.419281,994.087585 323.353851,957.169739 
	C354.403107,926.134460 388.513977,898.958435 427.597015,878.831360 
	C466.658661,858.715393 506.435730,839.986633 545.959473,820.773804 
	C549.192688,819.202209 552.873352,817.833740 556.376587,817.756775 
	C559.303650,817.692444 563.194458,818.898743 564.917786,820.982239 
	C566.152771,822.475281 564.700806,826.389465 564.068481,829.136169 
	C563.794800,830.325195 562.566284,831.294373 561.294312,832.927490 
z"/>
<path fill="#8CB647" opacity="1.000000" stroke="none" 
	d="
M270.868958,1411.111084 
	C275.190979,1386.794312 283.537994,1364.724121 293.479706,1343.210938 
	C312.656097,1301.714111 336.067017,1262.555664 359.711853,1223.523926 
	C367.302460,1210.993774 374.531281,1198.244751 381.945374,1185.607422 
	C383.123657,1183.599121 384.226929,1181.506836 385.681427,1179.709473 
	C388.224792,1176.566650 391.114044,1173.321289 395.707367,1175.221680 
	C399.704956,1176.875732 400.286346,1180.736938 399.894653,1184.543823 
	C399.316467,1190.163574 398.571716,1195.774292 397.665344,1201.350952 
	C388.048096,1260.525513 392.633545,1318.676270 409.033142,1376.244019 
	C415.312286,1398.285889 420.161102,1420.787720 424.534607,1443.298950 
	C426.931610,1455.636597 427.982819,1468.436890 427.903534,1481.017700 
	C427.637024,1523.304565 426.300262,1565.584229 425.966766,1607.871460 
	C425.804199,1628.488770 426.684174,1649.128296 427.595245,1669.735474 
	C428.395447,1687.834717 433.447266,1705.134399 438.872803,1722.302246 
	C440.276520,1726.744141 441.601349,1731.210938 442.975830,1735.662109 
	C444.351562,1740.117065 444.491241,1744.587769 440.159149,1747.297363 
	C435.833771,1750.002441 431.694733,1747.839966 428.327057,1744.854126 
	C424.598206,1741.548096 420.951324,1738.075928 417.726318,1734.286621 
	C373.521423,1682.345947 334.472870,1626.905151 304.853119,1565.266113 
	C290.420197,1535.231201 277.972717,1504.433838 271.219666,1471.510254 
	C267.124817,1451.546753 267.856110,1431.832642 270.868958,1411.111084 
z"/>
<path fill="#8CB748" opacity="1.000000" stroke="none" 
	d="
M743.387939,1827.577148 
	C720.525391,1828.968140 698.602478,1830.816406 676.643494,1831.494141 
	C634.141541,1832.806152 592.193542,1827.987671 550.862427,1818.064819 
	C532.584839,1813.676636 515.423523,1806.716919 500.173279,1795.327759 
	C487.402130,1785.790283 479.359711,1773.082275 473.701843,1758.542725 
	C466.028778,1738.824097 462.395386,1718.182617 460.080017,1697.296143 
	C455.805298,1658.734131 457.848785,1620.117676 459.142487,1581.485352 
	C459.654175,1566.204590 458.351898,1550.864746 457.939087,1535.550049 
	C457.858704,1532.567871 457.528717,1529.435181 458.266144,1526.621582 
	C459.688416,1521.194580 465.226471,1519.970947 469.040649,1524.093994 
	C470.591736,1525.770630 471.714569,1527.907227 472.771454,1529.968262 
	C497.606964,1578.399902 532.342468,1619.024292 572.621704,1655.019897 
	C610.474670,1688.847046 651.127563,1719.108643 695.428406,1743.995239 
	C741.862732,1770.080200 791.235229,1788.914795 843.444153,1800.016113 
	C846.677551,1800.703735 850.109558,1801.396240 852.870605,1803.051270 
	C854.878601,1804.255005 857.287354,1807.203735 857.074219,1809.099976 
	C856.795471,1811.579834 854.526794,1814.378418 852.331726,1815.940308 
	C850.337036,1817.359741 847.323853,1817.611938 844.710693,1817.858032 
	C814.219666,1820.728271 783.718506,1823.489380 753.223267,1826.314697 
	C750.241394,1826.591064 747.281372,1827.103149 743.387939,1827.577148 
z"/>
<path fill="#8CB748" opacity="1.000000" stroke="none" 
	d="
M1251.912842,1864.566895 
	C1219.685547,1865.076416 1189.406860,1858.629761 1159.115112,1852.043823 
	C1121.389160,1843.841431 1083.587646,1835.987305 1045.830200,1827.928467 
	C1042.260010,1827.166504 1038.360107,1826.684570 1035.374756,1824.839966 
	C1032.910156,1823.316772 1030.602173,1820.189575 1029.965210,1817.378662 
	C1029.037231,1813.283081 1032.136353,1810.357910 1035.927368,1809.362183 
	C1040.399658,1808.187866 1045.078369,1807.776123 1049.680298,1807.122925 
	C1083.892456,1802.267090 1116.274780,1791.019165 1148.328979,1778.716431 
	C1216.754272,1752.454102 1278.614014,1714.832153 1335.641968,1669.149170 
	C1354.864502,1653.750366 1373.042358,1637.048096 1391.711426,1620.957520 
	C1394.484741,1618.567139 1397.131104,1615.946167 1400.194458,1613.994141 
	C1405.467773,1610.633545 1410.270020,1613.355469 1410.321045,1619.609253 
	C1410.336792,1621.543457 1409.761841,1623.562134 1409.094116,1625.411011 
	C1392.694092,1670.817627 1376.475586,1716.291870 1359.700195,1761.559692 
	C1352.176636,1781.861328 1343.283447,1801.598267 1331.587280,1819.986450 
	C1313.213013,1848.873413 1287.754517,1864.930298 1251.912842,1864.566895 
z"/>
<path fill="#6F9C44" opacity="1.000000" stroke="none" 
	d="
M534.901855,194.946991 
	C540.340149,213.097519 545.724365,231.264465 551.231750,249.394028 
	C556.939941,268.184753 562.772766,286.937622 568.534424,305.712189 
	C569.106934,307.577820 569.563354,309.479095 570.448853,312.749329 
	C559.119507,316.157867 548.179199,319.449371 535.920654,323.137451 
	C516.756042,259.566132 497.811310,196.724258 478.592590,132.973557 
	C488.211761,129.867950 496.700104,127.163330 505.162720,124.380432 
	C509.583923,122.926552 511.966095,126.001610 514.572021,128.497345 
	C538.873047,151.770386 563.174805,175.042709 587.420532,198.373276 
	C595.536072,206.182495 603.490845,214.158768 612.896118,223.413681 
	C614.755005,214.940002 616.391663,208.049210 617.768799,201.106918 
	C625.150818,163.891937 632.608643,126.690643 639.652771,89.411400 
	C640.676941,83.990845 642.781067,81.285324 648.042969,79.999847 
	C655.746216,78.117928 663.293213,75.596245 672.196533,72.966225 
	C692.511597,135.149658 712.008606,196.876556 731.979126,259.597015 
	C721.278320,264.189545 710.258972,267.294006 698.237427,270.966888 
	C696.771423,267.255371 695.270935,264.055695 694.225220,260.713745 
	C686.074768,234.665573 678.105164,208.560440 669.872681,182.538422 
	C666.849487,172.982666 663.267944,163.603592 659.401794,152.610733 
	C657.594238,155.527939 656.529236,156.533875 656.314575,157.696777 
	C650.035461,191.714401 643.794556,225.739334 637.684143,259.787598 
	C636.785461,264.795044 635.093262,268.540680 629.462036,269.447693 
	C623.567261,270.397095 618.288269,274.241547 612.185120,267.913361 
	C591.376709,246.337494 569.893738,225.411713 548.637024,204.269196 
	C545.097473,200.748718 541.402039,197.384964 536.862305,193.230988 
	C535.597900,193.324478 535.249878,194.135727 534.901855,194.946991 
z"/>
<path fill="#6B9B41" opacity="1.000000" stroke="none" 
	d="
M799.191284,1372.825928 
	C781.748413,1350.492065 764.733704,1328.729614 747.791504,1306.910767 
	C747.065369,1305.975586 747.008179,1304.520996 746.353638,1302.369019 
	C749.796875,1302.074219 752.615234,1301.627563 755.434326,1301.622925 
	C785.402283,1301.573486 815.371216,1301.704590 845.337769,1301.491089 
	C850.544189,1301.454102 853.809631,1303.175659 857.040283,1307.266357 
	C903.671997,1366.310303 950.492432,1425.205322 997.231628,1484.164429 
	C999.844177,1487.460205 1002.143494,1491.004272 1005.466370,1495.663330 
	C1001.440063,1496.123657 998.983154,1496.643555 996.525085,1496.649414 
	C966.223694,1496.720825 935.920410,1496.556152 905.622070,1496.874878 
	C899.845032,1496.935669 896.564819,1494.577637 893.220947,1490.376587 
	C862.120850,1451.303711 830.852478,1412.364624 799.191284,1372.825928 
z"/>
<path fill="#709C44" opacity="1.000000" stroke="none" 
	d="
M1607.624023,315.559204 
	C1620.197998,294.392120 1632.426025,273.870697 1645.123169,252.561890 
	C1655.678345,258.951477 1665.288452,264.768921 1676.053345,271.285492 
	C1643.036987,328.299164 1610.269287,384.883545 1576.968628,442.388245 
	C1568.473145,437.254974 1560.354736,432.799652 1552.812500,427.521057 
	C1550.515747,425.913696 1548.932373,422.163391 1548.505371,419.182068 
	C1544.256836,389.523773 1540.246216,359.830566 1536.317505,330.127502 
	C1533.349487,307.687866 1530.607056,285.218475 1527.717041,262.768402 
	C1527.606934,261.912598 1527.003540,261.120239 1526.018433,258.952789 
	C1513.178345,277.477417 1503.427368,296.621460 1492.431274,314.980774 
	C1481.501831,333.228424 1470.982544,351.721680 1459.558960,371.352081 
	C1448.903320,365.106445 1438.752319,359.156586 1427.658325,352.653992 
	C1461.069946,295.814423 1494.058228,239.695206 1527.449219,182.890915 
	C1536.233032,187.902908 1544.149536,192.063263 1551.620239,196.910736 
	C1553.728638,198.278732 1555.440552,201.533752 1555.796509,204.133835 
	C1560.673218,239.754501 1565.258057,275.415009 1569.963135,311.059296 
	C1572.141357,327.561005 1574.410522,344.050842 1576.700806,360.537384 
	C1576.827148,361.446808 1577.525635,362.276733 1578.546509,364.324097 
	C1589.764282,348.642731 1597.556396,331.823456 1607.624023,315.559204 
z"/>
<path fill="#709C44" opacity="1.000000" stroke="none" 
	d="
M306.700195,218.633942 
	C324.224213,207.010178 342.513092,199.272568 362.971985,198.065094 
	C398.613586,195.961533 427.488708,209.716721 449.060760,237.680542 
	C471.850372,267.222748 479.638611,300.833954 467.761017,336.539795 
	C454.330109,376.915070 424.259552,399.555420 382.719269,405.850098 
	C319.866638,415.374268 272.270691,365.359161 265.838928,312.420654 
	C261.129944,273.662323 275.612885,242.814545 306.700195,218.633942 
M415.987549,257.082642 
	C412.694489,253.786530 409.656982,250.177383 406.066101,247.246155 
	C385.910675,230.793152 363.455475,226.923340 339.823914,237.920029 
	C315.892670,249.056183 301.917206,267.883209 301.975037,295.220184 
	C302.033661,322.943054 314.439941,344.896454 336.338959,360.780823 
	C373.417023,387.675262 426.004456,366.432129 434.508179,321.471436 
	C438.996216,297.742554 431.836151,276.756073 415.987549,257.082642 
z"/>
<path fill="#6F9C44" opacity="1.000000" stroke="none" 
	d="
M782.132202,56.221031 
	C801.938110,54.459770 820.832153,52.777367 839.721741,51.047253 
	C854.161926,49.724659 868.228455,51.211582 882.048218,55.791317 
	C918.707275,67.939674 927.851257,99.315598 925.018738,126.220116 
	C921.963501,155.239090 904.676270,174.531967 875.385559,181.694687 
	C861.572449,185.072571 847.181946,186.145111 833.021606,188.025269 
	C825.490662,189.025192 817.892456,189.519379 809.080261,190.360641 
	C811.077576,210.794540 813.004883,230.512878 814.926208,250.169815 
	C807.934509,253.701080 790.927063,256.193695 777.662842,255.387711 
	C771.587219,190.242462 765.490845,124.875549 759.325684,58.770546 
	C767.499939,57.840393 774.359131,57.059879 782.132202,56.221031 
M888.044312,124.123604 
	C888.947693,96.792587 875.303162,82.607216 847.811218,82.670799 
	C841.179993,82.686134 834.544983,83.559013 827.922241,84.154572 
	C818.717957,84.982292 809.523682,85.920403 799.366821,86.904068 
	C800.902405,110.953812 803.209045,134.180496 806.173645,157.816422 
	C817.604919,156.779633 827.837463,155.973480 838.039917,154.885986 
	C845.628906,154.077087 853.349609,153.585480 860.709778,151.745316 
	C874.438965,148.312805 884.985840,140.923782 888.044312,124.123604 
z"/>
<path fill="#709C44" opacity="1.000000" stroke="none" 
	d="
M1307.599121,159.584351 
	C1321.863892,143.324509 1335.665405,127.603668 1349.516479,111.826263 
	C1360.061768,115.233650 1369.789307,118.611931 1379.669556,121.460648 
	C1383.987915,122.705727 1385.312744,125.137047 1385.689331,129.296616 
	C1387.640259,150.843964 1389.802246,172.372345 1391.926147,193.903839 
	C1395.651489,231.670212 1399.427368,269.431610 1403.126465,307.200531 
	C1404.160156,317.754608 1404.999634,328.327728 1406.050537,340.284424 
	C1392.824585,335.808899 1380.734497,331.717712 1368.498169,327.577057 
	C1367.515015,313.803467 1366.367188,300.888031 1365.761719,287.947235 
	C1365.442993,281.136139 1362.981567,277.453888 1356.034790,275.214050 
	C1329.475830,266.650726 1303.153198,257.354248 1276.307007,248.182800 
	C1266.030640,260.237885 1255.942383,272.072296 1245.686401,284.103577 
	C1233.725464,279.897034 1222.506470,275.951416 1209.848511,271.499756 
	C1242.859253,233.708344 1274.997559,196.915848 1307.599121,159.584351 
M1312.020386,227.022202 
	C1328.291260,232.568665 1344.562012,238.115128 1362.084961,244.088409 
	C1359.676147,214.032852 1357.381714,185.406311 1354.874390,154.122421 
	C1335.595947,177.973068 1316.859619,199.050034 1298.878418,222.087769 
	C1303.797607,223.917358 1307.184937,225.177170 1312.020386,227.022202 
z"/>
<path fill="#709D45" opacity="1.000000" stroke="none" 
	d="
M150.534271,477.442291 
	C163.543243,490.177399 177.981812,498.720306 195.780182,499.942139 
	C231.674942,502.406342 260.693878,478.530701 265.631683,442.811340 
	C265.986908,440.241913 266.267303,437.662079 266.714569,434.007904 
	C277.614075,434.747772 288.073212,435.457764 299.383087,436.225494 
	C299.924316,451.686249 297.456421,465.958801 290.091492,478.874756 
	C269.388458,515.182007 238.754929,536.452087 196.119568,535.999390 
	C153.390884,535.545715 122.731705,513.463074 103.564987,476.574158 
	C68.344765,408.788055 114.598038,341.495392 173.028931,329.071045 
	C183.448410,326.855530 198.124847,327.023376 208.829742,329.969849 
	C207.939987,340.151031 207.028107,350.585388 206.083054,361.399384 
	C201.694244,361.399384 198.104416,361.472015 194.518250,361.388367 
	C146.706833,360.273285 115.087364,405.829041 132.952347,450.150604 
	C136.974716,460.129791 142.528214,469.164276 150.534271,477.442291 
z"/>
<path fill="#709C45" opacity="1.000000" stroke="none" 
	d="
M1736.592896,317.481445 
	C1775.026367,349.347534 1812.915527,380.761780 1851.546753,412.791382 
	C1844.453979,421.550140 1838.018677,429.496857 1830.690796,438.545868 
	C1814.679688,425.041229 1799.042236,411.851807 1782.429321,397.839600 
	C1746.237549,438.498749 1713.912964,481.999512 1677.764404,523.971863 
	C1668.504517,516.405518 1659.358032,508.931915 1649.111938,500.559784 
	C1683.599121,458.124969 1717.921753,416.375671 1753.579834,374.143097 
	C1736.894775,360.175629 1720.927612,346.809143 1704.237915,332.837891 
	C1711.276611,324.355133 1717.804810,316.487457 1724.828247,308.023102 
	C1728.899902,311.291443 1732.474121,314.160522 1736.592896,317.481445 
z"/>
<path fill="#709C45" opacity="1.000000" stroke="none" 
	d="
M1025.559814,248.206512 
	C1006.805725,246.638062 988.977173,245.125137 970.047241,243.518753 
	C975.057312,178.010651 979.992920,113.476143 985.003479,47.961803 
	C997.368164,48.879761 1008.827026,49.730473 1021.411011,50.664707 
	C1017.492920,105.019981 1013.626953,158.652512 1009.667664,213.580154 
	C1043.811157,216.747818 1077.420532,219.865906 1112.233276,223.095642 
	C1111.484741,233.967621 1110.786011,244.118088 1109.997559,255.571396 
	C1081.760010,253.667282 1054.127808,250.892487 1025.559814,248.206512 
z"/>
<path fill="#8CB74A" opacity="1.000000" stroke="none" 
	d="
M1447.911621,684.093872 
	C1457.948853,693.866882 1467.505249,703.127930 1476.879883,712.569336 
	C1479.675537,715.384888 1482.088989,718.612915 1484.443115,721.823914 
	C1486.448242,724.559021 1488.045044,727.609192 1485.862549,731.015564 
	C1483.677002,734.427002 1480.315063,734.221619 1476.943604,733.501709 
	C1474.670166,733.016296 1472.459106,732.243530 1470.191284,731.725159 
	C1450.439209,727.209473 1430.819092,721.942566 1410.892822,718.400940 
	C1377.232666,712.418396 1351.579346,695.859924 1335.844360,665.102966 
	C1325.092163,644.085938 1314.554688,622.958374 1304.041992,601.820129 
	C1301.453735,596.615662 1303.607544,591.905518 1309.261719,592.021729 
	C1314.676392,592.133118 1320.745361,593.273682 1325.314941,595.995972 
	C1345.869263,608.241211 1366.730957,620.190125 1386.072266,634.192932 
	C1407.307007,649.566711 1426.997559,667.073547 1447.911621,684.093872 
z"/>
<path fill="#8CB64A" opacity="1.000000" stroke="none" 
	d="
M1613.653320,1271.567139 
	C1599.486206,1310.884277 1578.875854,1345.634521 1553.280029,1377.521729 
	C1547.035034,1385.301636 1540.639160,1392.962036 1534.223267,1400.602295 
	C1532.519043,1402.631592 1530.765015,1404.912109 1528.517944,1406.107056 
	C1526.425781,1407.219360 1523.120972,1408.067383 1521.316528,1407.143677 
	C1519.473145,1406.199951 1518.092285,1403.042603 1517.818604,1400.701294 
	C1517.529785,1398.230713 1518.563110,1395.502808 1519.407959,1393.019531 
	C1524.804810,1377.153809 1527.416016,1360.850586 1528.164429,1344.115601 
	C1529.085083,1323.527222 1530.471802,1302.956177 1531.942993,1282.398193 
	C1532.271118,1277.812134 1533.407349,1273.187378 1534.832642,1268.794922 
	C1538.664307,1256.986206 1545.892456,1249.801270 1559.373901,1249.315430 
	C1573.636963,1248.801636 1587.846069,1246.836426 1602.083984,1245.563110 
	C1614.689331,1244.435547 1619.293091,1249.819946 1616.306396,1262.170898 
	C1615.603882,1265.075439 1614.693970,1267.929810 1613.653320,1271.567139 
z"/>
<path fill="#709C45" opacity="1.000000" stroke="none" 
	d="
M1193.941895,196.010468 
	C1189.558350,220.397232 1185.275879,243.924713 1180.785400,268.595062 
	C1168.218628,267.665985 1156.572876,264.699707 1144.181641,261.613464 
	C1155.922363,197.443359 1167.519653,134.057449 1179.304810,69.644028 
	C1191.409546,70.228699 1202.390869,73.749054 1214.793945,76.001678 
	C1208.943481,116.274574 1200.785645,155.596848 1193.941895,196.010468 
z"/>
<path fill="#F7FBF1" opacity="1.000000" stroke="none" 
	d="
M956.322693,1197.943726 
	C957.218384,1193.356079 958.685303,1188.810181 960.152222,1184.264282 
	C960.697205,1184.371094 961.242188,1184.477905 961.787170,1184.584717 
	C961.116577,1188.597046 960.446045,1192.609253 959.479370,1197.338135 
	C958.420166,1198.031738 957.657104,1198.008667 956.322693,1197.943726 
z"/>
<path fill="#F9FCF5" opacity="1.000000" stroke="none" 
	d="
M1668.802979,851.919250 
	C1669.067993,850.999146 1669.333130,850.079041 1670.451416,848.434326 
	C1672.213745,847.529053 1673.122803,847.348389 1674.031982,847.167725 
	C1676.194214,847.325500 1678.356323,847.483276 1681.756714,847.607300 
	C1682.994873,847.573486 1683.896240,847.347961 1683.896240,847.347961 
	C1684.534180,847.899597 1685.172241,848.451172 1686.043945,850.004272 
	C1686.277710,851.005798 1686.569458,851.916565 1686.569336,851.916565 
	C1686.449219,858.058899 1686.329102,864.201294 1686.194580,872.079163 
	C1686.180176,877.284546 1686.180176,880.754333 1686.180176,885.060669 
	C1701.409912,885.134155 1715.345459,885.591492 1729.471558,884.854614 
	C1729.471558,876.365295 1729.471558,869.173035 1729.471558,861.980835 
	C1729.580200,861.068420 1729.688721,860.155945 1729.807251,857.945923 
	C1729.696777,855.801941 1729.576416,854.955505 1729.456177,854.109131 
	C1729.273438,847.628479 1733.670166,847.408325 1739.835327,847.566284 
	C1742.206055,847.424561 1743.104736,847.309998 1744.003540,847.195374 
	C1744.715210,850.612793 1745.795288,854.002991 1746.050537,857.454224 
	C1746.415161,862.384827 1746.176147,867.360046 1746.178955,874.125610 
	C1746.331909,883.224976 1746.500732,890.514954 1746.669678,897.804932 
	C1746.563477,910.771301 1746.457153,923.737671 1745.347900,937.706177 
	C1739.513306,938.607422 1734.681763,938.506653 1729.850220,938.405884 
	C1729.850220,938.405884 1729.935425,938.165100 1729.863281,937.198853 
	C1729.791138,924.461060 1729.791138,912.689636 1729.791138,900.076294 
	C1715.284180,900.076294 1701.860229,900.049683 1688.437378,900.159607 
	C1687.806885,900.164734 1687.186279,901.385620 1686.561035,902.040283 
	C1686.421875,904.189331 1686.282593,906.338318 1686.128784,910.096497 
	C1686.236084,914.474609 1686.357788,917.243530 1686.479614,920.012451 
	C1686.326050,925.441345 1686.172485,930.870178 1685.140869,937.384155 
	C1679.455200,938.543884 1674.647583,938.618530 1669.839844,938.693237 
	C1669.707031,937.640259 1669.574097,936.587280 1669.449707,933.858887 
	C1669.530029,912.009277 1669.677612,891.834778 1669.630859,871.660828 
	C1669.615601,865.079651 1669.093262,858.499756 1668.802979,851.919250 
z"/>
<path fill="#F7FBF1" opacity="1.000000" stroke="none" 
	d="
M1778.699219,895.645264 
	C1767.652100,890.494751 1763.394287,882.067627 1764.453979,871.028870 
	C1765.520874,859.914429 1772.088013,852.774292 1782.416016,849.309875 
	C1798.763794,843.826111 1814.348022,845.419189 1829.604126,855.205200 
	C1827.739136,859.487854 1826.063477,863.335754 1824.830933,866.166016 
	C1815.116089,864.507568 1806.463989,862.732788 1797.724487,861.697510 
	C1794.595947,861.326843 1791.122681,862.361511 1788.045166,863.436951 
	C1783.969116,864.861389 1781.632080,868.016907 1781.471436,872.527466 
	C1781.306763,877.156067 1783.750122,880.180420 1787.779175,881.712341 
	C1792.425537,883.478943 1797.276855,884.701233 1802.017090,886.227966 
	C1808.014526,888.159607 1814.161621,889.754395 1819.942627,892.205811 
	C1837.989624,899.858398 1837.331909,923.993286 1822.356567,933.641602 
	C1810.928345,941.004517 1798.407837,941.102722 1785.744507,939.114075 
	C1777.213257,937.774353 1768.909424,935.257324 1762.222900,927.735657 
	C1763.825562,924.117310 1765.523071,920.284668 1767.048828,916.840088 
	C1776.171875,919.751160 1784.467651,923.110901 1793.089844,924.874268 
	C1798.032349,925.884949 1803.593750,924.753784 1808.711548,923.747925 
	C1812.938721,922.917114 1816.149170,919.531311 1815.527466,915.162842 
	C1815.070679,911.953491 1812.964478,908.334595 1810.468506,906.235779 
	C1807.822754,904.010925 1803.912231,903.160278 1800.439819,902.075500 
	C1793.467041,899.897095 1786.416504,897.967896 1778.699219,895.645264 
z"/>
<path fill="#F8FBF3" opacity="1.000000" stroke="none" 
	d="
M1626.651611,939.418884 
	C1620.758179,939.618896 1615.304199,940.190308 1610.188599,939.129944 
	C1591.049683,935.162476 1580.253540,918.779846 1583.159058,898.945251 
	C1585.977661,879.703857 1600.765259,867.826660 1620.357056,869.259033 
	C1632.288818,870.131409 1642.082642,875.005371 1649.400635,886.476807 
	C1656.496216,900.802856 1654.511475,913.539490 1648.169067,926.062805 
	C1642.474854,932.452515 1635.592896,936.927429 1626.651611,939.418884 
M1612.315674,884.107056 
	C1603.705078,887.104736 1600.075806,893.878113 1598.875366,902.273132 
	C1597.200317,913.987915 1605.421143,924.864563 1616.516968,925.898499 
	C1627.637207,926.934814 1636.642334,918.795959 1637.670410,906.780273 
	C1638.947266,891.857422 1629.747314,882.943176 1612.315674,884.107056 
z"/>
<path fill="#7DA84A" opacity="1.000000" stroke="none" 
	d="
M1649.018555,926.045593 
	C1654.511475,913.539490 1656.496216,900.802856 1649.922607,886.889099 
	C1655.760254,881.230774 1656.548340,873.550842 1659.925415,867.264526 
	C1662.572754,862.336487 1665.068237,857.326843 1668.217041,852.136353 
	C1669.093262,858.499756 1669.615601,865.079651 1669.630859,871.660828 
	C1669.677612,891.834778 1669.530029,912.009277 1669.224609,933.095703 
	C1667.527344,931.354553 1666.063599,928.701294 1664.181885,925.290710 
	C1660.138062,925.499084 1655.003052,925.763733 1649.018555,926.045593 
z"/>
<path fill="#7DA84A" opacity="1.000000" stroke="none" 
	d="
M1728.781982,862.098022 
	C1729.471558,869.173035 1729.471558,876.365295 1729.471558,884.854614 
	C1715.345459,885.591492 1701.409912,885.134155 1686.180176,885.060669 
	C1686.180176,880.754333 1686.180176,877.284546 1686.374512,872.985107 
	C1687.364258,874.939026 1688.159546,877.722534 1689.168579,881.253906 
	C1700.237183,881.253906 1711.525269,881.253906 1722.955688,881.253906 
	C1725.445679,874.823242 1717.388306,865.851562 1728.781982,862.098022 
z"/>
<path fill="#7DA84A" opacity="1.000000" stroke="none" 
	d="
M1687.457886,902.031494 
	C1687.186279,901.385620 1687.806885,900.164734 1688.437378,900.159607 
	C1701.860229,900.049683 1715.284180,900.076294 1729.791138,900.076294 
	C1729.791138,912.689636 1729.791138,924.461060 1729.737305,937.177002 
	C1728.464600,936.455078 1726.190430,934.777710 1726.207642,933.124268 
	C1726.285645,925.623535 1727.049683,918.131836 1727.479248,910.631958 
	C1727.621704,908.145203 1727.501831,905.643372 1727.501831,902.022705 
	C1713.854980,902.022705 1701.104858,902.022705 1687.457886,902.031494 
z"/>
<path fill="#7DA84A" opacity="1.000000" stroke="none" 
	d="
M1670.121582,939.375244 
	C1674.647583,938.618530 1679.455200,938.543884 1685.146484,938.292725 
	C1681.832397,942.973938 1678.919067,943.335754 1670.121582,939.375244 
z"/>
<path fill="#7DA84A" opacity="1.000000" stroke="none" 
	d="
M1730.094116,939.116028 
	C1734.681763,938.506653 1739.513306,938.607422 1745.250488,938.680237 
	C1741.260986,942.912292 1737.759155,943.172180 1730.094116,939.116028 
z"/>
<path fill="#7DA84A" opacity="1.000000" stroke="none" 
	d="
M1747.106934,897.152466 
	C1746.500732,890.514954 1746.331909,883.224976 1746.357178,875.045166 
	C1746.882324,881.603638 1747.213257,889.051819 1747.106934,897.152466 
z"/>
<path fill="#7DA84A" opacity="1.000000" stroke="none" 
	d="
M1687.116699,919.861816 
	C1686.357788,917.243530 1686.236084,914.474609 1686.297852,910.891357 
	C1690.246948,912.847046 1691.762451,915.914307 1687.116699,919.861816 
z"/>
<path fill="#7DA84A" opacity="1.000000" stroke="none" 
	d="
M1743.893555,846.695251 
	C1743.104736,847.309998 1742.206055,847.424561 1740.647217,847.353577 
	C1740.703857,844.701965 1741.667847,843.200806 1743.893555,846.695251 
z"/>
<path fill="#7DA84A" opacity="1.000000" stroke="none" 
	d="
M1673.957031,846.666260 
	C1673.122803,847.348389 1672.213745,847.529053 1670.605469,847.729492 
	C1670.276367,846.701965 1670.646240,845.654541 1671.490234,844.292603 
	C1672.603638,844.707031 1673.242798,845.435913 1673.957031,846.666260 
z"/>
<path fill="#7DA84A" opacity="1.000000" stroke="none" 
	d="
M1729.104004,854.414429 
	C1729.576416,854.955505 1729.696777,855.801941 1729.642334,857.271729 
	C1729.229004,856.836670 1728.990479,855.778198 1729.104004,854.414429 
z"/>
<path fill="#7DA84A" opacity="1.000000" stroke="none" 
	d="
M1683.722656,847.118042 
	C1683.896240,847.347961 1682.994873,847.573486 1682.554688,847.424744 
	C1682.498291,846.695312 1682.976562,846.566040 1683.722656,847.118042 
z"/>
<path fill="#7DA84A" opacity="1.000000" stroke="none" 
	d="
M1686.813477,851.726318 
	C1686.569458,851.916565 1686.277710,851.005798 1686.385742,850.540039 
	C1687.176270,850.409851 1687.364258,850.897156 1686.813477,851.726318 
z"/>
<path fill="#F9FCF5" opacity="1.000000" stroke="none" 
	d="
M1570.028931,881.565430 
	C1569.344116,894.180908 1562.581177,901.919617 1552.092529,908.132141 
	C1558.705811,918.045166 1565.077393,927.595581 1571.495239,937.215576 
	C1559.613525,941.656982 1555.376587,940.369202 1549.151123,930.738647 
	C1545.723022,925.435791 1542.541382,919.938660 1538.690308,914.960999 
	C1537.098389,912.903137 1534.146484,910.996887 1531.633423,910.733093 
	C1525.761963,910.116760 1519.781738,910.536194 1512.677979,910.536194 
	C1512.677979,919.995972 1512.677979,928.780212 1512.677979,938.279907 
	C1506.728638,938.279907 1501.947144,938.279907 1496.349854,938.279907 
	C1496.349854,908.391907 1496.349854,878.696777 1496.349854,847.729431 
	C1512.653442,848.234558 1528.895874,846.060120 1544.896484,848.994568 
	C1562.367798,852.198792 1569.561401,862.012756 1570.028931,881.565430 
M1544.517090,894.374695 
	C1552.728027,890.544189 1555.013916,883.647644 1553.756836,875.385193 
	C1552.691406,868.383362 1547.992554,863.918152 1541.269165,862.780701 
	C1531.875854,861.191589 1522.361450,861.759216 1512.888184,862.602966 
	C1512.888184,874.178955 1512.888184,884.658203 1512.888184,896.586975 
	C1523.339966,896.029480 1533.156860,895.505859 1544.517090,894.374695 
z"/>
<path fill="#FEFEFD" opacity="1.000000" stroke="none" 
	d="
M535.320435,194.590240 
	C535.249878,194.135727 535.597900,193.324478 536.235596,192.988678 
	C536.263184,193.720581 536.001099,193.977051 535.320435,194.590240 
z"/>
<path fill="#FDFDFB" opacity="1.000000" stroke="none" 
	d="
M416.457031,257.623718 
	C431.836151,276.756073 438.996216,297.742554 434.508179,321.471436 
	C426.004456,366.432129 373.417023,387.675262 336.338959,360.780823 
	C314.439941,344.896454 302.033661,322.943054 301.975037,295.220184 
	C301.917206,267.883209 315.892670,249.056183 339.823914,237.920029 
	C363.455475,226.923340 385.910675,230.793152 406.066101,247.246155 
	C409.656982,250.177383 412.694489,253.786530 416.457031,257.623718 
z"/>
<path fill="#FCFDFA" opacity="1.000000" stroke="none" 
	d="
M887.942871,124.968933 
	C884.985840,140.923782 874.438965,148.312805 860.709778,151.745316 
	C853.349609,153.585480 845.628906,154.077087 838.039917,154.885986 
	C827.837463,155.973480 817.604919,156.779633 806.173645,157.816422 
	C803.209045,134.180496 800.902405,110.953812 799.366821,86.904068 
	C809.523682,85.920403 818.717957,84.982292 827.922241,84.154572 
	C834.544983,83.559013 841.179993,82.686134 847.811218,82.670799 
	C875.303162,82.607216 888.947693,96.792587 887.942871,124.968933 
z"/>
<path fill="#F9FCF5" opacity="1.000000" stroke="none" 
	d="
M1311.296265,226.729584 
	C1307.184937,225.177170 1303.797607,223.917358 1298.878418,222.087769 
	C1316.859619,199.050034 1335.595947,177.973068 1354.874390,154.122421 
	C1357.381714,185.406311 1359.676147,214.032852 1362.084961,244.088409 
	C1344.562012,238.115128 1328.291260,232.568665 1311.296265,226.729584 
z"/>
<path fill="#74A149" opacity="1.000000" stroke="none" 
	d="
M1613.119141,883.938354 
	C1629.747314,882.943176 1638.947266,891.857422 1637.670410,906.780273 
	C1636.642334,918.795959 1627.637207,926.934814 1616.516968,925.898499 
	C1605.421143,924.864563 1597.200317,913.987915 1598.875366,902.273132 
	C1600.075806,893.878113 1603.705078,887.104736 1613.119141,883.938354 
z"/>
<path fill="#709D45" opacity="1.000000" stroke="none" 
	d="
M1543.745361,894.678467 
	C1533.156860,895.505859 1523.339966,896.029480 1512.888184,896.586975 
	C1512.888184,884.658203 1512.888184,874.178955 1512.888184,862.602966 
	C1522.361450,861.759216 1531.875854,861.191589 1541.269165,862.780701 
	C1547.992554,863.918152 1552.691406,868.383362 1553.756836,875.385193 
	C1555.013916,883.647644 1552.728027,890.544189 1543.745361,894.678467 
z"/>
</svg>